G75*
%MOIN*%
%OFA0B0*%
%FSLAX25Y25*%
%IPPOS*%
%LPD*%
%AMOC8*
5,1,8,0,0,1.08239X$1,22.5*
%
%ADD10C,0.00197*%
%ADD11C,0.11811*%
%ADD12C,0.00000*%
%ADD13C,0.00000*%
D10*
X0036217Y0015280D02*
X0567713Y0015280D01*
X0567998Y0015283D01*
X0568284Y0015294D01*
X0568569Y0015311D01*
X0568853Y0015335D01*
X0569137Y0015366D01*
X0569420Y0015404D01*
X0569701Y0015449D01*
X0569982Y0015500D01*
X0570262Y0015558D01*
X0570540Y0015623D01*
X0570816Y0015695D01*
X0571090Y0015773D01*
X0571363Y0015858D01*
X0571633Y0015950D01*
X0571901Y0016048D01*
X0572167Y0016152D01*
X0572430Y0016263D01*
X0572690Y0016380D01*
X0572948Y0016503D01*
X0573202Y0016633D01*
X0573453Y0016769D01*
X0573701Y0016910D01*
X0573945Y0017058D01*
X0574186Y0017211D01*
X0574422Y0017371D01*
X0574655Y0017536D01*
X0574884Y0017706D01*
X0575109Y0017882D01*
X0575329Y0018064D01*
X0575545Y0018250D01*
X0575756Y0018442D01*
X0575963Y0018639D01*
X0576165Y0018841D01*
X0576362Y0019048D01*
X0576554Y0019259D01*
X0576740Y0019475D01*
X0576922Y0019695D01*
X0577098Y0019920D01*
X0577268Y0020149D01*
X0577433Y0020382D01*
X0577593Y0020618D01*
X0577746Y0020859D01*
X0577894Y0021103D01*
X0578035Y0021351D01*
X0578171Y0021602D01*
X0578301Y0021856D01*
X0578424Y0022114D01*
X0578541Y0022374D01*
X0578652Y0022637D01*
X0578756Y0022903D01*
X0578854Y0023171D01*
X0578946Y0023441D01*
X0579031Y0023714D01*
X0579109Y0023988D01*
X0579181Y0024264D01*
X0579246Y0024542D01*
X0579304Y0024822D01*
X0579355Y0025103D01*
X0579400Y0025384D01*
X0579438Y0025667D01*
X0579469Y0025951D01*
X0579493Y0026235D01*
X0579510Y0026520D01*
X0579521Y0026806D01*
X0579524Y0027091D01*
X0579524Y0172760D01*
X0579521Y0173045D01*
X0579510Y0173331D01*
X0579493Y0173616D01*
X0579469Y0173900D01*
X0579438Y0174184D01*
X0579400Y0174467D01*
X0579355Y0174748D01*
X0579304Y0175029D01*
X0579246Y0175309D01*
X0579181Y0175587D01*
X0579109Y0175863D01*
X0579031Y0176137D01*
X0578946Y0176410D01*
X0578854Y0176680D01*
X0578756Y0176948D01*
X0578652Y0177214D01*
X0578541Y0177477D01*
X0578424Y0177737D01*
X0578301Y0177995D01*
X0578171Y0178249D01*
X0578035Y0178500D01*
X0577894Y0178748D01*
X0577746Y0178992D01*
X0577593Y0179233D01*
X0577433Y0179469D01*
X0577268Y0179702D01*
X0577098Y0179931D01*
X0576922Y0180156D01*
X0576740Y0180376D01*
X0576554Y0180592D01*
X0576362Y0180803D01*
X0576165Y0181010D01*
X0575963Y0181212D01*
X0575756Y0181409D01*
X0575545Y0181601D01*
X0575329Y0181787D01*
X0575109Y0181969D01*
X0574884Y0182145D01*
X0574655Y0182315D01*
X0574422Y0182480D01*
X0574186Y0182640D01*
X0573945Y0182793D01*
X0573701Y0182941D01*
X0573453Y0183082D01*
X0573202Y0183218D01*
X0572948Y0183348D01*
X0572690Y0183471D01*
X0572430Y0183588D01*
X0572167Y0183699D01*
X0571901Y0183803D01*
X0571633Y0183901D01*
X0571363Y0183993D01*
X0571090Y0184078D01*
X0570816Y0184156D01*
X0570540Y0184228D01*
X0570262Y0184293D01*
X0569982Y0184351D01*
X0569701Y0184402D01*
X0569420Y0184447D01*
X0569137Y0184485D01*
X0568853Y0184516D01*
X0568569Y0184540D01*
X0568284Y0184557D01*
X0567998Y0184568D01*
X0567713Y0184571D01*
X0036217Y0184571D01*
X0035932Y0184568D01*
X0035646Y0184557D01*
X0035361Y0184540D01*
X0035077Y0184516D01*
X0034793Y0184485D01*
X0034510Y0184447D01*
X0034229Y0184402D01*
X0033948Y0184351D01*
X0033668Y0184293D01*
X0033390Y0184228D01*
X0033114Y0184156D01*
X0032840Y0184078D01*
X0032567Y0183993D01*
X0032297Y0183901D01*
X0032029Y0183803D01*
X0031763Y0183699D01*
X0031500Y0183588D01*
X0031240Y0183471D01*
X0030982Y0183348D01*
X0030728Y0183218D01*
X0030477Y0183082D01*
X0030229Y0182941D01*
X0029985Y0182793D01*
X0029744Y0182640D01*
X0029508Y0182480D01*
X0029275Y0182315D01*
X0029046Y0182145D01*
X0028821Y0181969D01*
X0028601Y0181787D01*
X0028385Y0181601D01*
X0028174Y0181409D01*
X0027967Y0181212D01*
X0027765Y0181010D01*
X0027568Y0180803D01*
X0027376Y0180592D01*
X0027190Y0180376D01*
X0027008Y0180156D01*
X0026832Y0179931D01*
X0026662Y0179702D01*
X0026497Y0179469D01*
X0026337Y0179233D01*
X0026184Y0178992D01*
X0026036Y0178748D01*
X0025895Y0178500D01*
X0025759Y0178249D01*
X0025629Y0177995D01*
X0025506Y0177737D01*
X0025389Y0177477D01*
X0025278Y0177214D01*
X0025174Y0176948D01*
X0025076Y0176680D01*
X0024984Y0176410D01*
X0024899Y0176137D01*
X0024821Y0175863D01*
X0024749Y0175587D01*
X0024684Y0175309D01*
X0024626Y0175029D01*
X0024575Y0174748D01*
X0024530Y0174467D01*
X0024492Y0174184D01*
X0024461Y0173900D01*
X0024437Y0173616D01*
X0024420Y0173331D01*
X0024409Y0173045D01*
X0024406Y0172760D01*
X0024406Y0027091D01*
X0024409Y0026806D01*
X0024420Y0026520D01*
X0024437Y0026235D01*
X0024461Y0025951D01*
X0024492Y0025667D01*
X0024530Y0025384D01*
X0024575Y0025103D01*
X0024626Y0024822D01*
X0024684Y0024542D01*
X0024749Y0024264D01*
X0024821Y0023988D01*
X0024899Y0023714D01*
X0024984Y0023441D01*
X0025076Y0023171D01*
X0025174Y0022903D01*
X0025278Y0022637D01*
X0025389Y0022374D01*
X0025506Y0022114D01*
X0025629Y0021856D01*
X0025759Y0021602D01*
X0025895Y0021351D01*
X0026036Y0021103D01*
X0026184Y0020859D01*
X0026337Y0020618D01*
X0026497Y0020382D01*
X0026662Y0020149D01*
X0026832Y0019920D01*
X0027008Y0019695D01*
X0027190Y0019475D01*
X0027376Y0019259D01*
X0027568Y0019048D01*
X0027765Y0018841D01*
X0027967Y0018639D01*
X0028174Y0018442D01*
X0028385Y0018250D01*
X0028601Y0018064D01*
X0028821Y0017882D01*
X0029046Y0017706D01*
X0029275Y0017536D01*
X0029508Y0017371D01*
X0029744Y0017211D01*
X0029985Y0017058D01*
X0030229Y0016910D01*
X0030477Y0016769D01*
X0030728Y0016633D01*
X0030982Y0016503D01*
X0031240Y0016380D01*
X0031500Y0016263D01*
X0031763Y0016152D01*
X0032029Y0016048D01*
X0032297Y0015950D01*
X0032567Y0015858D01*
X0032840Y0015773D01*
X0033114Y0015695D01*
X0033390Y0015623D01*
X0033668Y0015558D01*
X0033948Y0015500D01*
X0034229Y0015449D01*
X0034510Y0015404D01*
X0034793Y0015366D01*
X0035077Y0015335D01*
X0035361Y0015311D01*
X0035646Y0015294D01*
X0035932Y0015283D01*
X0036217Y0015280D01*
X0272044Y0101894D02*
X0340154Y0101894D01*
X0340154Y0101893D02*
X0340240Y0101895D01*
X0340326Y0101900D01*
X0340411Y0101910D01*
X0340496Y0101923D01*
X0340580Y0101940D01*
X0340664Y0101960D01*
X0340746Y0101984D01*
X0340827Y0102012D01*
X0340908Y0102043D01*
X0340986Y0102077D01*
X0341063Y0102115D01*
X0341139Y0102157D01*
X0341212Y0102201D01*
X0341283Y0102249D01*
X0341353Y0102300D01*
X0341420Y0102354D01*
X0341484Y0102410D01*
X0341546Y0102470D01*
X0341606Y0102532D01*
X0341662Y0102596D01*
X0341716Y0102663D01*
X0341767Y0102733D01*
X0341815Y0102804D01*
X0341859Y0102878D01*
X0341901Y0102953D01*
X0341939Y0103030D01*
X0341973Y0103108D01*
X0342004Y0103189D01*
X0342032Y0103270D01*
X0342056Y0103352D01*
X0342076Y0103436D01*
X0342093Y0103520D01*
X0342106Y0103605D01*
X0342116Y0103690D01*
X0342121Y0103776D01*
X0342123Y0103862D01*
X0342123Y0123941D01*
X0342121Y0124027D01*
X0342116Y0124113D01*
X0342106Y0124198D01*
X0342093Y0124283D01*
X0342076Y0124367D01*
X0342056Y0124451D01*
X0342032Y0124533D01*
X0342004Y0124614D01*
X0341973Y0124695D01*
X0341939Y0124773D01*
X0341901Y0124850D01*
X0341859Y0124926D01*
X0341815Y0124999D01*
X0341767Y0125070D01*
X0341716Y0125140D01*
X0341662Y0125207D01*
X0341606Y0125271D01*
X0341546Y0125333D01*
X0341484Y0125393D01*
X0341420Y0125449D01*
X0341353Y0125503D01*
X0341283Y0125554D01*
X0341212Y0125602D01*
X0341139Y0125646D01*
X0341063Y0125688D01*
X0340986Y0125726D01*
X0340908Y0125760D01*
X0340827Y0125791D01*
X0340746Y0125819D01*
X0340664Y0125843D01*
X0340580Y0125863D01*
X0340496Y0125880D01*
X0340411Y0125893D01*
X0340326Y0125903D01*
X0340240Y0125908D01*
X0340154Y0125910D01*
X0340154Y0125909D02*
X0272044Y0125909D01*
X0272044Y0125910D02*
X0271958Y0125908D01*
X0271872Y0125903D01*
X0271787Y0125893D01*
X0271702Y0125880D01*
X0271618Y0125863D01*
X0271534Y0125843D01*
X0271452Y0125819D01*
X0271371Y0125791D01*
X0271290Y0125760D01*
X0271212Y0125726D01*
X0271135Y0125688D01*
X0271060Y0125646D01*
X0270986Y0125602D01*
X0270915Y0125554D01*
X0270845Y0125503D01*
X0270778Y0125449D01*
X0270714Y0125393D01*
X0270652Y0125333D01*
X0270592Y0125271D01*
X0270536Y0125207D01*
X0270482Y0125140D01*
X0270431Y0125070D01*
X0270383Y0124999D01*
X0270339Y0124926D01*
X0270297Y0124850D01*
X0270259Y0124773D01*
X0270225Y0124695D01*
X0270194Y0124614D01*
X0270166Y0124533D01*
X0270142Y0124451D01*
X0270122Y0124367D01*
X0270105Y0124283D01*
X0270092Y0124198D01*
X0270082Y0124113D01*
X0270077Y0124027D01*
X0270075Y0123941D01*
X0270075Y0103862D01*
X0270077Y0103776D01*
X0270082Y0103690D01*
X0270092Y0103605D01*
X0270105Y0103520D01*
X0270122Y0103436D01*
X0270142Y0103352D01*
X0270166Y0103270D01*
X0270194Y0103189D01*
X0270225Y0103108D01*
X0270259Y0103030D01*
X0270297Y0102953D01*
X0270339Y0102878D01*
X0270383Y0102804D01*
X0270431Y0102733D01*
X0270482Y0102663D01*
X0270536Y0102596D01*
X0270592Y0102532D01*
X0270652Y0102470D01*
X0270714Y0102410D01*
X0270778Y0102354D01*
X0270845Y0102300D01*
X0270915Y0102249D01*
X0270986Y0102201D01*
X0271060Y0102157D01*
X0271135Y0102115D01*
X0271212Y0102077D01*
X0271290Y0102043D01*
X0271371Y0102012D01*
X0271452Y0101984D01*
X0271534Y0101960D01*
X0271618Y0101940D01*
X0271702Y0101923D01*
X0271787Y0101910D01*
X0271872Y0101900D01*
X0271958Y0101895D01*
X0272044Y0101893D01*
D11*
X0040154Y0168823D03*
X0040154Y0031028D03*
X0563776Y0031028D03*
X0563776Y0168823D03*
D12*
X0443501Y0102445D02*
X0441138Y0102445D01*
X0439957Y0101303D02*
X0439959Y0101237D01*
X0439964Y0101171D01*
X0439974Y0101105D01*
X0439987Y0101040D01*
X0440003Y0100976D01*
X0440023Y0100913D01*
X0440047Y0100851D01*
X0440074Y0100791D01*
X0440104Y0100732D01*
X0440138Y0100675D01*
X0440175Y0100620D01*
X0440215Y0100567D01*
X0440257Y0100516D01*
X0440303Y0100468D01*
X0440351Y0100422D01*
X0440402Y0100380D01*
X0440455Y0100340D01*
X0440510Y0100303D01*
X0440567Y0100269D01*
X0440626Y0100239D01*
X0440686Y0100212D01*
X0440748Y0100188D01*
X0440811Y0100168D01*
X0440875Y0100152D01*
X0440940Y0100139D01*
X0441006Y0100129D01*
X0441072Y0100124D01*
X0441138Y0100122D01*
X0439957Y0101264D02*
X0439959Y0101330D01*
X0439964Y0101396D01*
X0439974Y0101462D01*
X0439987Y0101527D01*
X0440003Y0101591D01*
X0440023Y0101654D01*
X0440047Y0101716D01*
X0440074Y0101776D01*
X0440104Y0101835D01*
X0440138Y0101892D01*
X0440175Y0101947D01*
X0440215Y0102000D01*
X0440257Y0102051D01*
X0440303Y0102099D01*
X0440351Y0102145D01*
X0440402Y0102187D01*
X0440455Y0102227D01*
X0440510Y0102264D01*
X0440567Y0102298D01*
X0440626Y0102328D01*
X0440686Y0102355D01*
X0440748Y0102379D01*
X0440811Y0102399D01*
X0440875Y0102415D01*
X0440940Y0102428D01*
X0441006Y0102438D01*
X0441072Y0102443D01*
X0441138Y0102445D01*
X0443501Y0102445D02*
X0443567Y0102443D01*
X0443633Y0102438D01*
X0443699Y0102428D01*
X0443764Y0102415D01*
X0443828Y0102399D01*
X0443891Y0102379D01*
X0443953Y0102355D01*
X0444013Y0102328D01*
X0444072Y0102298D01*
X0444129Y0102264D01*
X0444184Y0102227D01*
X0444237Y0102187D01*
X0444288Y0102145D01*
X0444336Y0102099D01*
X0444382Y0102051D01*
X0444424Y0102000D01*
X0444464Y0101947D01*
X0444501Y0101892D01*
X0444535Y0101835D01*
X0444565Y0101776D01*
X0444592Y0101716D01*
X0444616Y0101654D01*
X0444636Y0101591D01*
X0444652Y0101527D01*
X0444665Y0101462D01*
X0444675Y0101396D01*
X0444680Y0101330D01*
X0444682Y0101264D01*
D13*
X0444682Y0101303D02*
X0444680Y0101237D01*
X0444675Y0101171D01*
X0444665Y0101105D01*
X0444652Y0101040D01*
X0444636Y0100976D01*
X0444616Y0100913D01*
X0444592Y0100851D01*
X0444565Y0100791D01*
X0444535Y0100732D01*
X0444501Y0100675D01*
X0444464Y0100620D01*
X0444424Y0100567D01*
X0444382Y0100516D01*
X0444336Y0100468D01*
X0444288Y0100422D01*
X0444237Y0100380D01*
X0444184Y0100340D01*
X0444129Y0100303D01*
X0444072Y0100269D01*
X0444013Y0100239D01*
X0443953Y0100212D01*
X0443891Y0100188D01*
X0443828Y0100168D01*
X0443764Y0100152D01*
X0443699Y0100139D01*
X0443633Y0100129D01*
X0443567Y0100124D01*
X0443501Y0100122D01*
X0441138Y0100122D01*
X0450587Y0096972D02*
X0450587Y0095004D01*
X0450589Y0094937D01*
X0450595Y0094869D01*
X0450604Y0094803D01*
X0450618Y0094737D01*
X0450635Y0094671D01*
X0450656Y0094607D01*
X0450680Y0094544D01*
X0450708Y0094483D01*
X0450740Y0094423D01*
X0450774Y0094366D01*
X0450813Y0094310D01*
X0450854Y0094256D01*
X0450898Y0094205D01*
X0450945Y0094157D01*
X0450995Y0094111D01*
X0451047Y0094069D01*
X0451101Y0094029D01*
X0451158Y0093993D01*
X0451217Y0093959D01*
X0451277Y0093930D01*
X0451340Y0093903D01*
X0451403Y0093881D01*
X0451468Y0093862D01*
X0451533Y0093847D01*
X0451600Y0093835D01*
X0451667Y0093827D01*
X0451734Y0093823D01*
X0451802Y0093823D01*
X0451869Y0093827D01*
X0451936Y0093835D01*
X0452003Y0093847D01*
X0452068Y0093862D01*
X0452133Y0093881D01*
X0452196Y0093903D01*
X0452259Y0093930D01*
X0452319Y0093959D01*
X0452378Y0093993D01*
X0452435Y0094029D01*
X0452489Y0094069D01*
X0452541Y0094111D01*
X0452591Y0094157D01*
X0452638Y0094205D01*
X0452682Y0094256D01*
X0452723Y0094310D01*
X0452762Y0094366D01*
X0452796Y0094423D01*
X0452828Y0094483D01*
X0452856Y0094544D01*
X0452880Y0094607D01*
X0452901Y0094671D01*
X0452918Y0094737D01*
X0452932Y0094803D01*
X0452941Y0094869D01*
X0452947Y0094937D01*
X0452949Y0095004D01*
X0452949Y0096972D01*
X0452947Y0097039D01*
X0452941Y0097107D01*
X0452932Y0097173D01*
X0452918Y0097239D01*
X0452901Y0097305D01*
X0452880Y0097369D01*
X0452856Y0097432D01*
X0452828Y0097493D01*
X0452796Y0097553D01*
X0452762Y0097610D01*
X0452723Y0097666D01*
X0452682Y0097720D01*
X0452638Y0097771D01*
X0452591Y0097819D01*
X0452541Y0097865D01*
X0452489Y0097907D01*
X0452435Y0097947D01*
X0452378Y0097983D01*
X0452319Y0098017D01*
X0452259Y0098046D01*
X0452196Y0098073D01*
X0452133Y0098095D01*
X0452068Y0098114D01*
X0452003Y0098129D01*
X0451936Y0098141D01*
X0451869Y0098149D01*
X0451802Y0098153D01*
X0451734Y0098153D01*
X0451667Y0098149D01*
X0451600Y0098141D01*
X0451533Y0098129D01*
X0451468Y0098114D01*
X0451403Y0098095D01*
X0451340Y0098073D01*
X0451277Y0098046D01*
X0451217Y0098017D01*
X0451158Y0097983D01*
X0451101Y0097947D01*
X0451047Y0097907D01*
X0450995Y0097865D01*
X0450945Y0097819D01*
X0450898Y0097771D01*
X0450854Y0097720D01*
X0450813Y0097666D01*
X0450774Y0097610D01*
X0450740Y0097553D01*
X0450708Y0097493D01*
X0450680Y0097432D01*
X0450656Y0097369D01*
X0450635Y0097305D01*
X0450618Y0097239D01*
X0450604Y0097173D01*
X0450595Y0097107D01*
X0450589Y0097039D01*
X0450587Y0096972D01*
X0434052Y0100122D02*
X0431690Y0100122D01*
X0431623Y0100124D01*
X0431555Y0100130D01*
X0431489Y0100139D01*
X0431423Y0100153D01*
X0431357Y0100170D01*
X0431293Y0100191D01*
X0431230Y0100215D01*
X0431169Y0100243D01*
X0431109Y0100275D01*
X0431052Y0100309D01*
X0430996Y0100348D01*
X0430942Y0100389D01*
X0430891Y0100433D01*
X0430843Y0100480D01*
X0430797Y0100530D01*
X0430755Y0100582D01*
X0430715Y0100636D01*
X0430679Y0100693D01*
X0430645Y0100752D01*
X0430616Y0100812D01*
X0430589Y0100875D01*
X0430567Y0100938D01*
X0430548Y0101003D01*
X0430533Y0101068D01*
X0430521Y0101135D01*
X0430513Y0101202D01*
X0430509Y0101269D01*
X0430509Y0101337D01*
X0430513Y0101404D01*
X0430521Y0101471D01*
X0430533Y0101538D01*
X0430548Y0101603D01*
X0430567Y0101668D01*
X0430589Y0101731D01*
X0430616Y0101794D01*
X0430645Y0101854D01*
X0430679Y0101913D01*
X0430715Y0101970D01*
X0430755Y0102024D01*
X0430797Y0102076D01*
X0430843Y0102126D01*
X0430891Y0102173D01*
X0430942Y0102217D01*
X0430996Y0102258D01*
X0431052Y0102297D01*
X0431109Y0102331D01*
X0431169Y0102363D01*
X0431230Y0102391D01*
X0431293Y0102415D01*
X0431357Y0102436D01*
X0431423Y0102453D01*
X0431489Y0102467D01*
X0431555Y0102476D01*
X0431623Y0102482D01*
X0431690Y0102484D01*
X0434052Y0102484D01*
X0434118Y0102482D01*
X0434184Y0102477D01*
X0434250Y0102467D01*
X0434315Y0102454D01*
X0434379Y0102438D01*
X0434442Y0102418D01*
X0434504Y0102394D01*
X0434564Y0102367D01*
X0434623Y0102337D01*
X0434680Y0102303D01*
X0434735Y0102266D01*
X0434788Y0102226D01*
X0434839Y0102184D01*
X0434887Y0102138D01*
X0434933Y0102090D01*
X0434975Y0102039D01*
X0435015Y0101986D01*
X0435052Y0101931D01*
X0435086Y0101874D01*
X0435116Y0101815D01*
X0435143Y0101755D01*
X0435167Y0101693D01*
X0435187Y0101630D01*
X0435203Y0101566D01*
X0435216Y0101501D01*
X0435226Y0101435D01*
X0435231Y0101369D01*
X0435233Y0101303D01*
X0435231Y0101237D01*
X0435226Y0101171D01*
X0435216Y0101105D01*
X0435203Y0101040D01*
X0435187Y0100976D01*
X0435167Y0100913D01*
X0435143Y0100851D01*
X0435116Y0100791D01*
X0435086Y0100732D01*
X0435052Y0100675D01*
X0435015Y0100620D01*
X0434975Y0100567D01*
X0434933Y0100516D01*
X0434887Y0100468D01*
X0434839Y0100422D01*
X0434788Y0100380D01*
X0434735Y0100340D01*
X0434680Y0100303D01*
X0434623Y0100269D01*
X0434564Y0100239D01*
X0434504Y0100212D01*
X0434442Y0100188D01*
X0434379Y0100168D01*
X0434315Y0100152D01*
X0434250Y0100139D01*
X0434184Y0100129D01*
X0434118Y0100124D01*
X0434052Y0100122D01*
X0424603Y0096972D02*
X0424603Y0095004D01*
X0424601Y0094937D01*
X0424595Y0094869D01*
X0424586Y0094803D01*
X0424572Y0094737D01*
X0424555Y0094671D01*
X0424534Y0094607D01*
X0424510Y0094544D01*
X0424482Y0094483D01*
X0424450Y0094423D01*
X0424416Y0094366D01*
X0424377Y0094310D01*
X0424336Y0094256D01*
X0424292Y0094205D01*
X0424245Y0094157D01*
X0424195Y0094111D01*
X0424143Y0094069D01*
X0424089Y0094029D01*
X0424032Y0093993D01*
X0423973Y0093959D01*
X0423913Y0093930D01*
X0423850Y0093903D01*
X0423787Y0093881D01*
X0423722Y0093862D01*
X0423657Y0093847D01*
X0423590Y0093835D01*
X0423523Y0093827D01*
X0423456Y0093823D01*
X0423388Y0093823D01*
X0423321Y0093827D01*
X0423254Y0093835D01*
X0423187Y0093847D01*
X0423122Y0093862D01*
X0423057Y0093881D01*
X0422994Y0093903D01*
X0422931Y0093930D01*
X0422871Y0093959D01*
X0422812Y0093993D01*
X0422755Y0094029D01*
X0422701Y0094069D01*
X0422649Y0094111D01*
X0422599Y0094157D01*
X0422552Y0094205D01*
X0422508Y0094256D01*
X0422467Y0094310D01*
X0422428Y0094366D01*
X0422394Y0094423D01*
X0422362Y0094483D01*
X0422334Y0094544D01*
X0422310Y0094607D01*
X0422289Y0094671D01*
X0422272Y0094737D01*
X0422258Y0094803D01*
X0422249Y0094869D01*
X0422243Y0094937D01*
X0422241Y0095004D01*
X0422241Y0096972D01*
X0422243Y0097039D01*
X0422249Y0097107D01*
X0422258Y0097173D01*
X0422272Y0097239D01*
X0422289Y0097305D01*
X0422310Y0097369D01*
X0422334Y0097432D01*
X0422362Y0097493D01*
X0422394Y0097553D01*
X0422428Y0097610D01*
X0422467Y0097666D01*
X0422508Y0097720D01*
X0422552Y0097771D01*
X0422599Y0097819D01*
X0422649Y0097865D01*
X0422701Y0097907D01*
X0422755Y0097947D01*
X0422812Y0097983D01*
X0422871Y0098017D01*
X0422931Y0098046D01*
X0422994Y0098073D01*
X0423057Y0098095D01*
X0423122Y0098114D01*
X0423187Y0098129D01*
X0423254Y0098141D01*
X0423321Y0098149D01*
X0423388Y0098153D01*
X0423456Y0098153D01*
X0423523Y0098149D01*
X0423590Y0098141D01*
X0423657Y0098129D01*
X0423722Y0098114D01*
X0423787Y0098095D01*
X0423850Y0098073D01*
X0423913Y0098046D01*
X0423973Y0098017D01*
X0424032Y0097983D01*
X0424089Y0097947D01*
X0424143Y0097907D01*
X0424195Y0097865D01*
X0424245Y0097819D01*
X0424292Y0097771D01*
X0424336Y0097720D01*
X0424377Y0097666D01*
X0424416Y0097610D01*
X0424450Y0097553D01*
X0424482Y0097493D01*
X0424510Y0097432D01*
X0424534Y0097369D01*
X0424555Y0097305D01*
X0424572Y0097239D01*
X0424586Y0097173D01*
X0424595Y0097107D01*
X0424601Y0097039D01*
X0424603Y0096972D01*
M02*
