%
M48
M72
T01C0.01181
T02C0.01200
T03C0.01299
T04C0.03200
T05C0.03543
T06C0.11811
%
T01
X49997Y21185
X65745Y29059
X73619Y29059
X81493Y29059
X89367Y29059
X89367Y36933
X65745Y36933
X49997Y36933
X47044Y45791
X38186Y45791
X83855Y65476
X89367Y68429
X97241Y76303
X105115Y76303
X97241Y84177
X115942Y86146
X128737Y84177
X136611Y84177
X132280Y91067
X112989Y92051
X93304Y103862
X118894Y116657
X115942Y126894
X115942Y130437
X128737Y139295
X144485Y145201
X151375Y145201
X146060Y150319
X144485Y155043
X146060Y159768
X158264Y156028
X162201Y156028
X166138Y156028
X181886Y163902
X172044Y165870
X182871Y172760
X186808Y169807
X206886Y165870
X215351Y162917
X215351Y155043
X231099Y155043
X235036Y160949
X231099Y170791
X215351Y170791
X183855Y178665
X175981Y178665
X168107Y178665
X187792Y155043
X183855Y147563
X182871Y140280
X182871Y136343
X182871Y132406
X178934Y132406
X174997Y132406
X162201Y119610
X158264Y119610
X151768Y112720
X139564Y105831
X152359Y99925
X168107Y99925
X175981Y99925
X183855Y99925
X175981Y107799
X168107Y107799
X206886Y112720
X215351Y115673
X226965Y122563
X237989Y129453
X235036Y135358
X235036Y139295
X235036Y143232
X215351Y147169
X207477Y147169
X258658Y146185
X262595Y146185
X280312Y144217
X285233Y144217
X301965Y141264
X294091Y136343
X280312Y130437
X311808Y132406
X321650Y133587
X328540Y134374
X334446Y134374
X341306Y136736
X371847Y133390
X376768Y132406
X388579Y131421
X409249Y131421
X404327Y139295
X422044Y142248
X422044Y148154
X407280Y157012
X394485Y157012
X384642Y157012
X365942Y151106
X362989Y151106
X360036Y151106
X376768Y142248
X385430Y122563
X404327Y115673
X387595Y114689
X409249Y107799
X409249Y103862
X402359Y98941
X402359Y93035
X398422Y85161
X379327Y80240
X365548Y80240
X342320Y91067
X342320Y95004
X325587Y95988
X317713Y93035
X313776Y93035
X305902Y95988
X301965Y95988
X298028Y95988
X290154Y95988
X282280Y87524
X289170Y79256
X286217Y77287
X313776Y77287
X317713Y75319
X317713Y79256
X317713Y85161
X325587Y86146
X317713Y89098
X337398Y85752
X364957Y93035
X362005Y107799
X349209Y114689
X435823Y115673
X463383Y108783
X478146Y102878
X459446Y99925
X445666Y95988
X440745Y95988
X435823Y95988
X447635Y91067
X447635Y88114
X450587Y88114
X453540Y88114
X475194Y85161
X483068Y84177
X490942Y76303
X483068Y68429
X475194Y68429
X475194Y60555
X490942Y60555
X498816Y52681
X506690Y52681
X518501Y48154
X531690Y55043
X523422Y59571
X523422Y66461
X553934Y68429
X569682Y68429
X569682Y76303
X553934Y76303
X553934Y84177
X569682Y84177
X569682Y92051
X553934Y92051
X530312Y84177
X522438Y84177
X514564Y84177
X514564Y92051
X522438Y92051
X530312Y99925
X530312Y107799
X522438Y107799
X501768Y114689
X522438Y115673
X530312Y115673
X542123Y117642
X553934Y115673
X569682Y115673
X553934Y123547
X553934Y131421
X544091Y139295
X538186Y139295
X538186Y145201
X544091Y145201
X546060Y155043
X538186Y155043
X553934Y155043
X561808Y155043
X569682Y155043
X546060Y170791
X546060Y178665
X553934Y178665
X530312Y178665
X522438Y178665
X506690Y178665
X498816Y178665
X483068Y178665
X475194Y178665
X459446Y178665
X451572Y178665
X435823Y178665
X427949Y178665
X389564Y175713
X386611Y177681
X383658Y175713
X380705Y177681
X377753Y175713
X349209Y178665
X334446Y175713
X317320Y179650
X309839Y178665
X301965Y178665
X294091Y178665
X286217Y178665
X278343Y178665
X270501Y177681
X255674Y177681
X262595Y170791
X278343Y167839
X283264Y167839
X286217Y162917
X298028Y160949
X305902Y160949
X301965Y157012
X298028Y153075
X305902Y153075
X286217Y155043
X278343Y155043
X271286Y154453
X262595Y164886
X324997Y168823
X330115Y168823
X446650Y131421
X451572Y131421
X456493Y131421
X454524Y134374
X448619Y134374
X469288Y133390
X474209Y133390
X479131Y133390
X499603Y122563
X498816Y92051
X475194Y92051
X445666Y77287
X426965Y77287
X408264Y70398
X404327Y70398
X423028Y58587
X423028Y54650
X438776Y54650
X443698Y52681
X438776Y50713
X422044Y46776
X407280Y43823
X404327Y48154
X389564Y51697
X382674Y53665
X356099Y44807
X350194Y44807
X334446Y43823
X308855Y38902
X303934Y40870
X303934Y48744
X303934Y52681
X286217Y52681
X280509Y49531
X275390Y52681
X262595Y60555
X244682Y48154
X231099Y44807
X199603Y37917
X195666Y37917
X195666Y33980
X163383Y48744
X175981Y52681
X175981Y60555
X183855Y60555
X175981Y68429
X170863Y70398
X144485Y68429
X136611Y68429
X108068Y54650
X131296Y48154
X144091Y48154
X144091Y40280
X145469Y33980
X261611Y74335
X234052Y87720
X231099Y90083
X234052Y92445
X223225Y84177
X215351Y84177
X215351Y76303
X223225Y76303
X207477Y76303
X160233Y84177
X233068Y114689
X246847Y111736
X250784Y111736
X253737Y107799
X253737Y103862
X249800Y103862
X246847Y101894
X259642Y101894
X317713Y71382
X324603Y72366
X324603Y67445
X335430Y71382
X341335Y63508
X341335Y59571
X327556Y58587
X366138Y65476
X371847Y65476
X436808Y42839
X459446Y44807
X467320Y44807
X501768Y40870
X501768Y36933
X501768Y32996
X523422Y23154
X530312Y21185
X538186Y21185
X546060Y21185
X553934Y21185
X546060Y29059
X561808Y44807
X569682Y44807
X97241Y147169
X89367Y147169
X81493Y147169
X73619Y147169
X65745Y147169
X48028Y154059
X58855Y155043
X61808Y157996
X64760Y160949
X81493Y155043
X89367Y155043
X97241Y155043
X89367Y139295
X81493Y139295
X73619Y139295
X65745Y139295
X50981Y132406
X36020Y132406
X42123Y123547
X49997Y123547
X65745Y123547
X65745Y131421
X73619Y131421
X81493Y131421
X89367Y131421
X83461Y121579
X49997Y115673
X42123Y115673
X36020Y107799
X50981Y107799
X49997Y99925
X42123Y99925
X42123Y92051
X36020Y86146
X50981Y86146
X65745Y84177
X49997Y76303
X42123Y76303
X34249Y154059
X49997Y178665
X57871Y178665
T02
X571757Y110555
T03
X424997Y138902
X419091Y138902
X419091Y145201
X424997Y145201
X424997Y151500
X419091Y151500
T04
X305465Y61102
X298465Y54102
T05
X340956Y77280
X354956Y77280
X399956Y77280
X413956Y77280
X455129Y77280
X469129Y77280
X514129Y77280
X528129Y77280
X502629Y99780
X488629Y99780
X477129Y122280
X463129Y122280
X421956Y122280
X407956Y122280
X362956Y122280
X348956Y122280
X374456Y99780
X388456Y99780
X263570Y122280
X249570Y122280
X204570Y122280
X190570Y122280
X149397Y122280
X135397Y122280
X90397Y122280
X76397Y122280
X101897Y99780
X115897Y99780
X127397Y77280
X141397Y77280
X182570Y77280
X196570Y77280
X241570Y77280
X255570Y77280
X230070Y99780
X216070Y99780
X82397Y77280
X68397Y77280
X92697Y47780
X106697Y47780
X206870Y47780
X220870Y47780
X365256Y47780
X379256Y47780
X479429Y47780
X493429Y47780
X522129Y122280
X536129Y122280
X511829Y151780
X497829Y151780
X397656Y151780
X383656Y151780
X239270Y151780
X225270Y151780
X125097Y151780
X111097Y151780
T06
X40154Y168823
X40154Y31028
X563776Y31028
X563776Y168823
M30
