G75*
%MOIN*%
%OFA0B0*%
%FSLAX25Y25*%
%IPPOS*%
%LPD*%
%AMOC8*
5,1,8,0,0,1.08239X$1,22.5*
%
%ADD10C,0.00197*%
%ADD11C,0.01100*%
%ADD12C,0.00800*%
%ADD13C,0.11811*%
%ADD14C,0.00600*%
%ADD15R,0.01800X0.03000*%
%ADD16R,0.03000X0.01800*%
%ADD17C,0.02000*%
%ADD18C,0.00300*%
%ADD19R,0.00591X0.01181*%
%ADD20R,0.01181X0.01181*%
%ADD21C,0.01969*%
%ADD22C,0.00500*%
%ADD23C,0.02953*%
%ADD24C,0.06299*%
%ADD25C,0.00787*%
%ADD26C,0.00400*%
%ADD27R,0.01181X0.00591*%
D10*
X0036217Y0015280D02*
X0567713Y0015280D01*
X0567998Y0015283D01*
X0568284Y0015294D01*
X0568569Y0015311D01*
X0568853Y0015335D01*
X0569137Y0015366D01*
X0569420Y0015404D01*
X0569701Y0015449D01*
X0569982Y0015500D01*
X0570262Y0015558D01*
X0570540Y0015623D01*
X0570816Y0015695D01*
X0571090Y0015773D01*
X0571363Y0015858D01*
X0571633Y0015950D01*
X0571901Y0016048D01*
X0572167Y0016152D01*
X0572430Y0016263D01*
X0572690Y0016380D01*
X0572948Y0016503D01*
X0573202Y0016633D01*
X0573453Y0016769D01*
X0573701Y0016910D01*
X0573945Y0017058D01*
X0574186Y0017211D01*
X0574422Y0017371D01*
X0574655Y0017536D01*
X0574884Y0017706D01*
X0575109Y0017882D01*
X0575329Y0018064D01*
X0575545Y0018250D01*
X0575756Y0018442D01*
X0575963Y0018639D01*
X0576165Y0018841D01*
X0576362Y0019048D01*
X0576554Y0019259D01*
X0576740Y0019475D01*
X0576922Y0019695D01*
X0577098Y0019920D01*
X0577268Y0020149D01*
X0577433Y0020382D01*
X0577593Y0020618D01*
X0577746Y0020859D01*
X0577894Y0021103D01*
X0578035Y0021351D01*
X0578171Y0021602D01*
X0578301Y0021856D01*
X0578424Y0022114D01*
X0578541Y0022374D01*
X0578652Y0022637D01*
X0578756Y0022903D01*
X0578854Y0023171D01*
X0578946Y0023441D01*
X0579031Y0023714D01*
X0579109Y0023988D01*
X0579181Y0024264D01*
X0579246Y0024542D01*
X0579304Y0024822D01*
X0579355Y0025103D01*
X0579400Y0025384D01*
X0579438Y0025667D01*
X0579469Y0025951D01*
X0579493Y0026235D01*
X0579510Y0026520D01*
X0579521Y0026806D01*
X0579524Y0027091D01*
X0579524Y0172760D01*
X0579521Y0173045D01*
X0579510Y0173331D01*
X0579493Y0173616D01*
X0579469Y0173900D01*
X0579438Y0174184D01*
X0579400Y0174467D01*
X0579355Y0174748D01*
X0579304Y0175029D01*
X0579246Y0175309D01*
X0579181Y0175587D01*
X0579109Y0175863D01*
X0579031Y0176137D01*
X0578946Y0176410D01*
X0578854Y0176680D01*
X0578756Y0176948D01*
X0578652Y0177214D01*
X0578541Y0177477D01*
X0578424Y0177737D01*
X0578301Y0177995D01*
X0578171Y0178249D01*
X0578035Y0178500D01*
X0577894Y0178748D01*
X0577746Y0178992D01*
X0577593Y0179233D01*
X0577433Y0179469D01*
X0577268Y0179702D01*
X0577098Y0179931D01*
X0576922Y0180156D01*
X0576740Y0180376D01*
X0576554Y0180592D01*
X0576362Y0180803D01*
X0576165Y0181010D01*
X0575963Y0181212D01*
X0575756Y0181409D01*
X0575545Y0181601D01*
X0575329Y0181787D01*
X0575109Y0181969D01*
X0574884Y0182145D01*
X0574655Y0182315D01*
X0574422Y0182480D01*
X0574186Y0182640D01*
X0573945Y0182793D01*
X0573701Y0182941D01*
X0573453Y0183082D01*
X0573202Y0183218D01*
X0572948Y0183348D01*
X0572690Y0183471D01*
X0572430Y0183588D01*
X0572167Y0183699D01*
X0571901Y0183803D01*
X0571633Y0183901D01*
X0571363Y0183993D01*
X0571090Y0184078D01*
X0570816Y0184156D01*
X0570540Y0184228D01*
X0570262Y0184293D01*
X0569982Y0184351D01*
X0569701Y0184402D01*
X0569420Y0184447D01*
X0569137Y0184485D01*
X0568853Y0184516D01*
X0568569Y0184540D01*
X0568284Y0184557D01*
X0567998Y0184568D01*
X0567713Y0184571D01*
X0036217Y0184571D01*
X0035932Y0184568D01*
X0035646Y0184557D01*
X0035361Y0184540D01*
X0035077Y0184516D01*
X0034793Y0184485D01*
X0034510Y0184447D01*
X0034229Y0184402D01*
X0033948Y0184351D01*
X0033668Y0184293D01*
X0033390Y0184228D01*
X0033114Y0184156D01*
X0032840Y0184078D01*
X0032567Y0183993D01*
X0032297Y0183901D01*
X0032029Y0183803D01*
X0031763Y0183699D01*
X0031500Y0183588D01*
X0031240Y0183471D01*
X0030982Y0183348D01*
X0030728Y0183218D01*
X0030477Y0183082D01*
X0030229Y0182941D01*
X0029985Y0182793D01*
X0029744Y0182640D01*
X0029508Y0182480D01*
X0029275Y0182315D01*
X0029046Y0182145D01*
X0028821Y0181969D01*
X0028601Y0181787D01*
X0028385Y0181601D01*
X0028174Y0181409D01*
X0027967Y0181212D01*
X0027765Y0181010D01*
X0027568Y0180803D01*
X0027376Y0180592D01*
X0027190Y0180376D01*
X0027008Y0180156D01*
X0026832Y0179931D01*
X0026662Y0179702D01*
X0026497Y0179469D01*
X0026337Y0179233D01*
X0026184Y0178992D01*
X0026036Y0178748D01*
X0025895Y0178500D01*
X0025759Y0178249D01*
X0025629Y0177995D01*
X0025506Y0177737D01*
X0025389Y0177477D01*
X0025278Y0177214D01*
X0025174Y0176948D01*
X0025076Y0176680D01*
X0024984Y0176410D01*
X0024899Y0176137D01*
X0024821Y0175863D01*
X0024749Y0175587D01*
X0024684Y0175309D01*
X0024626Y0175029D01*
X0024575Y0174748D01*
X0024530Y0174467D01*
X0024492Y0174184D01*
X0024461Y0173900D01*
X0024437Y0173616D01*
X0024420Y0173331D01*
X0024409Y0173045D01*
X0024406Y0172760D01*
X0024406Y0027091D01*
X0024409Y0026806D01*
X0024420Y0026520D01*
X0024437Y0026235D01*
X0024461Y0025951D01*
X0024492Y0025667D01*
X0024530Y0025384D01*
X0024575Y0025103D01*
X0024626Y0024822D01*
X0024684Y0024542D01*
X0024749Y0024264D01*
X0024821Y0023988D01*
X0024899Y0023714D01*
X0024984Y0023441D01*
X0025076Y0023171D01*
X0025174Y0022903D01*
X0025278Y0022637D01*
X0025389Y0022374D01*
X0025506Y0022114D01*
X0025629Y0021856D01*
X0025759Y0021602D01*
X0025895Y0021351D01*
X0026036Y0021103D01*
X0026184Y0020859D01*
X0026337Y0020618D01*
X0026497Y0020382D01*
X0026662Y0020149D01*
X0026832Y0019920D01*
X0027008Y0019695D01*
X0027190Y0019475D01*
X0027376Y0019259D01*
X0027568Y0019048D01*
X0027765Y0018841D01*
X0027967Y0018639D01*
X0028174Y0018442D01*
X0028385Y0018250D01*
X0028601Y0018064D01*
X0028821Y0017882D01*
X0029046Y0017706D01*
X0029275Y0017536D01*
X0029508Y0017371D01*
X0029744Y0017211D01*
X0029985Y0017058D01*
X0030229Y0016910D01*
X0030477Y0016769D01*
X0030728Y0016633D01*
X0030982Y0016503D01*
X0031240Y0016380D01*
X0031500Y0016263D01*
X0031763Y0016152D01*
X0032029Y0016048D01*
X0032297Y0015950D01*
X0032567Y0015858D01*
X0032840Y0015773D01*
X0033114Y0015695D01*
X0033390Y0015623D01*
X0033668Y0015558D01*
X0033948Y0015500D01*
X0034229Y0015449D01*
X0034510Y0015404D01*
X0034793Y0015366D01*
X0035077Y0015335D01*
X0035361Y0015311D01*
X0035646Y0015294D01*
X0035932Y0015283D01*
X0036217Y0015280D01*
X0272044Y0101894D02*
X0340154Y0101894D01*
X0340154Y0101893D02*
X0340240Y0101895D01*
X0340326Y0101900D01*
X0340411Y0101910D01*
X0340496Y0101923D01*
X0340580Y0101940D01*
X0340664Y0101960D01*
X0340746Y0101984D01*
X0340827Y0102012D01*
X0340908Y0102043D01*
X0340986Y0102077D01*
X0341063Y0102115D01*
X0341139Y0102157D01*
X0341212Y0102201D01*
X0341283Y0102249D01*
X0341353Y0102300D01*
X0341420Y0102354D01*
X0341484Y0102410D01*
X0341546Y0102470D01*
X0341606Y0102532D01*
X0341662Y0102596D01*
X0341716Y0102663D01*
X0341767Y0102733D01*
X0341815Y0102804D01*
X0341859Y0102878D01*
X0341901Y0102953D01*
X0341939Y0103030D01*
X0341973Y0103108D01*
X0342004Y0103189D01*
X0342032Y0103270D01*
X0342056Y0103352D01*
X0342076Y0103436D01*
X0342093Y0103520D01*
X0342106Y0103605D01*
X0342116Y0103690D01*
X0342121Y0103776D01*
X0342123Y0103862D01*
X0342123Y0123941D01*
X0342121Y0124027D01*
X0342116Y0124113D01*
X0342106Y0124198D01*
X0342093Y0124283D01*
X0342076Y0124367D01*
X0342056Y0124451D01*
X0342032Y0124533D01*
X0342004Y0124614D01*
X0341973Y0124695D01*
X0341939Y0124773D01*
X0341901Y0124850D01*
X0341859Y0124926D01*
X0341815Y0124999D01*
X0341767Y0125070D01*
X0341716Y0125140D01*
X0341662Y0125207D01*
X0341606Y0125271D01*
X0341546Y0125333D01*
X0341484Y0125393D01*
X0341420Y0125449D01*
X0341353Y0125503D01*
X0341283Y0125554D01*
X0341212Y0125602D01*
X0341139Y0125646D01*
X0341063Y0125688D01*
X0340986Y0125726D01*
X0340908Y0125760D01*
X0340827Y0125791D01*
X0340746Y0125819D01*
X0340664Y0125843D01*
X0340580Y0125863D01*
X0340496Y0125880D01*
X0340411Y0125893D01*
X0340326Y0125903D01*
X0340240Y0125908D01*
X0340154Y0125910D01*
X0340154Y0125909D02*
X0272044Y0125909D01*
X0272044Y0125910D02*
X0271958Y0125908D01*
X0271872Y0125903D01*
X0271787Y0125893D01*
X0271702Y0125880D01*
X0271618Y0125863D01*
X0271534Y0125843D01*
X0271452Y0125819D01*
X0271371Y0125791D01*
X0271290Y0125760D01*
X0271212Y0125726D01*
X0271135Y0125688D01*
X0271060Y0125646D01*
X0270986Y0125602D01*
X0270915Y0125554D01*
X0270845Y0125503D01*
X0270778Y0125449D01*
X0270714Y0125393D01*
X0270652Y0125333D01*
X0270592Y0125271D01*
X0270536Y0125207D01*
X0270482Y0125140D01*
X0270431Y0125070D01*
X0270383Y0124999D01*
X0270339Y0124926D01*
X0270297Y0124850D01*
X0270259Y0124773D01*
X0270225Y0124695D01*
X0270194Y0124614D01*
X0270166Y0124533D01*
X0270142Y0124451D01*
X0270122Y0124367D01*
X0270105Y0124283D01*
X0270092Y0124198D01*
X0270082Y0124113D01*
X0270077Y0124027D01*
X0270075Y0123941D01*
X0270075Y0103862D01*
X0270077Y0103776D01*
X0270082Y0103690D01*
X0270092Y0103605D01*
X0270105Y0103520D01*
X0270122Y0103436D01*
X0270142Y0103352D01*
X0270166Y0103270D01*
X0270194Y0103189D01*
X0270225Y0103108D01*
X0270259Y0103030D01*
X0270297Y0102953D01*
X0270339Y0102878D01*
X0270383Y0102804D01*
X0270431Y0102733D01*
X0270482Y0102663D01*
X0270536Y0102596D01*
X0270592Y0102532D01*
X0270652Y0102470D01*
X0270714Y0102410D01*
X0270778Y0102354D01*
X0270845Y0102300D01*
X0270915Y0102249D01*
X0270986Y0102201D01*
X0271060Y0102157D01*
X0271135Y0102115D01*
X0271212Y0102077D01*
X0271290Y0102043D01*
X0271371Y0102012D01*
X0271452Y0101984D01*
X0271534Y0101960D01*
X0271618Y0101940D01*
X0271702Y0101923D01*
X0271787Y0101910D01*
X0271872Y0101900D01*
X0271958Y0101895D01*
X0272044Y0101893D01*
D11*
X0357696Y0031577D02*
X0357696Y0025672D01*
X0358680Y0025672D02*
X0356712Y0025672D01*
X0354383Y0026656D02*
X0353399Y0027640D01*
X0350447Y0027640D01*
X0350447Y0028625D02*
X0350447Y0025672D01*
X0353399Y0025672D01*
X0354383Y0026656D01*
X0351431Y0029609D02*
X0350447Y0028625D01*
X0351431Y0029609D02*
X0353399Y0029609D01*
X0357696Y0031577D02*
X0358680Y0031577D01*
X0361189Y0028625D02*
X0362173Y0029609D01*
X0365126Y0029609D01*
X0365126Y0023704D01*
X0365126Y0025672D02*
X0362173Y0025672D01*
X0361189Y0026656D01*
X0361189Y0028625D01*
X0367635Y0029609D02*
X0370587Y0029609D01*
X0371571Y0028625D01*
X0370587Y0027640D01*
X0368619Y0027640D01*
X0367635Y0026656D01*
X0368619Y0025672D01*
X0371571Y0025672D01*
X0373900Y0025672D02*
X0375868Y0025672D01*
X0374884Y0025672D02*
X0374884Y0029609D01*
X0375868Y0029609D01*
X0374884Y0031577D02*
X0374884Y0032561D01*
X0378377Y0030593D02*
X0379361Y0031577D01*
X0382314Y0031577D01*
X0382314Y0025672D01*
X0379361Y0025672D01*
X0378377Y0026656D01*
X0378377Y0030593D01*
X0391268Y0029609D02*
X0394221Y0029609D01*
X0395205Y0028625D01*
X0395205Y0026656D01*
X0394221Y0025672D01*
X0391268Y0025672D01*
X0397533Y0025672D02*
X0399502Y0025672D01*
X0398518Y0025672D02*
X0398518Y0029609D01*
X0399502Y0029609D01*
X0398518Y0031577D02*
X0398518Y0032561D01*
X0401830Y0029609D02*
X0403799Y0029609D01*
X0402815Y0030593D02*
X0402815Y0026656D01*
X0401830Y0025672D01*
X0406308Y0027640D02*
X0410244Y0027640D01*
X0410244Y0026656D02*
X0410244Y0028625D01*
X0409260Y0029609D01*
X0407292Y0029609D01*
X0406308Y0028625D01*
X0406308Y0027640D01*
X0407292Y0025672D02*
X0409260Y0025672D01*
X0410244Y0026656D01*
X0412753Y0025672D02*
X0412753Y0028625D01*
X0413737Y0029609D01*
X0416690Y0029609D01*
X0416690Y0025672D01*
X0419199Y0025672D02*
X0422151Y0025672D01*
X0423135Y0026656D01*
X0423135Y0028625D01*
X0422151Y0029609D01*
X0419199Y0029609D01*
X0419199Y0024688D01*
X0420183Y0023704D01*
X0421167Y0023704D01*
X0425644Y0025672D02*
X0428597Y0025672D01*
X0429581Y0026656D01*
X0428597Y0027640D01*
X0425644Y0027640D01*
X0425644Y0028625D02*
X0425644Y0025672D01*
X0425644Y0028625D02*
X0426628Y0029609D01*
X0428597Y0029609D01*
X0432090Y0028625D02*
X0433074Y0029609D01*
X0434058Y0028625D01*
X0434058Y0025672D01*
X0436026Y0025672D02*
X0436026Y0029609D01*
X0435042Y0029609D01*
X0434058Y0028625D01*
X0432090Y0028625D02*
X0432090Y0025672D01*
X0438535Y0026656D02*
X0438535Y0028625D01*
X0439519Y0029609D01*
X0441488Y0029609D01*
X0442472Y0028625D01*
X0442472Y0026656D01*
X0441488Y0025672D01*
X0439519Y0025672D01*
X0438535Y0026656D01*
X0444890Y0029609D02*
X0445875Y0029609D01*
X0447843Y0027640D01*
X0447843Y0025672D02*
X0447843Y0029609D01*
X0450172Y0029609D02*
X0452140Y0029609D01*
X0451156Y0030593D02*
X0451156Y0026656D01*
X0450172Y0025672D01*
X0454649Y0025672D02*
X0457601Y0025672D01*
X0458585Y0026656D01*
X0458585Y0028625D01*
X0457601Y0029609D01*
X0454649Y0029609D01*
X0461094Y0028625D02*
X0461094Y0027640D01*
X0465031Y0027640D01*
X0465031Y0026656D02*
X0465031Y0028625D01*
X0464047Y0029609D01*
X0462078Y0029609D01*
X0461094Y0028625D01*
X0462078Y0025672D02*
X0464047Y0025672D01*
X0465031Y0026656D01*
X0467360Y0025672D02*
X0469328Y0025672D01*
X0468344Y0025672D02*
X0468344Y0031577D01*
X0469328Y0031577D01*
X0471837Y0031577D02*
X0475773Y0031577D01*
X0475773Y0025672D01*
X0471837Y0025672D01*
X0473805Y0028625D02*
X0475773Y0028625D01*
X0484728Y0028625D02*
X0484728Y0025672D01*
X0484728Y0028625D02*
X0485712Y0029609D01*
X0487680Y0029609D01*
X0488664Y0028625D01*
X0491173Y0029609D02*
X0494126Y0029609D01*
X0495110Y0028625D01*
X0495110Y0026656D01*
X0494126Y0025672D01*
X0491173Y0025672D01*
X0488664Y0025672D02*
X0488664Y0031577D01*
X0497619Y0028625D02*
X0498603Y0029609D01*
X0501555Y0029609D01*
X0501555Y0025672D01*
X0503884Y0025672D02*
X0505852Y0025672D01*
X0504868Y0025672D02*
X0504868Y0029609D01*
X0505852Y0029609D01*
X0504868Y0031577D02*
X0504868Y0032561D01*
X0510330Y0031577D02*
X0510330Y0025672D01*
X0512298Y0025672D02*
X0508361Y0025672D01*
X0514807Y0028625D02*
X0518743Y0028625D01*
X0521252Y0029609D02*
X0524205Y0029609D01*
X0525189Y0028625D01*
X0525189Y0026656D01*
X0524205Y0025672D01*
X0521252Y0025672D01*
X0521252Y0024688D02*
X0521252Y0029609D01*
X0527698Y0028625D02*
X0527698Y0027640D01*
X0531634Y0027640D01*
X0531634Y0026656D02*
X0531634Y0028625D01*
X0530650Y0029609D01*
X0528682Y0029609D01*
X0527698Y0028625D01*
X0528682Y0025672D02*
X0530650Y0025672D01*
X0531634Y0026656D01*
X0534143Y0026656D02*
X0535127Y0025672D01*
X0537096Y0025672D01*
X0538080Y0026656D01*
X0537096Y0028625D02*
X0535127Y0028625D01*
X0534143Y0027640D01*
X0534143Y0026656D01*
X0537096Y0028625D02*
X0538080Y0029609D01*
X0538080Y0030593D01*
X0537096Y0031577D01*
X0535127Y0031577D01*
X0534143Y0030593D01*
X0540589Y0030593D02*
X0540589Y0031577D01*
X0544525Y0031577D01*
X0540589Y0030593D02*
X0544525Y0026656D01*
X0544525Y0025672D01*
X0523221Y0023704D02*
X0522236Y0023704D01*
X0521252Y0024688D01*
X0512298Y0029609D02*
X0510330Y0031577D01*
X0497619Y0028625D02*
X0497619Y0025672D01*
X0347938Y0026656D02*
X0346954Y0025672D01*
X0344001Y0025672D01*
X0344001Y0024688D02*
X0344985Y0023704D01*
X0345969Y0023704D01*
X0344001Y0024688D02*
X0344001Y0029609D01*
X0347938Y0029609D02*
X0347938Y0026656D01*
D12*
X0430092Y0038584D02*
X0430092Y0042834D01*
X0430092Y0038584D02*
X0445492Y0038584D01*
X0445492Y0042834D01*
X0445492Y0068434D02*
X0445492Y0072684D01*
X0430092Y0072684D01*
X0430092Y0068434D01*
X0459052Y0083390D02*
X0471650Y0083390D01*
X0471650Y0088902D01*
X0459052Y0088902D01*
X0459052Y0083390D01*
X0389170Y0072169D02*
X0389170Y0069020D01*
X0389170Y0072169D02*
X0386808Y0072169D01*
X0380509Y0072169D02*
X0378146Y0072169D01*
X0378146Y0069020D01*
X0375390Y0069020D02*
X0375390Y0072169D01*
X0373028Y0072169D01*
X0366729Y0072169D02*
X0364367Y0072169D01*
X0364367Y0069020D01*
X0412005Y0109768D02*
X0418304Y0109768D01*
X0418304Y0109767D02*
X0418363Y0109781D01*
X0418421Y0109798D01*
X0418478Y0109819D01*
X0418534Y0109843D01*
X0418588Y0109871D01*
X0418640Y0109901D01*
X0418691Y0109935D01*
X0418739Y0109972D01*
X0418785Y0110011D01*
X0418828Y0110054D01*
X0418869Y0110098D01*
X0418907Y0110146D01*
X0418942Y0110195D01*
X0418974Y0110247D01*
X0419003Y0110300D01*
X0419029Y0110355D01*
X0419051Y0110411D01*
X0419070Y0110469D01*
X0419086Y0110528D01*
X0419097Y0110587D01*
X0419106Y0110647D01*
X0419110Y0110708D01*
X0419111Y0110768D01*
X0419108Y0110829D01*
X0419102Y0110889D01*
X0419092Y0110949D01*
X0412004Y0109767D02*
X0411945Y0109781D01*
X0411887Y0109798D01*
X0411830Y0109819D01*
X0411774Y0109843D01*
X0411720Y0109871D01*
X0411668Y0109901D01*
X0411617Y0109935D01*
X0411569Y0109972D01*
X0411523Y0110011D01*
X0411480Y0110054D01*
X0411439Y0110098D01*
X0411401Y0110146D01*
X0411366Y0110195D01*
X0411334Y0110247D01*
X0411305Y0110300D01*
X0411279Y0110355D01*
X0411257Y0110411D01*
X0411238Y0110469D01*
X0411222Y0110528D01*
X0411211Y0110587D01*
X0411202Y0110647D01*
X0411198Y0110708D01*
X0411197Y0110768D01*
X0411200Y0110829D01*
X0411206Y0110889D01*
X0411216Y0110949D01*
X0411216Y0116460D02*
X0411206Y0116520D01*
X0411200Y0116580D01*
X0411197Y0116641D01*
X0411198Y0116701D01*
X0411202Y0116762D01*
X0411211Y0116822D01*
X0411222Y0116881D01*
X0411238Y0116940D01*
X0411257Y0116998D01*
X0411279Y0117054D01*
X0411305Y0117109D01*
X0411334Y0117162D01*
X0411366Y0117214D01*
X0411401Y0117263D01*
X0411439Y0117311D01*
X0411480Y0117355D01*
X0411523Y0117398D01*
X0411569Y0117437D01*
X0411617Y0117474D01*
X0411668Y0117508D01*
X0411720Y0117538D01*
X0411774Y0117566D01*
X0411830Y0117590D01*
X0411887Y0117611D01*
X0411945Y0117628D01*
X0412004Y0117642D01*
X0412005Y0117642D02*
X0418304Y0117642D01*
X0418363Y0117628D01*
X0418421Y0117611D01*
X0418478Y0117590D01*
X0418534Y0117566D01*
X0418588Y0117538D01*
X0418640Y0117508D01*
X0418691Y0117474D01*
X0418739Y0117437D01*
X0418785Y0117398D01*
X0418828Y0117355D01*
X0418869Y0117311D01*
X0418907Y0117263D01*
X0418942Y0117214D01*
X0418974Y0117162D01*
X0419003Y0117109D01*
X0419029Y0117054D01*
X0419051Y0116998D01*
X0419070Y0116940D01*
X0419086Y0116881D01*
X0419097Y0116822D01*
X0419106Y0116762D01*
X0419110Y0116701D01*
X0419111Y0116641D01*
X0419108Y0116580D01*
X0419102Y0116520D01*
X0419092Y0116460D01*
X0479355Y0139295D02*
X0479355Y0147169D01*
X0483383Y0143232D01*
X0479355Y0139295D01*
X0523323Y0145988D02*
X0523323Y0149138D01*
X0529426Y0149138D01*
X0529426Y0156224D01*
X0532083Y0160358D02*
X0536020Y0160358D01*
X0532083Y0160358D02*
X0527753Y0164689D01*
X0527753Y0181224D01*
X0536020Y0181224D01*
X0540351Y0181224D02*
X0548619Y0181224D01*
X0548619Y0164689D01*
X0544288Y0160358D01*
X0540154Y0160358D01*
X0524997Y0164689D02*
X0524997Y0181224D01*
X0516729Y0181224D01*
X0512398Y0181224D02*
X0504131Y0181224D01*
X0504131Y0164689D01*
X0508461Y0160358D01*
X0512398Y0160358D01*
X0516532Y0160358D02*
X0520666Y0160358D01*
X0524997Y0164689D01*
X0516532Y0161145D02*
X0516766Y0161199D01*
X0517000Y0161257D01*
X0517231Y0161322D01*
X0517461Y0161392D01*
X0517689Y0161468D01*
X0517916Y0161549D01*
X0518140Y0161635D01*
X0518362Y0161728D01*
X0518582Y0161825D01*
X0518799Y0161928D01*
X0519014Y0162036D01*
X0519226Y0162149D01*
X0519436Y0162268D01*
X0519642Y0162391D01*
X0519845Y0162519D01*
X0520045Y0162653D01*
X0520242Y0162791D01*
X0520436Y0162934D01*
X0520626Y0163081D01*
X0520812Y0163233D01*
X0520994Y0163390D01*
X0521173Y0163551D01*
X0521347Y0163716D01*
X0521518Y0163886D01*
X0521684Y0164059D01*
X0521847Y0164237D01*
X0522004Y0164418D01*
X0522158Y0164604D01*
X0522306Y0164793D01*
X0522450Y0164985D01*
X0522590Y0165181D01*
X0522724Y0165380D01*
X0522854Y0165583D01*
X0522979Y0165788D01*
X0523099Y0165997D01*
X0523213Y0166208D01*
X0523323Y0166422D01*
X0523427Y0166639D01*
X0523526Y0166858D01*
X0523619Y0167080D01*
X0523707Y0167304D01*
X0523790Y0167529D01*
X0523867Y0167757D01*
X0523938Y0167987D01*
X0524004Y0168218D01*
X0524065Y0168451D01*
X0524119Y0168685D01*
X0524168Y0168920D01*
X0524211Y0169157D01*
X0524249Y0169394D01*
X0524280Y0169633D01*
X0524306Y0169872D01*
X0524326Y0170112D01*
X0524340Y0170352D01*
X0524349Y0170592D01*
X0524351Y0170832D01*
X0524348Y0171073D01*
X0524338Y0171313D01*
X0524323Y0171553D01*
X0524302Y0171793D01*
X0524276Y0172032D01*
X0524243Y0172270D01*
X0524205Y0172507D01*
X0524161Y0172744D01*
X0524111Y0172979D01*
X0524055Y0173213D01*
X0523994Y0173445D01*
X0523927Y0173676D01*
X0523855Y0173906D01*
X0523777Y0174133D01*
X0523693Y0174359D01*
X0523604Y0174582D01*
X0523510Y0174803D01*
X0523410Y0175022D01*
X0523305Y0175238D01*
X0523195Y0175452D01*
X0523080Y0175663D01*
X0522959Y0175871D01*
X0522834Y0176076D01*
X0522703Y0176278D01*
X0522568Y0176477D01*
X0522428Y0176672D01*
X0522283Y0176864D01*
X0522133Y0177052D01*
X0521979Y0177237D01*
X0521821Y0177418D01*
X0521658Y0177595D01*
X0521491Y0177768D01*
X0521320Y0177937D01*
X0521144Y0178101D01*
X0520965Y0178262D01*
X0520782Y0178417D01*
X0520595Y0178569D01*
X0520405Y0178716D01*
X0520211Y0178858D01*
X0520013Y0178995D01*
X0519813Y0179128D01*
X0519609Y0179255D01*
X0519402Y0179378D01*
X0519192Y0179495D01*
X0518980Y0179608D01*
X0518765Y0179715D01*
X0518547Y0179817D01*
X0518327Y0179914D01*
X0518104Y0180005D01*
X0517879Y0180091D01*
X0517653Y0180171D01*
X0517424Y0180246D01*
X0517194Y0180315D01*
X0516962Y0180378D01*
X0516729Y0180436D01*
X0501375Y0181224D02*
X0493107Y0181224D01*
X0488776Y0181224D02*
X0480509Y0181224D01*
X0480509Y0164689D01*
X0484839Y0160358D01*
X0488776Y0160358D01*
X0492910Y0160358D02*
X0497044Y0160358D01*
X0501375Y0164689D01*
X0501375Y0181224D01*
X0477753Y0181224D02*
X0469485Y0181224D01*
X0465154Y0181224D02*
X0456886Y0181224D01*
X0456886Y0164689D01*
X0461217Y0160358D01*
X0465154Y0160358D01*
X0469288Y0160358D02*
X0473422Y0160358D01*
X0477753Y0164689D01*
X0477753Y0181224D01*
X0454131Y0181224D02*
X0445863Y0181224D01*
X0441532Y0181224D02*
X0433264Y0181224D01*
X0433264Y0164689D01*
X0437595Y0160358D01*
X0441532Y0160358D01*
X0445666Y0160358D02*
X0449800Y0160358D01*
X0454131Y0164689D01*
X0454131Y0181224D01*
X0430509Y0181224D02*
X0422241Y0181224D01*
X0417910Y0181224D02*
X0409642Y0181224D01*
X0409642Y0164689D01*
X0413973Y0160358D01*
X0417910Y0160358D01*
X0422044Y0160358D02*
X0426178Y0160358D01*
X0430509Y0164689D01*
X0430509Y0181224D01*
X0417910Y0180437D02*
X0417678Y0180384D01*
X0417447Y0180325D01*
X0417218Y0180261D01*
X0416991Y0180190D01*
X0416765Y0180115D01*
X0416541Y0180034D01*
X0416319Y0179947D01*
X0416100Y0179855D01*
X0415883Y0179758D01*
X0415668Y0179655D01*
X0415456Y0179547D01*
X0415246Y0179434D01*
X0415039Y0179316D01*
X0414836Y0179193D01*
X0414635Y0179065D01*
X0414437Y0178932D01*
X0414243Y0178795D01*
X0414052Y0178652D01*
X0413865Y0178505D01*
X0413681Y0178354D01*
X0413502Y0178198D01*
X0413326Y0178038D01*
X0413154Y0177873D01*
X0412986Y0177704D01*
X0412822Y0177532D01*
X0412662Y0177355D01*
X0412507Y0177174D01*
X0412356Y0176990D01*
X0412210Y0176802D01*
X0412069Y0176611D01*
X0411932Y0176416D01*
X0411800Y0176218D01*
X0411673Y0176017D01*
X0411550Y0175812D01*
X0411433Y0175605D01*
X0411321Y0175395D01*
X0411214Y0175182D01*
X0411112Y0174967D01*
X0411016Y0174750D01*
X0410925Y0174530D01*
X0410839Y0174308D01*
X0410759Y0174083D01*
X0410684Y0173857D01*
X0410615Y0173630D01*
X0410551Y0173400D01*
X0410493Y0173169D01*
X0410441Y0172937D01*
X0410394Y0172704D01*
X0410353Y0172469D01*
X0410318Y0172234D01*
X0410289Y0171998D01*
X0410265Y0171761D01*
X0410247Y0171523D01*
X0410235Y0171286D01*
X0410229Y0171048D01*
X0410229Y0170810D01*
X0410234Y0170572D01*
X0410245Y0170334D01*
X0410262Y0170096D01*
X0410285Y0169859D01*
X0410313Y0169623D01*
X0410348Y0169387D01*
X0410388Y0169153D01*
X0410433Y0168919D01*
X0410485Y0168687D01*
X0410542Y0168456D01*
X0410605Y0168226D01*
X0410673Y0167998D01*
X0410747Y0167772D01*
X0410826Y0167547D01*
X0410911Y0167325D01*
X0411001Y0167104D01*
X0411097Y0166886D01*
X0411198Y0166671D01*
X0411304Y0166458D01*
X0411415Y0166247D01*
X0411532Y0166040D01*
X0411653Y0165835D01*
X0411780Y0165633D01*
X0411911Y0165435D01*
X0412047Y0165239D01*
X0412188Y0165047D01*
X0412333Y0164859D01*
X0412483Y0164674D01*
X0412638Y0164493D01*
X0412797Y0164316D01*
X0412960Y0164142D01*
X0413127Y0163973D01*
X0413299Y0163808D01*
X0413474Y0163647D01*
X0413653Y0163490D01*
X0413836Y0163338D01*
X0414023Y0163190D01*
X0414213Y0163047D01*
X0414407Y0162909D01*
X0414604Y0162775D01*
X0414804Y0162647D01*
X0415007Y0162523D01*
X0415214Y0162404D01*
X0415423Y0162290D01*
X0415635Y0162181D01*
X0415849Y0162078D01*
X0416066Y0161980D01*
X0416285Y0161887D01*
X0416507Y0161800D01*
X0416730Y0161718D01*
X0416955Y0161641D01*
X0417183Y0161570D01*
X0417412Y0161505D01*
X0417642Y0161445D01*
X0417874Y0161391D01*
X0418107Y0161342D01*
X0422044Y0161145D02*
X0422278Y0161199D01*
X0422512Y0161257D01*
X0422743Y0161322D01*
X0422973Y0161392D01*
X0423201Y0161468D01*
X0423428Y0161549D01*
X0423652Y0161635D01*
X0423874Y0161728D01*
X0424094Y0161825D01*
X0424311Y0161928D01*
X0424526Y0162036D01*
X0424738Y0162149D01*
X0424948Y0162268D01*
X0425154Y0162391D01*
X0425357Y0162519D01*
X0425557Y0162653D01*
X0425754Y0162791D01*
X0425948Y0162934D01*
X0426138Y0163081D01*
X0426324Y0163233D01*
X0426506Y0163390D01*
X0426685Y0163551D01*
X0426859Y0163716D01*
X0427030Y0163886D01*
X0427196Y0164059D01*
X0427359Y0164237D01*
X0427516Y0164418D01*
X0427670Y0164604D01*
X0427818Y0164793D01*
X0427962Y0164985D01*
X0428102Y0165181D01*
X0428236Y0165380D01*
X0428366Y0165583D01*
X0428491Y0165788D01*
X0428611Y0165997D01*
X0428725Y0166208D01*
X0428835Y0166422D01*
X0428939Y0166639D01*
X0429038Y0166858D01*
X0429131Y0167080D01*
X0429219Y0167304D01*
X0429302Y0167529D01*
X0429379Y0167757D01*
X0429450Y0167987D01*
X0429516Y0168218D01*
X0429577Y0168451D01*
X0429631Y0168685D01*
X0429680Y0168920D01*
X0429723Y0169157D01*
X0429761Y0169394D01*
X0429792Y0169633D01*
X0429818Y0169872D01*
X0429838Y0170112D01*
X0429852Y0170352D01*
X0429861Y0170592D01*
X0429863Y0170832D01*
X0429860Y0171073D01*
X0429850Y0171313D01*
X0429835Y0171553D01*
X0429814Y0171793D01*
X0429788Y0172032D01*
X0429755Y0172270D01*
X0429717Y0172507D01*
X0429673Y0172744D01*
X0429623Y0172979D01*
X0429567Y0173213D01*
X0429506Y0173445D01*
X0429439Y0173676D01*
X0429367Y0173906D01*
X0429289Y0174133D01*
X0429205Y0174359D01*
X0429116Y0174582D01*
X0429022Y0174803D01*
X0428922Y0175022D01*
X0428817Y0175238D01*
X0428707Y0175452D01*
X0428592Y0175663D01*
X0428471Y0175871D01*
X0428346Y0176076D01*
X0428215Y0176278D01*
X0428080Y0176477D01*
X0427940Y0176672D01*
X0427795Y0176864D01*
X0427645Y0177052D01*
X0427491Y0177237D01*
X0427333Y0177418D01*
X0427170Y0177595D01*
X0427003Y0177768D01*
X0426832Y0177937D01*
X0426656Y0178101D01*
X0426477Y0178262D01*
X0426294Y0178417D01*
X0426107Y0178569D01*
X0425917Y0178716D01*
X0425723Y0178858D01*
X0425525Y0178995D01*
X0425325Y0179128D01*
X0425121Y0179255D01*
X0424914Y0179378D01*
X0424704Y0179495D01*
X0424492Y0179608D01*
X0424277Y0179715D01*
X0424059Y0179817D01*
X0423839Y0179914D01*
X0423616Y0180005D01*
X0423391Y0180091D01*
X0423165Y0180171D01*
X0422936Y0180246D01*
X0422706Y0180315D01*
X0422474Y0180378D01*
X0422241Y0180436D01*
X0441532Y0180437D02*
X0441300Y0180384D01*
X0441069Y0180325D01*
X0440840Y0180261D01*
X0440613Y0180190D01*
X0440387Y0180115D01*
X0440163Y0180034D01*
X0439941Y0179947D01*
X0439722Y0179855D01*
X0439505Y0179758D01*
X0439290Y0179655D01*
X0439078Y0179547D01*
X0438868Y0179434D01*
X0438661Y0179316D01*
X0438458Y0179193D01*
X0438257Y0179065D01*
X0438059Y0178932D01*
X0437865Y0178795D01*
X0437674Y0178652D01*
X0437487Y0178505D01*
X0437303Y0178354D01*
X0437124Y0178198D01*
X0436948Y0178038D01*
X0436776Y0177873D01*
X0436608Y0177704D01*
X0436444Y0177532D01*
X0436284Y0177355D01*
X0436129Y0177174D01*
X0435978Y0176990D01*
X0435832Y0176802D01*
X0435691Y0176611D01*
X0435554Y0176416D01*
X0435422Y0176218D01*
X0435295Y0176017D01*
X0435172Y0175812D01*
X0435055Y0175605D01*
X0434943Y0175395D01*
X0434836Y0175182D01*
X0434734Y0174967D01*
X0434638Y0174750D01*
X0434547Y0174530D01*
X0434461Y0174308D01*
X0434381Y0174083D01*
X0434306Y0173857D01*
X0434237Y0173630D01*
X0434173Y0173400D01*
X0434115Y0173169D01*
X0434063Y0172937D01*
X0434016Y0172704D01*
X0433975Y0172469D01*
X0433940Y0172234D01*
X0433911Y0171998D01*
X0433887Y0171761D01*
X0433869Y0171523D01*
X0433857Y0171286D01*
X0433851Y0171048D01*
X0433851Y0170810D01*
X0433856Y0170572D01*
X0433867Y0170334D01*
X0433884Y0170096D01*
X0433907Y0169859D01*
X0433935Y0169623D01*
X0433970Y0169387D01*
X0434010Y0169153D01*
X0434055Y0168919D01*
X0434107Y0168687D01*
X0434164Y0168456D01*
X0434227Y0168226D01*
X0434295Y0167998D01*
X0434369Y0167772D01*
X0434448Y0167547D01*
X0434533Y0167325D01*
X0434623Y0167104D01*
X0434719Y0166886D01*
X0434820Y0166671D01*
X0434926Y0166458D01*
X0435037Y0166247D01*
X0435154Y0166040D01*
X0435275Y0165835D01*
X0435402Y0165633D01*
X0435533Y0165435D01*
X0435669Y0165239D01*
X0435810Y0165047D01*
X0435955Y0164859D01*
X0436105Y0164674D01*
X0436260Y0164493D01*
X0436419Y0164316D01*
X0436582Y0164142D01*
X0436749Y0163973D01*
X0436921Y0163808D01*
X0437096Y0163647D01*
X0437275Y0163490D01*
X0437458Y0163338D01*
X0437645Y0163190D01*
X0437835Y0163047D01*
X0438029Y0162909D01*
X0438226Y0162775D01*
X0438426Y0162647D01*
X0438629Y0162523D01*
X0438836Y0162404D01*
X0439045Y0162290D01*
X0439257Y0162181D01*
X0439471Y0162078D01*
X0439688Y0161980D01*
X0439907Y0161887D01*
X0440129Y0161800D01*
X0440352Y0161718D01*
X0440577Y0161641D01*
X0440805Y0161570D01*
X0441034Y0161505D01*
X0441264Y0161445D01*
X0441496Y0161391D01*
X0441729Y0161342D01*
X0445666Y0161145D02*
X0445900Y0161199D01*
X0446134Y0161257D01*
X0446365Y0161322D01*
X0446595Y0161392D01*
X0446823Y0161468D01*
X0447050Y0161549D01*
X0447274Y0161635D01*
X0447496Y0161728D01*
X0447716Y0161825D01*
X0447933Y0161928D01*
X0448148Y0162036D01*
X0448360Y0162149D01*
X0448570Y0162268D01*
X0448776Y0162391D01*
X0448979Y0162519D01*
X0449179Y0162653D01*
X0449376Y0162791D01*
X0449570Y0162934D01*
X0449760Y0163081D01*
X0449946Y0163233D01*
X0450128Y0163390D01*
X0450307Y0163551D01*
X0450481Y0163716D01*
X0450652Y0163886D01*
X0450818Y0164059D01*
X0450981Y0164237D01*
X0451138Y0164418D01*
X0451292Y0164604D01*
X0451440Y0164793D01*
X0451584Y0164985D01*
X0451724Y0165181D01*
X0451858Y0165380D01*
X0451988Y0165583D01*
X0452113Y0165788D01*
X0452233Y0165997D01*
X0452347Y0166208D01*
X0452457Y0166422D01*
X0452561Y0166639D01*
X0452660Y0166858D01*
X0452753Y0167080D01*
X0452841Y0167304D01*
X0452924Y0167529D01*
X0453001Y0167757D01*
X0453072Y0167987D01*
X0453138Y0168218D01*
X0453199Y0168451D01*
X0453253Y0168685D01*
X0453302Y0168920D01*
X0453345Y0169157D01*
X0453383Y0169394D01*
X0453414Y0169633D01*
X0453440Y0169872D01*
X0453460Y0170112D01*
X0453474Y0170352D01*
X0453483Y0170592D01*
X0453485Y0170832D01*
X0453482Y0171073D01*
X0453472Y0171313D01*
X0453457Y0171553D01*
X0453436Y0171793D01*
X0453410Y0172032D01*
X0453377Y0172270D01*
X0453339Y0172507D01*
X0453295Y0172744D01*
X0453245Y0172979D01*
X0453189Y0173213D01*
X0453128Y0173445D01*
X0453061Y0173676D01*
X0452989Y0173906D01*
X0452911Y0174133D01*
X0452827Y0174359D01*
X0452738Y0174582D01*
X0452644Y0174803D01*
X0452544Y0175022D01*
X0452439Y0175238D01*
X0452329Y0175452D01*
X0452214Y0175663D01*
X0452093Y0175871D01*
X0451968Y0176076D01*
X0451837Y0176278D01*
X0451702Y0176477D01*
X0451562Y0176672D01*
X0451417Y0176864D01*
X0451267Y0177052D01*
X0451113Y0177237D01*
X0450955Y0177418D01*
X0450792Y0177595D01*
X0450625Y0177768D01*
X0450454Y0177937D01*
X0450278Y0178101D01*
X0450099Y0178262D01*
X0449916Y0178417D01*
X0449729Y0178569D01*
X0449539Y0178716D01*
X0449345Y0178858D01*
X0449147Y0178995D01*
X0448947Y0179128D01*
X0448743Y0179255D01*
X0448536Y0179378D01*
X0448326Y0179495D01*
X0448114Y0179608D01*
X0447899Y0179715D01*
X0447681Y0179817D01*
X0447461Y0179914D01*
X0447238Y0180005D01*
X0447013Y0180091D01*
X0446787Y0180171D01*
X0446558Y0180246D01*
X0446328Y0180315D01*
X0446096Y0180378D01*
X0445863Y0180436D01*
X0465154Y0180437D02*
X0464922Y0180384D01*
X0464691Y0180325D01*
X0464462Y0180261D01*
X0464235Y0180190D01*
X0464009Y0180115D01*
X0463785Y0180034D01*
X0463563Y0179947D01*
X0463344Y0179855D01*
X0463127Y0179758D01*
X0462912Y0179655D01*
X0462700Y0179547D01*
X0462490Y0179434D01*
X0462283Y0179316D01*
X0462080Y0179193D01*
X0461879Y0179065D01*
X0461681Y0178932D01*
X0461487Y0178795D01*
X0461296Y0178652D01*
X0461109Y0178505D01*
X0460925Y0178354D01*
X0460746Y0178198D01*
X0460570Y0178038D01*
X0460398Y0177873D01*
X0460230Y0177704D01*
X0460066Y0177532D01*
X0459906Y0177355D01*
X0459751Y0177174D01*
X0459600Y0176990D01*
X0459454Y0176802D01*
X0459313Y0176611D01*
X0459176Y0176416D01*
X0459044Y0176218D01*
X0458917Y0176017D01*
X0458794Y0175812D01*
X0458677Y0175605D01*
X0458565Y0175395D01*
X0458458Y0175182D01*
X0458356Y0174967D01*
X0458260Y0174750D01*
X0458169Y0174530D01*
X0458083Y0174308D01*
X0458003Y0174083D01*
X0457928Y0173857D01*
X0457859Y0173630D01*
X0457795Y0173400D01*
X0457737Y0173169D01*
X0457685Y0172937D01*
X0457638Y0172704D01*
X0457597Y0172469D01*
X0457562Y0172234D01*
X0457533Y0171998D01*
X0457509Y0171761D01*
X0457491Y0171523D01*
X0457479Y0171286D01*
X0457473Y0171048D01*
X0457473Y0170810D01*
X0457478Y0170572D01*
X0457489Y0170334D01*
X0457506Y0170096D01*
X0457529Y0169859D01*
X0457557Y0169623D01*
X0457592Y0169387D01*
X0457632Y0169153D01*
X0457677Y0168919D01*
X0457729Y0168687D01*
X0457786Y0168456D01*
X0457849Y0168226D01*
X0457917Y0167998D01*
X0457991Y0167772D01*
X0458070Y0167547D01*
X0458155Y0167325D01*
X0458245Y0167104D01*
X0458341Y0166886D01*
X0458442Y0166671D01*
X0458548Y0166458D01*
X0458659Y0166247D01*
X0458776Y0166040D01*
X0458897Y0165835D01*
X0459024Y0165633D01*
X0459155Y0165435D01*
X0459291Y0165239D01*
X0459432Y0165047D01*
X0459577Y0164859D01*
X0459727Y0164674D01*
X0459882Y0164493D01*
X0460041Y0164316D01*
X0460204Y0164142D01*
X0460371Y0163973D01*
X0460543Y0163808D01*
X0460718Y0163647D01*
X0460897Y0163490D01*
X0461080Y0163338D01*
X0461267Y0163190D01*
X0461457Y0163047D01*
X0461651Y0162909D01*
X0461848Y0162775D01*
X0462048Y0162647D01*
X0462251Y0162523D01*
X0462458Y0162404D01*
X0462667Y0162290D01*
X0462879Y0162181D01*
X0463093Y0162078D01*
X0463310Y0161980D01*
X0463529Y0161887D01*
X0463751Y0161800D01*
X0463974Y0161718D01*
X0464199Y0161641D01*
X0464427Y0161570D01*
X0464656Y0161505D01*
X0464886Y0161445D01*
X0465118Y0161391D01*
X0465351Y0161342D01*
X0469288Y0161145D02*
X0469522Y0161199D01*
X0469756Y0161257D01*
X0469987Y0161322D01*
X0470217Y0161392D01*
X0470445Y0161468D01*
X0470672Y0161549D01*
X0470896Y0161635D01*
X0471118Y0161728D01*
X0471338Y0161825D01*
X0471555Y0161928D01*
X0471770Y0162036D01*
X0471982Y0162149D01*
X0472192Y0162268D01*
X0472398Y0162391D01*
X0472601Y0162519D01*
X0472801Y0162653D01*
X0472998Y0162791D01*
X0473192Y0162934D01*
X0473382Y0163081D01*
X0473568Y0163233D01*
X0473750Y0163390D01*
X0473929Y0163551D01*
X0474103Y0163716D01*
X0474274Y0163886D01*
X0474440Y0164059D01*
X0474603Y0164237D01*
X0474760Y0164418D01*
X0474914Y0164604D01*
X0475062Y0164793D01*
X0475206Y0164985D01*
X0475346Y0165181D01*
X0475480Y0165380D01*
X0475610Y0165583D01*
X0475735Y0165788D01*
X0475855Y0165997D01*
X0475969Y0166208D01*
X0476079Y0166422D01*
X0476183Y0166639D01*
X0476282Y0166858D01*
X0476375Y0167080D01*
X0476463Y0167304D01*
X0476546Y0167529D01*
X0476623Y0167757D01*
X0476694Y0167987D01*
X0476760Y0168218D01*
X0476821Y0168451D01*
X0476875Y0168685D01*
X0476924Y0168920D01*
X0476967Y0169157D01*
X0477005Y0169394D01*
X0477036Y0169633D01*
X0477062Y0169872D01*
X0477082Y0170112D01*
X0477096Y0170352D01*
X0477105Y0170592D01*
X0477107Y0170832D01*
X0477104Y0171073D01*
X0477094Y0171313D01*
X0477079Y0171553D01*
X0477058Y0171793D01*
X0477032Y0172032D01*
X0476999Y0172270D01*
X0476961Y0172507D01*
X0476917Y0172744D01*
X0476867Y0172979D01*
X0476811Y0173213D01*
X0476750Y0173445D01*
X0476683Y0173676D01*
X0476611Y0173906D01*
X0476533Y0174133D01*
X0476449Y0174359D01*
X0476360Y0174582D01*
X0476266Y0174803D01*
X0476166Y0175022D01*
X0476061Y0175238D01*
X0475951Y0175452D01*
X0475836Y0175663D01*
X0475715Y0175871D01*
X0475590Y0176076D01*
X0475459Y0176278D01*
X0475324Y0176477D01*
X0475184Y0176672D01*
X0475039Y0176864D01*
X0474889Y0177052D01*
X0474735Y0177237D01*
X0474577Y0177418D01*
X0474414Y0177595D01*
X0474247Y0177768D01*
X0474076Y0177937D01*
X0473900Y0178101D01*
X0473721Y0178262D01*
X0473538Y0178417D01*
X0473351Y0178569D01*
X0473161Y0178716D01*
X0472967Y0178858D01*
X0472769Y0178995D01*
X0472569Y0179128D01*
X0472365Y0179255D01*
X0472158Y0179378D01*
X0471948Y0179495D01*
X0471736Y0179608D01*
X0471521Y0179715D01*
X0471303Y0179817D01*
X0471083Y0179914D01*
X0470860Y0180005D01*
X0470635Y0180091D01*
X0470409Y0180171D01*
X0470180Y0180246D01*
X0469950Y0180315D01*
X0469718Y0180378D01*
X0469485Y0180436D01*
X0488776Y0180437D02*
X0488544Y0180384D01*
X0488313Y0180325D01*
X0488084Y0180261D01*
X0487857Y0180190D01*
X0487631Y0180115D01*
X0487407Y0180034D01*
X0487185Y0179947D01*
X0486966Y0179855D01*
X0486749Y0179758D01*
X0486534Y0179655D01*
X0486322Y0179547D01*
X0486112Y0179434D01*
X0485905Y0179316D01*
X0485702Y0179193D01*
X0485501Y0179065D01*
X0485303Y0178932D01*
X0485109Y0178795D01*
X0484918Y0178652D01*
X0484731Y0178505D01*
X0484547Y0178354D01*
X0484368Y0178198D01*
X0484192Y0178038D01*
X0484020Y0177873D01*
X0483852Y0177704D01*
X0483688Y0177532D01*
X0483528Y0177355D01*
X0483373Y0177174D01*
X0483222Y0176990D01*
X0483076Y0176802D01*
X0482935Y0176611D01*
X0482798Y0176416D01*
X0482666Y0176218D01*
X0482539Y0176017D01*
X0482416Y0175812D01*
X0482299Y0175605D01*
X0482187Y0175395D01*
X0482080Y0175182D01*
X0481978Y0174967D01*
X0481882Y0174750D01*
X0481791Y0174530D01*
X0481705Y0174308D01*
X0481625Y0174083D01*
X0481550Y0173857D01*
X0481481Y0173630D01*
X0481417Y0173400D01*
X0481359Y0173169D01*
X0481307Y0172937D01*
X0481260Y0172704D01*
X0481219Y0172469D01*
X0481184Y0172234D01*
X0481155Y0171998D01*
X0481131Y0171761D01*
X0481113Y0171523D01*
X0481101Y0171286D01*
X0481095Y0171048D01*
X0481095Y0170810D01*
X0481100Y0170572D01*
X0481111Y0170334D01*
X0481128Y0170096D01*
X0481151Y0169859D01*
X0481179Y0169623D01*
X0481214Y0169387D01*
X0481254Y0169153D01*
X0481299Y0168919D01*
X0481351Y0168687D01*
X0481408Y0168456D01*
X0481471Y0168226D01*
X0481539Y0167998D01*
X0481613Y0167772D01*
X0481692Y0167547D01*
X0481777Y0167325D01*
X0481867Y0167104D01*
X0481963Y0166886D01*
X0482064Y0166671D01*
X0482170Y0166458D01*
X0482281Y0166247D01*
X0482398Y0166040D01*
X0482519Y0165835D01*
X0482646Y0165633D01*
X0482777Y0165435D01*
X0482913Y0165239D01*
X0483054Y0165047D01*
X0483199Y0164859D01*
X0483349Y0164674D01*
X0483504Y0164493D01*
X0483663Y0164316D01*
X0483826Y0164142D01*
X0483993Y0163973D01*
X0484165Y0163808D01*
X0484340Y0163647D01*
X0484519Y0163490D01*
X0484702Y0163338D01*
X0484889Y0163190D01*
X0485079Y0163047D01*
X0485273Y0162909D01*
X0485470Y0162775D01*
X0485670Y0162647D01*
X0485873Y0162523D01*
X0486080Y0162404D01*
X0486289Y0162290D01*
X0486501Y0162181D01*
X0486715Y0162078D01*
X0486932Y0161980D01*
X0487151Y0161887D01*
X0487373Y0161800D01*
X0487596Y0161718D01*
X0487821Y0161641D01*
X0488049Y0161570D01*
X0488278Y0161505D01*
X0488508Y0161445D01*
X0488740Y0161391D01*
X0488973Y0161342D01*
X0492910Y0161145D02*
X0493144Y0161199D01*
X0493378Y0161257D01*
X0493609Y0161322D01*
X0493839Y0161392D01*
X0494067Y0161468D01*
X0494294Y0161549D01*
X0494518Y0161635D01*
X0494740Y0161728D01*
X0494960Y0161825D01*
X0495177Y0161928D01*
X0495392Y0162036D01*
X0495604Y0162149D01*
X0495814Y0162268D01*
X0496020Y0162391D01*
X0496223Y0162519D01*
X0496423Y0162653D01*
X0496620Y0162791D01*
X0496814Y0162934D01*
X0497004Y0163081D01*
X0497190Y0163233D01*
X0497372Y0163390D01*
X0497551Y0163551D01*
X0497725Y0163716D01*
X0497896Y0163886D01*
X0498062Y0164059D01*
X0498225Y0164237D01*
X0498382Y0164418D01*
X0498536Y0164604D01*
X0498684Y0164793D01*
X0498828Y0164985D01*
X0498968Y0165181D01*
X0499102Y0165380D01*
X0499232Y0165583D01*
X0499357Y0165788D01*
X0499477Y0165997D01*
X0499591Y0166208D01*
X0499701Y0166422D01*
X0499805Y0166639D01*
X0499904Y0166858D01*
X0499997Y0167080D01*
X0500085Y0167304D01*
X0500168Y0167529D01*
X0500245Y0167757D01*
X0500316Y0167987D01*
X0500382Y0168218D01*
X0500443Y0168451D01*
X0500497Y0168685D01*
X0500546Y0168920D01*
X0500589Y0169157D01*
X0500627Y0169394D01*
X0500658Y0169633D01*
X0500684Y0169872D01*
X0500704Y0170112D01*
X0500718Y0170352D01*
X0500727Y0170592D01*
X0500729Y0170832D01*
X0500726Y0171073D01*
X0500716Y0171313D01*
X0500701Y0171553D01*
X0500680Y0171793D01*
X0500654Y0172032D01*
X0500621Y0172270D01*
X0500583Y0172507D01*
X0500539Y0172744D01*
X0500489Y0172979D01*
X0500433Y0173213D01*
X0500372Y0173445D01*
X0500305Y0173676D01*
X0500233Y0173906D01*
X0500155Y0174133D01*
X0500071Y0174359D01*
X0499982Y0174582D01*
X0499888Y0174803D01*
X0499788Y0175022D01*
X0499683Y0175238D01*
X0499573Y0175452D01*
X0499458Y0175663D01*
X0499337Y0175871D01*
X0499212Y0176076D01*
X0499081Y0176278D01*
X0498946Y0176477D01*
X0498806Y0176672D01*
X0498661Y0176864D01*
X0498511Y0177052D01*
X0498357Y0177237D01*
X0498199Y0177418D01*
X0498036Y0177595D01*
X0497869Y0177768D01*
X0497698Y0177937D01*
X0497522Y0178101D01*
X0497343Y0178262D01*
X0497160Y0178417D01*
X0496973Y0178569D01*
X0496783Y0178716D01*
X0496589Y0178858D01*
X0496391Y0178995D01*
X0496191Y0179128D01*
X0495987Y0179255D01*
X0495780Y0179378D01*
X0495570Y0179495D01*
X0495358Y0179608D01*
X0495143Y0179715D01*
X0494925Y0179817D01*
X0494705Y0179914D01*
X0494482Y0180005D01*
X0494257Y0180091D01*
X0494031Y0180171D01*
X0493802Y0180246D01*
X0493572Y0180315D01*
X0493340Y0180378D01*
X0493107Y0180436D01*
X0512398Y0180437D02*
X0512166Y0180384D01*
X0511935Y0180325D01*
X0511706Y0180261D01*
X0511479Y0180190D01*
X0511253Y0180115D01*
X0511029Y0180034D01*
X0510807Y0179947D01*
X0510588Y0179855D01*
X0510371Y0179758D01*
X0510156Y0179655D01*
X0509944Y0179547D01*
X0509734Y0179434D01*
X0509527Y0179316D01*
X0509324Y0179193D01*
X0509123Y0179065D01*
X0508925Y0178932D01*
X0508731Y0178795D01*
X0508540Y0178652D01*
X0508353Y0178505D01*
X0508169Y0178354D01*
X0507990Y0178198D01*
X0507814Y0178038D01*
X0507642Y0177873D01*
X0507474Y0177704D01*
X0507310Y0177532D01*
X0507150Y0177355D01*
X0506995Y0177174D01*
X0506844Y0176990D01*
X0506698Y0176802D01*
X0506557Y0176611D01*
X0506420Y0176416D01*
X0506288Y0176218D01*
X0506161Y0176017D01*
X0506038Y0175812D01*
X0505921Y0175605D01*
X0505809Y0175395D01*
X0505702Y0175182D01*
X0505600Y0174967D01*
X0505504Y0174750D01*
X0505413Y0174530D01*
X0505327Y0174308D01*
X0505247Y0174083D01*
X0505172Y0173857D01*
X0505103Y0173630D01*
X0505039Y0173400D01*
X0504981Y0173169D01*
X0504929Y0172937D01*
X0504882Y0172704D01*
X0504841Y0172469D01*
X0504806Y0172234D01*
X0504777Y0171998D01*
X0504753Y0171761D01*
X0504735Y0171523D01*
X0504723Y0171286D01*
X0504717Y0171048D01*
X0504717Y0170810D01*
X0504722Y0170572D01*
X0504733Y0170334D01*
X0504750Y0170096D01*
X0504773Y0169859D01*
X0504801Y0169623D01*
X0504836Y0169387D01*
X0504876Y0169153D01*
X0504921Y0168919D01*
X0504973Y0168687D01*
X0505030Y0168456D01*
X0505093Y0168226D01*
X0505161Y0167998D01*
X0505235Y0167772D01*
X0505314Y0167547D01*
X0505399Y0167325D01*
X0505489Y0167104D01*
X0505585Y0166886D01*
X0505686Y0166671D01*
X0505792Y0166458D01*
X0505903Y0166247D01*
X0506020Y0166040D01*
X0506141Y0165835D01*
X0506268Y0165633D01*
X0506399Y0165435D01*
X0506535Y0165239D01*
X0506676Y0165047D01*
X0506821Y0164859D01*
X0506971Y0164674D01*
X0507126Y0164493D01*
X0507285Y0164316D01*
X0507448Y0164142D01*
X0507615Y0163973D01*
X0507787Y0163808D01*
X0507962Y0163647D01*
X0508141Y0163490D01*
X0508324Y0163338D01*
X0508511Y0163190D01*
X0508701Y0163047D01*
X0508895Y0162909D01*
X0509092Y0162775D01*
X0509292Y0162647D01*
X0509495Y0162523D01*
X0509702Y0162404D01*
X0509911Y0162290D01*
X0510123Y0162181D01*
X0510337Y0162078D01*
X0510554Y0161980D01*
X0510773Y0161887D01*
X0510995Y0161800D01*
X0511218Y0161718D01*
X0511443Y0161641D01*
X0511671Y0161570D01*
X0511900Y0161505D01*
X0512130Y0161445D01*
X0512362Y0161391D01*
X0512595Y0161342D01*
X0523323Y0156224D02*
X0523323Y0149138D01*
X0529426Y0149138D02*
X0529426Y0145988D01*
X0540154Y0161145D02*
X0540388Y0161199D01*
X0540622Y0161257D01*
X0540853Y0161322D01*
X0541083Y0161392D01*
X0541311Y0161468D01*
X0541538Y0161549D01*
X0541762Y0161635D01*
X0541984Y0161728D01*
X0542204Y0161825D01*
X0542421Y0161928D01*
X0542636Y0162036D01*
X0542848Y0162149D01*
X0543058Y0162268D01*
X0543264Y0162391D01*
X0543467Y0162519D01*
X0543667Y0162653D01*
X0543864Y0162791D01*
X0544058Y0162934D01*
X0544248Y0163081D01*
X0544434Y0163233D01*
X0544616Y0163390D01*
X0544795Y0163551D01*
X0544969Y0163716D01*
X0545140Y0163886D01*
X0545306Y0164059D01*
X0545469Y0164237D01*
X0545626Y0164418D01*
X0545780Y0164604D01*
X0545928Y0164793D01*
X0546072Y0164985D01*
X0546212Y0165181D01*
X0546346Y0165380D01*
X0546476Y0165583D01*
X0546601Y0165788D01*
X0546721Y0165997D01*
X0546835Y0166208D01*
X0546945Y0166422D01*
X0547049Y0166639D01*
X0547148Y0166858D01*
X0547241Y0167080D01*
X0547329Y0167304D01*
X0547412Y0167529D01*
X0547489Y0167757D01*
X0547560Y0167987D01*
X0547626Y0168218D01*
X0547687Y0168451D01*
X0547741Y0168685D01*
X0547790Y0168920D01*
X0547833Y0169157D01*
X0547871Y0169394D01*
X0547902Y0169633D01*
X0547928Y0169872D01*
X0547948Y0170112D01*
X0547962Y0170352D01*
X0547971Y0170592D01*
X0547973Y0170832D01*
X0547970Y0171073D01*
X0547960Y0171313D01*
X0547945Y0171553D01*
X0547924Y0171793D01*
X0547898Y0172032D01*
X0547865Y0172270D01*
X0547827Y0172507D01*
X0547783Y0172744D01*
X0547733Y0172979D01*
X0547677Y0173213D01*
X0547616Y0173445D01*
X0547549Y0173676D01*
X0547477Y0173906D01*
X0547399Y0174133D01*
X0547315Y0174359D01*
X0547226Y0174582D01*
X0547132Y0174803D01*
X0547032Y0175022D01*
X0546927Y0175238D01*
X0546817Y0175452D01*
X0546702Y0175663D01*
X0546581Y0175871D01*
X0546456Y0176076D01*
X0546325Y0176278D01*
X0546190Y0176477D01*
X0546050Y0176672D01*
X0545905Y0176864D01*
X0545755Y0177052D01*
X0545601Y0177237D01*
X0545443Y0177418D01*
X0545280Y0177595D01*
X0545113Y0177768D01*
X0544942Y0177937D01*
X0544766Y0178101D01*
X0544587Y0178262D01*
X0544404Y0178417D01*
X0544217Y0178569D01*
X0544027Y0178716D01*
X0543833Y0178858D01*
X0543635Y0178995D01*
X0543435Y0179128D01*
X0543231Y0179255D01*
X0543024Y0179378D01*
X0542814Y0179495D01*
X0542602Y0179608D01*
X0542387Y0179715D01*
X0542169Y0179817D01*
X0541949Y0179914D01*
X0541726Y0180005D01*
X0541501Y0180091D01*
X0541275Y0180171D01*
X0541046Y0180246D01*
X0540816Y0180315D01*
X0540584Y0180378D01*
X0540351Y0180436D01*
X0536020Y0180437D02*
X0535788Y0180384D01*
X0535557Y0180325D01*
X0535328Y0180261D01*
X0535101Y0180190D01*
X0534875Y0180115D01*
X0534651Y0180034D01*
X0534429Y0179947D01*
X0534210Y0179855D01*
X0533993Y0179758D01*
X0533778Y0179655D01*
X0533566Y0179547D01*
X0533356Y0179434D01*
X0533149Y0179316D01*
X0532946Y0179193D01*
X0532745Y0179065D01*
X0532547Y0178932D01*
X0532353Y0178795D01*
X0532162Y0178652D01*
X0531975Y0178505D01*
X0531791Y0178354D01*
X0531612Y0178198D01*
X0531436Y0178038D01*
X0531264Y0177873D01*
X0531096Y0177704D01*
X0530932Y0177532D01*
X0530772Y0177355D01*
X0530617Y0177174D01*
X0530466Y0176990D01*
X0530320Y0176802D01*
X0530179Y0176611D01*
X0530042Y0176416D01*
X0529910Y0176218D01*
X0529783Y0176017D01*
X0529660Y0175812D01*
X0529543Y0175605D01*
X0529431Y0175395D01*
X0529324Y0175182D01*
X0529222Y0174967D01*
X0529126Y0174750D01*
X0529035Y0174530D01*
X0528949Y0174308D01*
X0528869Y0174083D01*
X0528794Y0173857D01*
X0528725Y0173630D01*
X0528661Y0173400D01*
X0528603Y0173169D01*
X0528551Y0172937D01*
X0528504Y0172704D01*
X0528463Y0172469D01*
X0528428Y0172234D01*
X0528399Y0171998D01*
X0528375Y0171761D01*
X0528357Y0171523D01*
X0528345Y0171286D01*
X0528339Y0171048D01*
X0528339Y0170810D01*
X0528344Y0170572D01*
X0528355Y0170334D01*
X0528372Y0170096D01*
X0528395Y0169859D01*
X0528423Y0169623D01*
X0528458Y0169387D01*
X0528498Y0169153D01*
X0528543Y0168919D01*
X0528595Y0168687D01*
X0528652Y0168456D01*
X0528715Y0168226D01*
X0528783Y0167998D01*
X0528857Y0167772D01*
X0528936Y0167547D01*
X0529021Y0167325D01*
X0529111Y0167104D01*
X0529207Y0166886D01*
X0529308Y0166671D01*
X0529414Y0166458D01*
X0529525Y0166247D01*
X0529642Y0166040D01*
X0529763Y0165835D01*
X0529890Y0165633D01*
X0530021Y0165435D01*
X0530157Y0165239D01*
X0530298Y0165047D01*
X0530443Y0164859D01*
X0530593Y0164674D01*
X0530748Y0164493D01*
X0530907Y0164316D01*
X0531070Y0164142D01*
X0531237Y0163973D01*
X0531409Y0163808D01*
X0531584Y0163647D01*
X0531763Y0163490D01*
X0531946Y0163338D01*
X0532133Y0163190D01*
X0532323Y0163047D01*
X0532517Y0162909D01*
X0532714Y0162775D01*
X0532914Y0162647D01*
X0533117Y0162523D01*
X0533324Y0162404D01*
X0533533Y0162290D01*
X0533745Y0162181D01*
X0533959Y0162078D01*
X0534176Y0161980D01*
X0534395Y0161887D01*
X0534617Y0161800D01*
X0534840Y0161718D01*
X0535065Y0161641D01*
X0535293Y0161570D01*
X0535522Y0161505D01*
X0535752Y0161445D01*
X0535984Y0161391D01*
X0536217Y0161342D01*
X0375889Y0156417D02*
X0350089Y0156417D01*
X0350089Y0169417D01*
X0375889Y0169417D01*
X0375889Y0156417D01*
X0334839Y0163311D02*
X0331690Y0163311D01*
X0331690Y0165673D01*
X0323422Y0165673D02*
X0323422Y0163311D01*
X0320272Y0163311D01*
X0323422Y0171972D02*
X0323422Y0174335D01*
X0320272Y0174335D01*
X0331690Y0174335D02*
X0331690Y0171972D01*
X0331690Y0174335D02*
X0334839Y0174335D01*
X0289896Y0173552D02*
X0289896Y0169349D01*
X0287094Y0169349D02*
X0287094Y0173552D01*
X0288495Y0172151D01*
X0289896Y0173552D01*
X0285292Y0172852D02*
X0285292Y0170049D01*
X0284591Y0169349D01*
X0283190Y0169349D01*
X0282490Y0170049D01*
X0282490Y0172852D01*
X0283190Y0173552D01*
X0284591Y0173552D01*
X0285292Y0172852D01*
X0280688Y0173552D02*
X0278586Y0173552D01*
X0277886Y0172852D01*
X0277886Y0170049D01*
X0278586Y0169349D01*
X0280688Y0169349D01*
X0280688Y0173552D01*
X0276084Y0173552D02*
X0276084Y0169349D01*
X0273282Y0169349D01*
X0274683Y0171451D02*
X0276084Y0171451D01*
X0276084Y0173552D02*
X0273282Y0173552D01*
X0264861Y0173681D02*
X0258361Y0173681D01*
X0258301Y0173683D01*
X0258240Y0173688D01*
X0258181Y0173697D01*
X0258122Y0173710D01*
X0258063Y0173726D01*
X0258006Y0173746D01*
X0257951Y0173769D01*
X0257896Y0173796D01*
X0257844Y0173825D01*
X0257793Y0173858D01*
X0257744Y0173894D01*
X0257698Y0173932D01*
X0257654Y0173974D01*
X0257612Y0174018D01*
X0257574Y0174064D01*
X0257538Y0174113D01*
X0257505Y0174164D01*
X0257476Y0174216D01*
X0257449Y0174271D01*
X0257426Y0174326D01*
X0257406Y0174383D01*
X0257390Y0174442D01*
X0257377Y0174501D01*
X0257368Y0174560D01*
X0257363Y0174621D01*
X0257361Y0174681D01*
X0264861Y0173681D02*
X0264921Y0173683D01*
X0264982Y0173688D01*
X0265041Y0173697D01*
X0265100Y0173710D01*
X0265159Y0173726D01*
X0265216Y0173746D01*
X0265271Y0173769D01*
X0265326Y0173796D01*
X0265378Y0173825D01*
X0265429Y0173858D01*
X0265478Y0173894D01*
X0265524Y0173932D01*
X0265568Y0173974D01*
X0265610Y0174018D01*
X0265648Y0174064D01*
X0265684Y0174113D01*
X0265717Y0174164D01*
X0265746Y0174216D01*
X0265773Y0174271D01*
X0265796Y0174326D01*
X0265816Y0174383D01*
X0265832Y0174442D01*
X0265845Y0174501D01*
X0265854Y0174560D01*
X0265859Y0174621D01*
X0265861Y0174681D01*
X0265861Y0180681D02*
X0265859Y0180741D01*
X0265854Y0180802D01*
X0265845Y0180861D01*
X0265832Y0180920D01*
X0265816Y0180979D01*
X0265796Y0181036D01*
X0265773Y0181091D01*
X0265746Y0181146D01*
X0265717Y0181198D01*
X0265684Y0181249D01*
X0265648Y0181298D01*
X0265610Y0181344D01*
X0265568Y0181388D01*
X0265524Y0181430D01*
X0265478Y0181468D01*
X0265429Y0181504D01*
X0265378Y0181537D01*
X0265326Y0181566D01*
X0265271Y0181593D01*
X0265216Y0181616D01*
X0265159Y0181636D01*
X0265100Y0181652D01*
X0265041Y0181665D01*
X0264982Y0181674D01*
X0264921Y0181679D01*
X0264861Y0181681D01*
X0258361Y0181681D01*
X0258301Y0181679D01*
X0258240Y0181674D01*
X0258181Y0181665D01*
X0258122Y0181652D01*
X0258063Y0181636D01*
X0258006Y0181616D01*
X0257951Y0181593D01*
X0257896Y0181566D01*
X0257844Y0181537D01*
X0257793Y0181504D01*
X0257744Y0181468D01*
X0257698Y0181430D01*
X0257654Y0181388D01*
X0257612Y0181344D01*
X0257574Y0181298D01*
X0257538Y0181249D01*
X0257505Y0181198D01*
X0257476Y0181146D01*
X0257449Y0181091D01*
X0257426Y0181036D01*
X0257406Y0180979D01*
X0257390Y0180920D01*
X0257377Y0180861D01*
X0257368Y0180802D01*
X0257363Y0180741D01*
X0257361Y0180681D01*
X0220014Y0173552D02*
X0220014Y0169349D01*
X0220014Y0170750D02*
X0217912Y0170750D01*
X0217212Y0171451D01*
X0217212Y0172852D01*
X0217912Y0173552D01*
X0220014Y0173552D01*
X0215410Y0173552D02*
X0215410Y0169349D01*
X0212608Y0169349D01*
X0210806Y0170049D02*
X0210106Y0169349D01*
X0208704Y0169349D01*
X0208004Y0170049D01*
X0208004Y0170750D01*
X0208704Y0171451D01*
X0210106Y0171451D01*
X0210806Y0172151D01*
X0210806Y0172852D01*
X0210106Y0173552D01*
X0208704Y0173552D01*
X0208004Y0172852D01*
X0206202Y0173552D02*
X0206202Y0169349D01*
X0203400Y0169349D01*
X0204801Y0171451D02*
X0206202Y0171451D01*
X0206202Y0173552D02*
X0203400Y0173552D01*
X0201598Y0173552D02*
X0198796Y0173552D01*
X0200197Y0173552D02*
X0200197Y0169349D01*
X0212608Y0173552D02*
X0215410Y0173552D01*
X0215410Y0171451D02*
X0214009Y0171451D01*
X0217212Y0169349D02*
X0218613Y0170750D01*
X0209052Y0155437D02*
X0209052Y0152287D01*
X0206690Y0152287D01*
X0200390Y0152287D02*
X0198028Y0152287D01*
X0198028Y0155437D01*
X0196257Y0155437D02*
X0196257Y0152287D01*
X0193894Y0152287D01*
X0187595Y0152287D02*
X0185233Y0152287D01*
X0185233Y0155437D01*
X0198028Y0144020D02*
X0198028Y0140870D01*
X0198028Y0144020D02*
X0200390Y0144020D01*
X0206690Y0144020D02*
X0209052Y0144020D01*
X0209052Y0140870D01*
X0258361Y0150059D02*
X0264861Y0150059D01*
X0264921Y0150061D01*
X0264982Y0150066D01*
X0265041Y0150075D01*
X0265100Y0150088D01*
X0265159Y0150104D01*
X0265216Y0150124D01*
X0265271Y0150147D01*
X0265326Y0150174D01*
X0265378Y0150203D01*
X0265429Y0150236D01*
X0265478Y0150272D01*
X0265524Y0150310D01*
X0265568Y0150352D01*
X0265610Y0150396D01*
X0265648Y0150442D01*
X0265684Y0150491D01*
X0265717Y0150542D01*
X0265746Y0150594D01*
X0265773Y0150649D01*
X0265796Y0150704D01*
X0265816Y0150761D01*
X0265832Y0150820D01*
X0265845Y0150879D01*
X0265854Y0150938D01*
X0265859Y0150999D01*
X0265861Y0151059D01*
X0258361Y0150059D02*
X0258301Y0150061D01*
X0258240Y0150066D01*
X0258181Y0150075D01*
X0258122Y0150088D01*
X0258063Y0150104D01*
X0258006Y0150124D01*
X0257951Y0150147D01*
X0257896Y0150174D01*
X0257844Y0150203D01*
X0257793Y0150236D01*
X0257744Y0150272D01*
X0257698Y0150310D01*
X0257654Y0150352D01*
X0257612Y0150396D01*
X0257574Y0150442D01*
X0257538Y0150491D01*
X0257505Y0150542D01*
X0257476Y0150594D01*
X0257449Y0150649D01*
X0257426Y0150704D01*
X0257406Y0150761D01*
X0257390Y0150820D01*
X0257377Y0150879D01*
X0257368Y0150938D01*
X0257363Y0150999D01*
X0257361Y0151059D01*
X0257361Y0157059D02*
X0257363Y0157119D01*
X0257368Y0157180D01*
X0257377Y0157239D01*
X0257390Y0157298D01*
X0257406Y0157357D01*
X0257426Y0157414D01*
X0257449Y0157469D01*
X0257476Y0157524D01*
X0257505Y0157576D01*
X0257538Y0157627D01*
X0257574Y0157676D01*
X0257612Y0157722D01*
X0257654Y0157766D01*
X0257698Y0157808D01*
X0257744Y0157846D01*
X0257793Y0157882D01*
X0257844Y0157915D01*
X0257896Y0157944D01*
X0257951Y0157971D01*
X0258006Y0157994D01*
X0258063Y0158014D01*
X0258122Y0158030D01*
X0258181Y0158043D01*
X0258240Y0158052D01*
X0258301Y0158057D01*
X0258361Y0158059D01*
X0264861Y0158059D01*
X0264921Y0158057D01*
X0264982Y0158052D01*
X0265041Y0158043D01*
X0265100Y0158030D01*
X0265159Y0158014D01*
X0265216Y0157994D01*
X0265271Y0157971D01*
X0265326Y0157944D01*
X0265378Y0157915D01*
X0265429Y0157882D01*
X0265478Y0157846D01*
X0265524Y0157808D01*
X0265568Y0157766D01*
X0265610Y0157722D01*
X0265648Y0157676D01*
X0265684Y0157627D01*
X0265717Y0157576D01*
X0265746Y0157524D01*
X0265773Y0157469D01*
X0265796Y0157414D01*
X0265816Y0157357D01*
X0265832Y0157298D01*
X0265845Y0157239D01*
X0265854Y0157180D01*
X0265859Y0157119D01*
X0265861Y0157059D01*
X0284052Y0135358D02*
X0290351Y0135358D01*
X0290351Y0135359D02*
X0290410Y0135345D01*
X0290468Y0135328D01*
X0290525Y0135307D01*
X0290581Y0135283D01*
X0290635Y0135255D01*
X0290687Y0135225D01*
X0290738Y0135191D01*
X0290786Y0135154D01*
X0290832Y0135115D01*
X0290875Y0135072D01*
X0290916Y0135028D01*
X0290954Y0134980D01*
X0290989Y0134931D01*
X0291021Y0134879D01*
X0291050Y0134826D01*
X0291076Y0134771D01*
X0291098Y0134715D01*
X0291117Y0134657D01*
X0291133Y0134598D01*
X0291144Y0134539D01*
X0291153Y0134479D01*
X0291157Y0134418D01*
X0291158Y0134358D01*
X0291155Y0134297D01*
X0291149Y0134237D01*
X0291139Y0134177D01*
X0284052Y0135359D02*
X0283993Y0135345D01*
X0283935Y0135328D01*
X0283878Y0135307D01*
X0283822Y0135283D01*
X0283768Y0135255D01*
X0283716Y0135225D01*
X0283665Y0135191D01*
X0283617Y0135154D01*
X0283571Y0135115D01*
X0283528Y0135072D01*
X0283487Y0135028D01*
X0283449Y0134980D01*
X0283414Y0134931D01*
X0283382Y0134879D01*
X0283353Y0134826D01*
X0283327Y0134771D01*
X0283305Y0134715D01*
X0283286Y0134657D01*
X0283270Y0134598D01*
X0283259Y0134539D01*
X0283250Y0134479D01*
X0283246Y0134418D01*
X0283245Y0134358D01*
X0283248Y0134297D01*
X0283254Y0134237D01*
X0283264Y0134177D01*
X0283264Y0128666D02*
X0283254Y0128606D01*
X0283248Y0128546D01*
X0283245Y0128485D01*
X0283246Y0128425D01*
X0283250Y0128364D01*
X0283259Y0128304D01*
X0283270Y0128245D01*
X0283286Y0128186D01*
X0283305Y0128128D01*
X0283327Y0128072D01*
X0283353Y0128017D01*
X0283382Y0127964D01*
X0283414Y0127912D01*
X0283449Y0127863D01*
X0283487Y0127815D01*
X0283528Y0127771D01*
X0283571Y0127728D01*
X0283617Y0127689D01*
X0283665Y0127652D01*
X0283716Y0127618D01*
X0283768Y0127588D01*
X0283822Y0127560D01*
X0283878Y0127536D01*
X0283935Y0127515D01*
X0283993Y0127498D01*
X0284052Y0127484D01*
X0290351Y0127484D01*
X0290410Y0127498D01*
X0290468Y0127515D01*
X0290525Y0127536D01*
X0290581Y0127560D01*
X0290635Y0127588D01*
X0290687Y0127618D01*
X0290738Y0127652D01*
X0290786Y0127689D01*
X0290832Y0127728D01*
X0290875Y0127771D01*
X0290916Y0127815D01*
X0290954Y0127863D01*
X0290989Y0127912D01*
X0291021Y0127964D01*
X0291050Y0128017D01*
X0291076Y0128072D01*
X0291098Y0128128D01*
X0291117Y0128186D01*
X0291133Y0128245D01*
X0291144Y0128304D01*
X0291153Y0128364D01*
X0291157Y0128425D01*
X0291158Y0128485D01*
X0291155Y0128546D01*
X0291149Y0128606D01*
X0291139Y0128666D01*
X0209052Y0102287D02*
X0209052Y0099138D01*
X0206690Y0099138D01*
X0200390Y0099138D02*
X0198028Y0099138D01*
X0198028Y0102287D01*
X0196257Y0102287D02*
X0196257Y0099138D01*
X0193894Y0099138D01*
X0187595Y0099138D02*
X0185233Y0099138D01*
X0185233Y0102287D01*
X0198028Y0090870D02*
X0198028Y0087720D01*
X0198028Y0090870D02*
X0200390Y0090870D01*
X0206690Y0090870D02*
X0209052Y0090870D01*
X0209052Y0087720D01*
X0172635Y0066854D02*
X0172635Y0063705D01*
X0170272Y0063705D01*
X0163973Y0063705D02*
X0161611Y0063705D01*
X0161611Y0066854D01*
X0159839Y0066854D02*
X0159839Y0063705D01*
X0157477Y0063705D01*
X0151178Y0063705D02*
X0148816Y0063705D01*
X0148816Y0066854D01*
X0161611Y0055437D02*
X0161611Y0052287D01*
X0161611Y0055437D02*
X0163973Y0055437D01*
X0170272Y0055437D02*
X0172635Y0055437D01*
X0172635Y0052287D01*
X0086020Y0051894D02*
X0086020Y0055043D01*
X0086020Y0051894D02*
X0083658Y0051894D01*
X0077359Y0051894D02*
X0074997Y0051894D01*
X0074997Y0055043D01*
X0073225Y0055043D02*
X0073225Y0051894D01*
X0070863Y0051894D01*
X0064564Y0051894D02*
X0062201Y0051894D01*
X0062201Y0055043D01*
X0074997Y0043626D02*
X0074997Y0040476D01*
X0074997Y0043626D02*
X0077359Y0043626D01*
X0083658Y0043626D02*
X0086020Y0043626D01*
X0086020Y0040476D01*
X0086164Y0024804D02*
X0086164Y0022002D01*
X0087566Y0020601D01*
X0088967Y0022002D01*
X0088967Y0024804D01*
X0084363Y0022703D02*
X0083662Y0023403D01*
X0082261Y0023403D01*
X0081560Y0022703D01*
X0081560Y0022002D01*
X0084363Y0022002D01*
X0084363Y0021301D02*
X0084363Y0022703D01*
X0084363Y0021301D02*
X0083662Y0020601D01*
X0082261Y0020601D01*
X0079759Y0020601D02*
X0079759Y0023403D01*
X0079759Y0022002D02*
X0078358Y0023403D01*
X0077657Y0023403D01*
X0071318Y0023403D02*
X0069917Y0024804D01*
X0069917Y0020601D01*
X0071318Y0020601D02*
X0068516Y0020601D01*
X0066714Y0020601D02*
X0066014Y0020601D01*
X0066014Y0021301D01*
X0066714Y0021301D01*
X0066714Y0020601D01*
X0064413Y0021301D02*
X0063712Y0020601D01*
X0062311Y0020601D01*
X0061610Y0021301D01*
X0061610Y0022002D01*
X0062311Y0022703D01*
X0063011Y0022703D01*
X0062311Y0022703D02*
X0061610Y0023403D01*
X0061610Y0024104D01*
X0062311Y0024804D01*
X0063712Y0024804D01*
X0064413Y0024104D01*
X0059809Y0024104D02*
X0059108Y0024804D01*
X0057707Y0024804D01*
X0057006Y0024104D01*
X0059809Y0021301D01*
X0059108Y0020601D01*
X0057707Y0020601D01*
X0057006Y0021301D01*
X0057006Y0024104D01*
X0059809Y0024104D02*
X0059809Y0021301D01*
X0142910Y0087720D02*
X0142910Y0090870D01*
X0145272Y0090870D01*
X0151572Y0090870D02*
X0153934Y0090870D01*
X0153934Y0087720D01*
X0153934Y0099138D02*
X0153934Y0102287D01*
X0153934Y0099138D02*
X0151572Y0099138D01*
X0145272Y0099138D02*
X0142910Y0099138D01*
X0142910Y0102287D01*
X0141138Y0102287D02*
X0141138Y0099138D01*
X0138776Y0099138D01*
X0132477Y0099138D02*
X0130115Y0099138D01*
X0130115Y0102287D01*
X0119485Y0113311D02*
X0119485Y0116461D01*
X0117123Y0116461D01*
X0110823Y0116461D02*
X0108461Y0116461D01*
X0108461Y0113311D01*
X0108461Y0124728D02*
X0108461Y0127878D01*
X0106690Y0127878D02*
X0106690Y0124728D01*
X0104327Y0124728D01*
X0108461Y0124728D02*
X0110823Y0124728D01*
X0117123Y0124728D02*
X0119485Y0124728D01*
X0119485Y0127878D01*
X0098028Y0124728D02*
X0095666Y0124728D01*
X0095666Y0127878D01*
X0086020Y0103272D02*
X0086020Y0100122D01*
X0083658Y0100122D01*
X0077359Y0100122D02*
X0074997Y0100122D01*
X0074997Y0103272D01*
X0073225Y0103272D02*
X0073225Y0100122D01*
X0070863Y0100122D01*
X0064564Y0100122D02*
X0062201Y0100122D01*
X0062201Y0103272D01*
X0074997Y0091854D02*
X0074997Y0088705D01*
X0074997Y0091854D02*
X0077359Y0091854D01*
X0083658Y0091854D02*
X0086020Y0091854D01*
X0086020Y0088705D01*
D13*
X0040154Y0031028D03*
X0040154Y0168823D03*
X0563776Y0168823D03*
X0563776Y0031028D03*
D14*
X0468083Y0053510D02*
X0465814Y0053510D01*
X0466948Y0053510D02*
X0466948Y0050107D01*
X0464399Y0050107D02*
X0462131Y0053510D01*
X0464399Y0053510D02*
X0462131Y0050107D01*
X0442392Y0066698D02*
X0441258Y0066698D01*
X0441825Y0066698D02*
X0441825Y0070101D01*
X0442392Y0070101D02*
X0441258Y0070101D01*
X0439937Y0069533D02*
X0439937Y0067265D01*
X0439370Y0066698D01*
X0438236Y0066698D01*
X0437668Y0067265D01*
X0436254Y0068399D02*
X0433985Y0068399D01*
X0434552Y0066698D02*
X0434552Y0070101D01*
X0436254Y0068399D01*
X0437668Y0069533D02*
X0438236Y0070101D01*
X0439370Y0070101D01*
X0439937Y0069533D01*
X0424509Y0080448D02*
X0423942Y0079880D01*
X0421673Y0079880D01*
X0421106Y0080448D01*
X0421106Y0081582D01*
X0421673Y0082149D01*
X0421673Y0083564D02*
X0421106Y0084131D01*
X0421106Y0085265D01*
X0421673Y0085832D01*
X0422240Y0085832D01*
X0422807Y0085265D01*
X0422807Y0084698D01*
X0422807Y0085265D02*
X0423374Y0085832D01*
X0423942Y0085832D01*
X0424509Y0085265D01*
X0424509Y0084131D01*
X0423942Y0083564D01*
X0423942Y0082149D02*
X0424509Y0081582D01*
X0424509Y0080448D01*
X0419889Y0079993D02*
X0419889Y0081694D01*
X0419321Y0082262D01*
X0418187Y0082262D01*
X0417620Y0081694D01*
X0417620Y0079993D01*
X0417620Y0081127D02*
X0416486Y0082262D01*
X0417053Y0083676D02*
X0416486Y0084243D01*
X0416486Y0085378D01*
X0417053Y0085945D01*
X0418187Y0085945D01*
X0418754Y0085378D01*
X0418754Y0084810D01*
X0418187Y0083676D01*
X0419889Y0083676D01*
X0419889Y0085945D01*
X0421106Y0087247D02*
X0421106Y0089515D01*
X0421106Y0088381D02*
X0424509Y0088381D01*
X0423374Y0087247D01*
X0419889Y0088494D02*
X0416486Y0088494D01*
X0416486Y0089628D02*
X0416486Y0087359D01*
X0418754Y0087359D02*
X0419889Y0088494D01*
X0411030Y0089061D02*
X0410463Y0089628D01*
X0408195Y0087359D01*
X0407627Y0087926D01*
X0407627Y0089061D01*
X0408195Y0089628D01*
X0410463Y0089628D01*
X0411030Y0089061D02*
X0411030Y0087926D01*
X0410463Y0087359D01*
X0408195Y0087359D01*
X0408195Y0085945D02*
X0407627Y0085378D01*
X0407627Y0084243D01*
X0408195Y0083676D01*
X0409329Y0083676D02*
X0409896Y0084810D01*
X0409896Y0085378D01*
X0409329Y0085945D01*
X0408195Y0085945D01*
X0406595Y0085265D02*
X0406028Y0085832D01*
X0405461Y0085832D01*
X0404894Y0085265D01*
X0404327Y0085832D01*
X0403760Y0085832D01*
X0403192Y0085265D01*
X0403192Y0084131D01*
X0403760Y0083564D01*
X0403760Y0082149D02*
X0403192Y0081582D01*
X0403192Y0080448D01*
X0403760Y0079880D01*
X0406028Y0079880D01*
X0406595Y0080448D01*
X0406595Y0081582D01*
X0406028Y0082149D01*
X0406028Y0083564D02*
X0406595Y0084131D01*
X0406595Y0085265D01*
X0404894Y0085265D02*
X0404894Y0084698D01*
X0406028Y0087247D02*
X0406595Y0087814D01*
X0406595Y0088948D01*
X0406028Y0089515D01*
X0405461Y0089515D01*
X0403192Y0087247D01*
X0403192Y0089515D01*
X0402293Y0091558D02*
X0402860Y0092125D01*
X0402293Y0091558D02*
X0401159Y0091558D01*
X0400591Y0092125D01*
X0400591Y0092692D01*
X0401159Y0093259D01*
X0401726Y0093259D01*
X0401159Y0093259D02*
X0400591Y0093826D01*
X0400591Y0094394D01*
X0401159Y0094961D01*
X0402293Y0094961D01*
X0402860Y0094394D01*
X0404275Y0094394D02*
X0404842Y0094961D01*
X0405976Y0094961D01*
X0406543Y0094394D01*
X0406543Y0092125D01*
X0405976Y0091558D01*
X0404842Y0091558D01*
X0404275Y0092125D01*
X0411030Y0085945D02*
X0411030Y0083676D01*
X0409329Y0083676D01*
X0409329Y0082262D02*
X0408762Y0081694D01*
X0408762Y0079993D01*
X0408762Y0081127D02*
X0407627Y0082262D01*
X0409329Y0082262D02*
X0410463Y0082262D01*
X0411030Y0081694D01*
X0411030Y0079993D01*
X0407627Y0079993D01*
X0416486Y0079993D02*
X0419889Y0079993D01*
X0392514Y0076596D02*
X0392514Y0074328D01*
X0391946Y0073761D01*
X0390812Y0073761D01*
X0390245Y0074328D01*
X0390245Y0076596D01*
X0390812Y0077164D01*
X0391946Y0077164D01*
X0392514Y0076596D01*
X0391379Y0074895D02*
X0390245Y0073761D01*
X0388830Y0074328D02*
X0388263Y0073761D01*
X0387129Y0073761D01*
X0386562Y0074328D01*
X0386562Y0074895D01*
X0387129Y0075462D01*
X0387696Y0075462D01*
X0387129Y0075462D02*
X0386562Y0076029D01*
X0386562Y0076596D01*
X0387129Y0077164D01*
X0388263Y0077164D01*
X0388830Y0076596D01*
X0378734Y0076596D02*
X0378734Y0074328D01*
X0378167Y0073761D01*
X0377033Y0073761D01*
X0376466Y0074328D01*
X0376466Y0076596D01*
X0377033Y0077164D01*
X0378167Y0077164D01*
X0378734Y0076596D01*
X0377600Y0074895D02*
X0376466Y0073761D01*
X0375051Y0074328D02*
X0375051Y0074895D01*
X0374484Y0075462D01*
X0373350Y0075462D01*
X0372782Y0074895D01*
X0372782Y0074328D01*
X0373350Y0073761D01*
X0374484Y0073761D01*
X0375051Y0074328D01*
X0374484Y0075462D02*
X0375051Y0076029D01*
X0375051Y0076596D01*
X0374484Y0077164D01*
X0373350Y0077164D01*
X0372782Y0076596D01*
X0372782Y0076029D01*
X0373350Y0075462D01*
X0372094Y0083540D02*
X0372094Y0086943D01*
X0370393Y0086943D01*
X0369826Y0086376D01*
X0369826Y0085242D01*
X0370393Y0084674D01*
X0372094Y0084674D01*
X0370960Y0084674D02*
X0369826Y0083540D01*
X0368411Y0083540D02*
X0366143Y0083540D01*
X0367277Y0083540D02*
X0367277Y0086943D01*
X0368411Y0085809D01*
X0364728Y0085242D02*
X0363027Y0086943D01*
X0363027Y0083540D01*
X0362459Y0085242D02*
X0364728Y0085242D01*
X0378207Y0086376D02*
X0380476Y0084107D01*
X0379909Y0083540D01*
X0378775Y0083540D01*
X0378207Y0084107D01*
X0378207Y0086376D01*
X0378775Y0086943D01*
X0379909Y0086943D01*
X0380476Y0086376D01*
X0380476Y0084107D01*
X0381891Y0083540D02*
X0384159Y0083540D01*
X0383025Y0083540D02*
X0383025Y0086943D01*
X0384159Y0085809D01*
X0385574Y0086376D02*
X0385574Y0085242D01*
X0386141Y0084674D01*
X0387842Y0084674D01*
X0387842Y0083540D02*
X0387842Y0086943D01*
X0386141Y0086943D01*
X0385574Y0086376D01*
X0386708Y0084674D02*
X0385574Y0083540D01*
X0427167Y0094436D02*
X0429435Y0094436D01*
X0428301Y0094436D02*
X0428301Y0097839D01*
X0429435Y0096705D01*
X0430850Y0097839D02*
X0431984Y0097839D01*
X0431417Y0097839D02*
X0431417Y0095004D01*
X0431984Y0094436D01*
X0432551Y0094436D01*
X0433119Y0095004D01*
X0461460Y0096511D02*
X0462027Y0095943D01*
X0464296Y0095943D01*
X0464863Y0096511D01*
X0464863Y0097645D01*
X0464296Y0098212D01*
X0464863Y0099627D02*
X0463162Y0099627D01*
X0463729Y0100761D01*
X0463729Y0101328D01*
X0463162Y0101895D01*
X0462027Y0101895D01*
X0461460Y0101328D01*
X0461460Y0100194D01*
X0462027Y0099627D01*
X0462027Y0098212D02*
X0461460Y0097645D01*
X0461460Y0096511D01*
X0464863Y0099627D02*
X0464863Y0101895D01*
X0464863Y0103310D02*
X0463162Y0103310D01*
X0463729Y0104444D01*
X0463729Y0105011D01*
X0463162Y0105578D01*
X0462027Y0105578D01*
X0461460Y0105011D01*
X0461460Y0103877D01*
X0462027Y0103310D01*
X0464863Y0103310D02*
X0464863Y0105578D01*
X0442225Y0106894D02*
X0442225Y0110297D01*
X0440523Y0110297D01*
X0439956Y0109730D01*
X0439956Y0108596D01*
X0440523Y0108029D01*
X0442225Y0108029D01*
X0438541Y0110297D02*
X0436273Y0110297D01*
X0437407Y0110297D02*
X0437407Y0106894D01*
X0434858Y0107462D02*
X0434291Y0106894D01*
X0433157Y0106894D01*
X0432590Y0107462D01*
X0431175Y0106894D02*
X0428907Y0106894D01*
X0430041Y0106894D02*
X0430041Y0110297D01*
X0431175Y0109163D01*
X0432590Y0109730D02*
X0433157Y0110297D01*
X0434291Y0110297D01*
X0434858Y0109730D01*
X0434858Y0107462D01*
X0429847Y0117282D02*
X0427578Y0117282D01*
X0427011Y0117849D01*
X0427011Y0118984D01*
X0427578Y0119551D01*
X0427011Y0120965D02*
X0429280Y0123234D01*
X0429847Y0123234D01*
X0430414Y0122667D01*
X0430414Y0121532D01*
X0429847Y0120965D01*
X0429847Y0119551D02*
X0430414Y0118984D01*
X0430414Y0117849D01*
X0429847Y0117282D01*
X0427011Y0120965D02*
X0427011Y0123234D01*
X0427578Y0124648D02*
X0427011Y0125216D01*
X0427011Y0126350D01*
X0427578Y0126917D01*
X0429847Y0126917D01*
X0430414Y0126350D01*
X0430414Y0125216D01*
X0429847Y0124648D01*
X0429280Y0124648D01*
X0428713Y0125216D01*
X0428713Y0126917D01*
X0411464Y0126997D02*
X0409763Y0126997D01*
X0409196Y0127564D01*
X0409196Y0128699D01*
X0409763Y0129266D01*
X0411464Y0129266D01*
X0411464Y0125863D01*
X0410330Y0126997D02*
X0409196Y0125863D01*
X0407781Y0126430D02*
X0407214Y0125863D01*
X0406080Y0125863D01*
X0405513Y0126430D01*
X0405513Y0127564D01*
X0406080Y0128132D01*
X0406647Y0128132D01*
X0407781Y0127564D01*
X0407781Y0129266D01*
X0405513Y0129266D01*
X0404098Y0127564D02*
X0401830Y0127564D01*
X0402397Y0125863D02*
X0402397Y0129266D01*
X0404098Y0127564D01*
X0401167Y0123059D02*
X0401734Y0122492D01*
X0401734Y0120223D01*
X0401167Y0119656D01*
X0400033Y0119656D01*
X0399466Y0120223D01*
X0398051Y0119656D02*
X0395783Y0121925D01*
X0395783Y0122492D01*
X0396350Y0123059D01*
X0397484Y0123059D01*
X0398051Y0122492D01*
X0399466Y0122492D02*
X0400033Y0123059D01*
X0401167Y0123059D01*
X0398051Y0119656D02*
X0395783Y0119656D01*
X0394368Y0120223D02*
X0393801Y0119656D01*
X0392667Y0119656D01*
X0392099Y0120223D01*
X0392099Y0120791D01*
X0392667Y0121358D01*
X0394368Y0121358D01*
X0394368Y0120223D01*
X0394368Y0121358D02*
X0393234Y0122492D01*
X0392099Y0123059D01*
X0380025Y0124525D02*
X0379457Y0123957D01*
X0378323Y0123957D01*
X0377756Y0124525D01*
X0377756Y0125092D01*
X0378323Y0125659D01*
X0378890Y0125659D01*
X0378323Y0125659D02*
X0377756Y0126226D01*
X0377756Y0126793D01*
X0378323Y0127360D01*
X0379457Y0127360D01*
X0380025Y0126793D01*
X0376341Y0127360D02*
X0376341Y0125092D01*
X0375207Y0123957D01*
X0374073Y0125092D01*
X0374073Y0127360D01*
X0372658Y0126793D02*
X0372091Y0127360D01*
X0370957Y0127360D01*
X0370390Y0126793D01*
X0370390Y0126226D01*
X0370957Y0125659D01*
X0370390Y0125092D01*
X0370390Y0124525D01*
X0370957Y0123957D01*
X0372091Y0123957D01*
X0372658Y0124525D01*
X0371524Y0125659D02*
X0370957Y0125659D01*
X0352658Y0132731D02*
X0352091Y0132164D01*
X0349823Y0132164D01*
X0349255Y0132731D01*
X0349255Y0133865D01*
X0349823Y0134433D01*
X0349255Y0135847D02*
X0351524Y0138116D01*
X0352091Y0138116D01*
X0352658Y0137549D01*
X0352658Y0136414D01*
X0352091Y0135847D01*
X0352091Y0134433D02*
X0352658Y0133865D01*
X0352658Y0132731D01*
X0347737Y0132731D02*
X0347737Y0133865D01*
X0347170Y0134433D01*
X0347170Y0135847D02*
X0347737Y0136414D01*
X0347737Y0137549D01*
X0347170Y0138116D01*
X0346603Y0138116D01*
X0344334Y0135847D01*
X0344334Y0138116D01*
X0346036Y0139530D02*
X0346036Y0141799D01*
X0347737Y0141232D02*
X0346036Y0139530D01*
X0344334Y0141232D02*
X0347737Y0141232D01*
X0349255Y0141232D02*
X0349255Y0140097D01*
X0349823Y0139530D01*
X0350957Y0139530D02*
X0351524Y0140665D01*
X0351524Y0141232D01*
X0350957Y0141799D01*
X0349823Y0141799D01*
X0349255Y0141232D01*
X0350957Y0139530D02*
X0352658Y0139530D01*
X0352658Y0141799D01*
X0349255Y0138116D02*
X0349255Y0135847D01*
X0344901Y0134433D02*
X0344334Y0133865D01*
X0344334Y0132731D01*
X0344901Y0132164D01*
X0347170Y0132164D01*
X0347737Y0132731D01*
X0317670Y0134694D02*
X0317103Y0134127D01*
X0314834Y0134127D01*
X0314267Y0134694D01*
X0314267Y0135828D01*
X0314834Y0136395D01*
X0314267Y0137810D02*
X0314267Y0140079D01*
X0314267Y0138944D02*
X0317670Y0138944D01*
X0316536Y0137810D01*
X0317103Y0136395D02*
X0317670Y0135828D01*
X0317670Y0134694D01*
X0312749Y0134379D02*
X0312182Y0133812D01*
X0309913Y0133812D01*
X0309346Y0134379D01*
X0309346Y0135513D01*
X0309913Y0136080D01*
X0309913Y0137495D02*
X0309346Y0138062D01*
X0309346Y0139196D01*
X0309913Y0139764D01*
X0310480Y0139764D01*
X0311047Y0139196D01*
X0311047Y0138629D01*
X0311047Y0139196D02*
X0311615Y0139764D01*
X0312182Y0139764D01*
X0312749Y0139196D01*
X0312749Y0138062D01*
X0312182Y0137495D01*
X0312182Y0136080D02*
X0312749Y0135513D01*
X0312749Y0134379D01*
X0312182Y0141178D02*
X0312749Y0141745D01*
X0312749Y0142880D01*
X0312182Y0143447D01*
X0311615Y0143447D01*
X0311047Y0142880D01*
X0310480Y0143447D01*
X0309913Y0143447D01*
X0309346Y0142880D01*
X0309346Y0141745D01*
X0309913Y0141178D01*
X0311047Y0142312D02*
X0311047Y0142880D01*
X0314267Y0143195D02*
X0314267Y0142060D01*
X0314834Y0141493D01*
X0317103Y0143762D01*
X0314834Y0143762D01*
X0314267Y0143195D01*
X0314834Y0141493D02*
X0317103Y0141493D01*
X0317670Y0142060D01*
X0317670Y0143195D01*
X0317103Y0143762D01*
X0317596Y0151296D02*
X0315328Y0153565D01*
X0315328Y0154132D01*
X0315895Y0154699D01*
X0317029Y0154699D01*
X0317596Y0154132D01*
X0319011Y0152998D02*
X0321280Y0152998D01*
X0319578Y0154699D01*
X0319578Y0151296D01*
X0317596Y0151296D02*
X0315328Y0151296D01*
X0322694Y0151296D02*
X0323828Y0152430D01*
X0323261Y0152430D02*
X0324963Y0152430D01*
X0324963Y0151296D02*
X0324963Y0154699D01*
X0323261Y0154699D01*
X0322694Y0154132D01*
X0322694Y0152998D01*
X0323261Y0152430D01*
X0330092Y0151296D02*
X0332360Y0151296D01*
X0331226Y0151296D02*
X0331226Y0154699D01*
X0332360Y0153565D01*
X0333775Y0152998D02*
X0336043Y0152998D01*
X0334342Y0154699D01*
X0334342Y0151296D01*
X0337458Y0151296D02*
X0338592Y0152430D01*
X0338025Y0152430D02*
X0339726Y0152430D01*
X0339726Y0151296D02*
X0339726Y0154699D01*
X0338025Y0154699D01*
X0337458Y0154132D01*
X0337458Y0152998D01*
X0338025Y0152430D01*
X0343494Y0152194D02*
X0346896Y0152194D01*
X0345195Y0150493D01*
X0345195Y0152761D01*
X0345195Y0154176D02*
X0345762Y0155310D01*
X0345762Y0155877D01*
X0345195Y0156445D01*
X0344061Y0156445D01*
X0343494Y0155877D01*
X0343494Y0154743D01*
X0344061Y0154176D01*
X0345195Y0154176D02*
X0346896Y0154176D01*
X0346896Y0156445D01*
X0346329Y0149078D02*
X0345195Y0149078D01*
X0344628Y0148511D01*
X0344628Y0146810D01*
X0344628Y0147944D02*
X0343494Y0149078D01*
X0343494Y0146810D02*
X0346896Y0146810D01*
X0346896Y0148511D01*
X0346329Y0149078D01*
X0367743Y0158767D02*
X0368310Y0158200D01*
X0369445Y0158200D01*
X0370012Y0158767D01*
X0371426Y0158767D02*
X0371426Y0161603D01*
X0370012Y0161035D02*
X0369445Y0161603D01*
X0368310Y0161603D01*
X0367743Y0161035D01*
X0367743Y0160468D01*
X0368310Y0159901D01*
X0367743Y0159334D01*
X0367743Y0158767D01*
X0368310Y0159901D02*
X0368877Y0159901D01*
X0371426Y0158767D02*
X0371993Y0158200D01*
X0373128Y0158200D01*
X0373695Y0158767D01*
X0373695Y0161603D01*
X0384895Y0158909D02*
X0384895Y0158342D01*
X0387163Y0156074D01*
X0384895Y0156074D01*
X0388578Y0156074D02*
X0390846Y0156074D01*
X0388578Y0158342D01*
X0388578Y0158909D01*
X0389145Y0159477D01*
X0390279Y0159477D01*
X0390846Y0158909D01*
X0392261Y0158909D02*
X0392828Y0159477D01*
X0393962Y0159477D01*
X0394530Y0158909D01*
X0394530Y0156641D01*
X0393962Y0156074D01*
X0392828Y0156074D01*
X0392261Y0156641D01*
X0387163Y0158909D02*
X0386596Y0159477D01*
X0385462Y0159477D01*
X0384895Y0158909D01*
X0378183Y0150982D02*
X0378183Y0149281D01*
X0377049Y0149848D01*
X0376482Y0149848D01*
X0375914Y0149281D01*
X0375914Y0148147D01*
X0376482Y0147580D01*
X0377616Y0147580D01*
X0378183Y0148147D01*
X0374500Y0148714D02*
X0373366Y0147580D01*
X0372231Y0148714D01*
X0372231Y0150982D01*
X0374500Y0150982D02*
X0374500Y0148714D01*
X0375914Y0150982D02*
X0378183Y0150982D01*
X0391987Y0144590D02*
X0394256Y0142322D01*
X0393688Y0141755D01*
X0392554Y0141755D01*
X0391987Y0142322D01*
X0391987Y0144590D01*
X0392554Y0145158D01*
X0393688Y0145158D01*
X0394256Y0144590D01*
X0394256Y0142322D01*
X0395670Y0141755D02*
X0397939Y0141755D01*
X0395670Y0144023D01*
X0395670Y0144590D01*
X0396237Y0145158D01*
X0397372Y0145158D01*
X0397939Y0144590D01*
X0399353Y0144590D02*
X0399920Y0145158D01*
X0401055Y0145158D01*
X0401622Y0144590D01*
X0401622Y0142322D01*
X0401055Y0141755D01*
X0399920Y0141755D01*
X0399353Y0142322D01*
X0391892Y0138951D02*
X0390190Y0138951D01*
X0389623Y0138384D01*
X0389623Y0137249D01*
X0390190Y0136682D01*
X0391892Y0136682D01*
X0391892Y0135548D02*
X0391892Y0138951D01*
X0390758Y0136682D02*
X0389623Y0135548D01*
X0388209Y0136115D02*
X0387642Y0135548D01*
X0386507Y0135548D01*
X0385940Y0136115D01*
X0385940Y0137249D01*
X0386507Y0137817D01*
X0387074Y0137817D01*
X0388209Y0137249D01*
X0388209Y0138951D01*
X0385940Y0138951D01*
X0384526Y0138384D02*
X0384526Y0137817D01*
X0383958Y0137249D01*
X0382824Y0137249D01*
X0382257Y0136682D01*
X0382257Y0136115D01*
X0382824Y0135548D01*
X0383958Y0135548D01*
X0384526Y0136115D01*
X0384526Y0136682D01*
X0383958Y0137249D01*
X0382824Y0137249D02*
X0382257Y0137817D01*
X0382257Y0138384D01*
X0382824Y0138951D01*
X0383958Y0138951D01*
X0384526Y0138384D01*
X0427439Y0157134D02*
X0428007Y0156567D01*
X0429141Y0156567D01*
X0429708Y0157134D01*
X0429708Y0158268D02*
X0428574Y0158835D01*
X0428007Y0158835D01*
X0427439Y0158268D01*
X0427439Y0157134D01*
X0429708Y0158268D02*
X0429708Y0159969D01*
X0427439Y0159969D01*
X0431123Y0159969D02*
X0431123Y0157134D01*
X0431690Y0156567D01*
X0432824Y0156567D01*
X0433391Y0157134D01*
X0433391Y0159969D01*
X0441911Y0146778D02*
X0443045Y0146778D01*
X0443612Y0146211D01*
X0441911Y0146778D02*
X0441343Y0146211D01*
X0441343Y0145643D01*
X0443612Y0143375D01*
X0441343Y0143375D01*
X0445027Y0143375D02*
X0447295Y0143375D01*
X0447295Y0146778D01*
X0478680Y0152599D02*
X0479247Y0152032D01*
X0480381Y0152032D01*
X0480949Y0152599D01*
X0480949Y0153734D02*
X0479814Y0154301D01*
X0479247Y0154301D01*
X0478680Y0153734D01*
X0478680Y0152599D01*
X0480949Y0153734D02*
X0480949Y0155435D01*
X0478680Y0155435D01*
X0482363Y0154868D02*
X0482363Y0154301D01*
X0484632Y0152032D01*
X0482363Y0152032D01*
X0486046Y0152599D02*
X0486613Y0152032D01*
X0488315Y0152032D01*
X0488315Y0155435D01*
X0486613Y0155435D01*
X0486046Y0154868D01*
X0486046Y0152599D01*
X0484632Y0154868D02*
X0484065Y0155435D01*
X0482930Y0155435D01*
X0482363Y0154868D01*
X0517879Y0155006D02*
X0521282Y0155006D01*
X0519581Y0153304D01*
X0519581Y0155573D01*
X0520148Y0151890D02*
X0520715Y0151890D01*
X0521282Y0151322D01*
X0521282Y0150188D01*
X0520715Y0149621D01*
X0520715Y0148206D02*
X0521282Y0147639D01*
X0521282Y0145938D01*
X0517879Y0145938D01*
X0517879Y0147639D01*
X0518447Y0148206D01*
X0520715Y0148206D01*
X0517879Y0149621D02*
X0520148Y0151890D01*
X0517879Y0151890D02*
X0517879Y0149621D01*
X0534760Y0151667D02*
X0534760Y0153935D01*
X0537028Y0153935D02*
X0537028Y0151667D01*
X0535894Y0150532D01*
X0534760Y0151667D01*
X0538443Y0152801D02*
X0538443Y0153368D01*
X0539010Y0153935D01*
X0540144Y0153935D01*
X0540712Y0153368D01*
X0538443Y0152801D02*
X0540712Y0150532D01*
X0538443Y0150532D01*
X0542126Y0150532D02*
X0544395Y0150532D01*
X0543260Y0150532D02*
X0543260Y0153935D01*
X0544395Y0152801D01*
X0492955Y0123476D02*
X0492955Y0121208D01*
X0492388Y0120641D01*
X0491253Y0120641D01*
X0490686Y0121208D01*
X0489272Y0121208D02*
X0488705Y0120641D01*
X0487570Y0120641D01*
X0487003Y0121208D01*
X0487003Y0121775D01*
X0487570Y0122342D01*
X0488137Y0122342D01*
X0487570Y0122342D02*
X0487003Y0122909D01*
X0487003Y0123476D01*
X0487570Y0124043D01*
X0488705Y0124043D01*
X0489272Y0123476D01*
X0490686Y0123476D02*
X0491253Y0124043D01*
X0492388Y0124043D01*
X0492955Y0123476D01*
X0485589Y0124043D02*
X0483320Y0124043D01*
X0483320Y0123476D01*
X0485589Y0121208D01*
X0485589Y0120641D01*
X0550999Y0117903D02*
X0551566Y0118471D01*
X0552700Y0118471D01*
X0553267Y0117903D01*
X0553267Y0115635D01*
X0552700Y0115068D01*
X0551566Y0115068D01*
X0550999Y0115635D01*
X0554682Y0115635D02*
X0555249Y0115068D01*
X0556383Y0115068D01*
X0556950Y0115635D01*
X0556950Y0117903D01*
X0556383Y0118471D01*
X0555249Y0118471D01*
X0554682Y0117903D01*
X0558365Y0118471D02*
X0558365Y0116202D01*
X0559499Y0115068D01*
X0560633Y0116202D01*
X0560633Y0118471D01*
X0562048Y0116769D02*
X0564317Y0116769D01*
X0565731Y0116769D02*
X0566865Y0116769D01*
X0565731Y0116769D02*
X0565731Y0115635D01*
X0566298Y0115068D01*
X0567433Y0115068D01*
X0568000Y0115635D01*
X0568000Y0117903D01*
X0567433Y0118471D01*
X0566298Y0118471D01*
X0565731Y0117903D01*
X0569414Y0118471D02*
X0571683Y0118471D01*
X0571683Y0115068D01*
X0569414Y0115068D01*
X0570549Y0116769D02*
X0571683Y0116769D01*
X0573097Y0116202D02*
X0573097Y0115635D01*
X0573665Y0115068D01*
X0574799Y0115068D01*
X0575366Y0115635D01*
X0574799Y0116769D02*
X0573665Y0116769D01*
X0573097Y0116202D01*
X0573097Y0117903D02*
X0573665Y0118471D01*
X0574799Y0118471D01*
X0575366Y0117903D01*
X0575366Y0117336D01*
X0574799Y0116769D01*
X0568541Y0097384D02*
X0566840Y0097384D01*
X0566273Y0096817D01*
X0566273Y0095683D01*
X0566840Y0095115D01*
X0568541Y0095115D01*
X0568541Y0093981D02*
X0568541Y0097384D01*
X0564858Y0097384D02*
X0564858Y0093981D01*
X0563724Y0095115D01*
X0562590Y0093981D01*
X0562590Y0097384D01*
X0561175Y0097384D02*
X0559474Y0097384D01*
X0558907Y0096817D01*
X0558907Y0095683D01*
X0559474Y0095115D01*
X0561175Y0095115D01*
X0561175Y0093981D02*
X0561175Y0097384D01*
X0560041Y0095115D02*
X0558907Y0093981D01*
X0559119Y0078846D02*
X0558552Y0078279D01*
X0558552Y0076010D01*
X0559119Y0075443D01*
X0560253Y0075443D01*
X0560820Y0076010D01*
X0560820Y0077144D02*
X0559686Y0077144D01*
X0560820Y0077144D02*
X0560820Y0078279D01*
X0560253Y0078846D01*
X0559119Y0078846D01*
X0562235Y0078846D02*
X0562235Y0075443D01*
X0564503Y0078846D01*
X0564503Y0075443D01*
X0565918Y0075443D02*
X0565918Y0078846D01*
X0567619Y0078846D01*
X0568186Y0078279D01*
X0568186Y0076010D01*
X0567619Y0075443D01*
X0565918Y0075443D01*
X0482657Y0087914D02*
X0482657Y0091317D01*
X0480389Y0091317D01*
X0478974Y0091317D02*
X0477273Y0091317D01*
X0476706Y0090750D01*
X0476706Y0090183D01*
X0477273Y0089616D01*
X0478974Y0089616D01*
X0478974Y0091317D02*
X0478974Y0087914D01*
X0477273Y0087914D01*
X0476706Y0088481D01*
X0476706Y0089048D01*
X0477273Y0089616D01*
X0475291Y0090750D02*
X0474724Y0091317D01*
X0473590Y0091317D01*
X0473022Y0090750D01*
X0473022Y0090183D01*
X0475291Y0087914D01*
X0473022Y0087914D01*
X0481523Y0089616D02*
X0482657Y0089616D01*
X0409571Y0110714D02*
X0409004Y0110146D01*
X0407869Y0110146D01*
X0407302Y0110714D01*
X0407302Y0111281D01*
X0407869Y0111848D01*
X0409004Y0111848D01*
X0409571Y0112415D01*
X0409571Y0112982D01*
X0409004Y0113549D01*
X0407869Y0113549D01*
X0407302Y0112982D01*
X0404753Y0113549D02*
X0403619Y0113549D01*
X0404186Y0113549D02*
X0404186Y0110714D01*
X0404753Y0110146D01*
X0405320Y0110146D01*
X0405888Y0110714D01*
X0402204Y0110146D02*
X0399936Y0112415D01*
X0399936Y0112982D01*
X0400503Y0113549D01*
X0401637Y0113549D01*
X0402204Y0112982D01*
X0402204Y0110146D02*
X0399936Y0110146D01*
X0334101Y0090917D02*
X0334101Y0089782D01*
X0333534Y0089215D01*
X0332400Y0090350D02*
X0332400Y0090917D01*
X0331833Y0091484D01*
X0331265Y0091484D01*
X0330698Y0090917D01*
X0330698Y0089782D01*
X0331265Y0089215D01*
X0332400Y0087801D02*
X0332400Y0085532D01*
X0334101Y0087234D01*
X0330698Y0087234D01*
X0330698Y0084118D02*
X0331833Y0082983D01*
X0331833Y0083550D02*
X0331833Y0081849D01*
X0330698Y0081849D02*
X0334101Y0081849D01*
X0334101Y0083550D01*
X0333534Y0084118D01*
X0332400Y0084118D01*
X0331833Y0083550D01*
X0332400Y0090917D02*
X0332967Y0091484D01*
X0333534Y0091484D01*
X0334101Y0090917D01*
X0330666Y0059097D02*
X0330666Y0044297D01*
X0316873Y0052747D02*
X0316306Y0052179D01*
X0315738Y0052179D01*
X0315171Y0052747D01*
X0315171Y0053881D01*
X0314604Y0054448D01*
X0314037Y0054448D01*
X0313470Y0053881D01*
X0313470Y0052747D01*
X0314037Y0052179D01*
X0314604Y0052179D01*
X0315171Y0052747D01*
X0315171Y0053881D02*
X0315738Y0054448D01*
X0316306Y0054448D01*
X0316873Y0053881D01*
X0316873Y0052747D01*
X0316306Y0055863D02*
X0313470Y0055863D01*
X0313470Y0058131D02*
X0316306Y0058131D01*
X0316873Y0057564D01*
X0316873Y0056430D01*
X0316306Y0055863D01*
X0310666Y0052897D02*
X0310666Y0059097D01*
X0310666Y0052897D02*
X0310666Y0050497D01*
X0310666Y0044297D01*
X0310666Y0050497D02*
X0310735Y0050499D01*
X0310803Y0050505D01*
X0310871Y0050515D01*
X0310938Y0050528D01*
X0311004Y0050546D01*
X0311069Y0050567D01*
X0311133Y0050592D01*
X0311195Y0050620D01*
X0311256Y0050652D01*
X0311315Y0050687D01*
X0311371Y0050726D01*
X0311426Y0050768D01*
X0311477Y0050813D01*
X0311527Y0050861D01*
X0311573Y0050911D01*
X0311616Y0050964D01*
X0311657Y0051020D01*
X0311694Y0051077D01*
X0311727Y0051137D01*
X0311758Y0051199D01*
X0311784Y0051262D01*
X0311807Y0051326D01*
X0311827Y0051392D01*
X0311842Y0051459D01*
X0311854Y0051526D01*
X0311862Y0051594D01*
X0311866Y0051663D01*
X0311866Y0051731D01*
X0311862Y0051800D01*
X0311854Y0051868D01*
X0311842Y0051935D01*
X0311827Y0052002D01*
X0311807Y0052068D01*
X0311784Y0052132D01*
X0311758Y0052195D01*
X0311727Y0052257D01*
X0311694Y0052317D01*
X0311657Y0052374D01*
X0311616Y0052430D01*
X0311573Y0052483D01*
X0311527Y0052533D01*
X0311477Y0052581D01*
X0311426Y0052626D01*
X0311371Y0052668D01*
X0311315Y0052707D01*
X0311256Y0052742D01*
X0311195Y0052774D01*
X0311133Y0052802D01*
X0311069Y0052827D01*
X0311004Y0052848D01*
X0310938Y0052866D01*
X0310871Y0052879D01*
X0310803Y0052889D01*
X0310735Y0052895D01*
X0310666Y0052897D01*
X0279679Y0046352D02*
X0277410Y0046352D01*
X0278545Y0047486D02*
X0278545Y0045218D01*
X0279285Y0058950D02*
X0277017Y0058950D01*
X0212024Y0073060D02*
X0211457Y0072493D01*
X0210322Y0072493D01*
X0209755Y0073060D01*
X0209755Y0075329D01*
X0210322Y0075896D01*
X0211457Y0075896D01*
X0212024Y0075329D01*
X0212024Y0073060D01*
X0210889Y0073627D02*
X0209755Y0072493D01*
X0208341Y0073060D02*
X0207773Y0072493D01*
X0206639Y0072493D01*
X0206072Y0073060D01*
X0206072Y0074194D01*
X0206639Y0074762D01*
X0207206Y0074762D01*
X0208341Y0074194D01*
X0208341Y0075896D01*
X0206072Y0075896D01*
X0206639Y0077414D02*
X0207773Y0077414D01*
X0208341Y0077981D01*
X0208341Y0079116D02*
X0207206Y0079683D01*
X0206639Y0079683D01*
X0206072Y0079116D01*
X0206072Y0077981D01*
X0206639Y0077414D01*
X0204657Y0077414D02*
X0204657Y0077981D01*
X0202389Y0080250D01*
X0202389Y0080817D01*
X0204657Y0080817D01*
X0206072Y0080817D02*
X0208341Y0080817D01*
X0208341Y0079116D01*
X0209755Y0080250D02*
X0209755Y0077981D01*
X0210322Y0077414D01*
X0211457Y0077414D01*
X0212024Y0077981D01*
X0212024Y0080250D01*
X0211457Y0080817D01*
X0210322Y0080817D01*
X0209755Y0080250D01*
X0210889Y0078548D02*
X0209755Y0077414D01*
X0204657Y0074194D02*
X0203523Y0075329D01*
X0202389Y0075896D01*
X0202956Y0074194D02*
X0204657Y0074194D01*
X0204657Y0073060D01*
X0204090Y0072493D01*
X0202956Y0072493D01*
X0202389Y0073060D01*
X0202389Y0073627D01*
X0202956Y0074194D01*
X0196026Y0084367D02*
X0196026Y0087770D01*
X0194324Y0087770D01*
X0193757Y0087203D01*
X0193757Y0086068D01*
X0194324Y0085501D01*
X0196026Y0085501D01*
X0194891Y0085501D02*
X0193757Y0084367D01*
X0192343Y0084934D02*
X0191775Y0084367D01*
X0190641Y0084367D01*
X0190074Y0084934D01*
X0190074Y0085501D01*
X0190641Y0086068D01*
X0191208Y0086068D01*
X0190641Y0086068D02*
X0190074Y0086636D01*
X0190074Y0087203D01*
X0190641Y0087770D01*
X0191775Y0087770D01*
X0192343Y0087203D01*
X0188659Y0087203D02*
X0188659Y0086636D01*
X0188092Y0086068D01*
X0186958Y0086068D01*
X0186391Y0085501D01*
X0186391Y0084934D01*
X0186958Y0084367D01*
X0188092Y0084367D01*
X0188659Y0084934D01*
X0188659Y0085501D01*
X0188092Y0086068D01*
X0186958Y0086068D02*
X0186391Y0086636D01*
X0186391Y0087203D01*
X0186958Y0087770D01*
X0188092Y0087770D01*
X0188659Y0087203D01*
X0176341Y0083833D02*
X0174639Y0083833D01*
X0174072Y0083266D01*
X0174072Y0082131D01*
X0174639Y0081564D01*
X0176341Y0081564D01*
X0176341Y0080430D02*
X0176341Y0083833D01*
X0175206Y0081564D02*
X0174072Y0080430D01*
X0172657Y0080430D02*
X0170389Y0082699D01*
X0170389Y0083266D01*
X0170956Y0083833D01*
X0172090Y0083833D01*
X0172657Y0083266D01*
X0172657Y0080430D02*
X0170389Y0080430D01*
X0168974Y0080430D02*
X0166706Y0080430D01*
X0167840Y0080430D02*
X0167840Y0083833D01*
X0168974Y0082699D01*
X0164417Y0081722D02*
X0162716Y0081722D01*
X0162149Y0082289D01*
X0162149Y0083423D01*
X0162716Y0083990D01*
X0164417Y0083990D01*
X0164417Y0080587D01*
X0163283Y0081722D02*
X0162149Y0080587D01*
X0160734Y0080587D02*
X0158465Y0082856D01*
X0158465Y0083423D01*
X0159033Y0083990D01*
X0160167Y0083990D01*
X0160734Y0083423D01*
X0160734Y0080587D02*
X0158465Y0080587D01*
X0157051Y0080587D02*
X0154782Y0082856D01*
X0154782Y0083423D01*
X0155349Y0083990D01*
X0156484Y0083990D01*
X0157051Y0083423D01*
X0157051Y0080587D02*
X0154782Y0080587D01*
X0140908Y0084367D02*
X0140908Y0087770D01*
X0139206Y0087770D01*
X0138639Y0087203D01*
X0138639Y0086068D01*
X0139206Y0085501D01*
X0140908Y0085501D01*
X0139773Y0085501D02*
X0138639Y0084367D01*
X0137224Y0084934D02*
X0136657Y0084367D01*
X0135523Y0084367D01*
X0134956Y0084934D01*
X0134956Y0085501D01*
X0135523Y0086068D01*
X0136090Y0086068D01*
X0135523Y0086068D02*
X0134956Y0086636D01*
X0134956Y0087203D01*
X0135523Y0087770D01*
X0136657Y0087770D01*
X0137224Y0087203D01*
X0133541Y0087203D02*
X0132974Y0087770D01*
X0131840Y0087770D01*
X0131273Y0087203D01*
X0131273Y0086636D01*
X0131840Y0086068D01*
X0131273Y0085501D01*
X0131273Y0084934D01*
X0131840Y0084367D01*
X0132974Y0084367D01*
X0133541Y0084934D01*
X0132407Y0086068D02*
X0131840Y0086068D01*
X0131732Y0094146D02*
X0130598Y0094146D01*
X0130031Y0094714D01*
X0130031Y0096982D01*
X0130598Y0097549D01*
X0131732Y0097549D01*
X0132299Y0096982D01*
X0132299Y0094714D01*
X0131732Y0094146D01*
X0131165Y0095281D02*
X0130031Y0094146D01*
X0128616Y0095848D02*
X0126348Y0095848D01*
X0126915Y0097549D02*
X0128616Y0095848D01*
X0126915Y0097549D02*
X0126915Y0094146D01*
X0124933Y0094714D02*
X0124366Y0094146D01*
X0123232Y0094146D01*
X0122664Y0094714D01*
X0122664Y0095281D01*
X0123232Y0095848D01*
X0123799Y0095848D01*
X0123232Y0095848D02*
X0122664Y0096415D01*
X0122664Y0096982D01*
X0123232Y0097549D01*
X0124366Y0097549D01*
X0124933Y0096982D01*
X0106459Y0105036D02*
X0106459Y0108439D01*
X0104757Y0108439D01*
X0104190Y0107872D01*
X0104190Y0106738D01*
X0104757Y0106171D01*
X0106459Y0106171D01*
X0105324Y0106171D02*
X0104190Y0105036D01*
X0102776Y0105603D02*
X0102208Y0105036D01*
X0101074Y0105036D01*
X0100507Y0105603D01*
X0100507Y0106171D01*
X0101074Y0106738D01*
X0101641Y0106738D01*
X0101074Y0106738D02*
X0100507Y0107305D01*
X0100507Y0107872D01*
X0101074Y0108439D01*
X0102208Y0108439D01*
X0102776Y0107872D01*
X0102458Y0109894D02*
X0103026Y0110462D01*
X0102458Y0109894D02*
X0101324Y0109894D01*
X0100757Y0110462D01*
X0100757Y0111596D01*
X0101324Y0112163D01*
X0101891Y0112163D01*
X0103026Y0111596D01*
X0103026Y0113297D01*
X0100757Y0113297D01*
X0099342Y0112730D02*
X0098775Y0113297D01*
X0097641Y0113297D01*
X0097074Y0112730D01*
X0097074Y0112163D01*
X0097641Y0111596D01*
X0098775Y0111596D01*
X0099342Y0112163D01*
X0099342Y0112730D01*
X0098775Y0111596D02*
X0099342Y0111029D01*
X0099342Y0110462D01*
X0098775Y0109894D01*
X0097641Y0109894D01*
X0097074Y0110462D01*
X0097074Y0111029D01*
X0097641Y0111596D01*
X0104440Y0112730D02*
X0104440Y0110462D01*
X0105007Y0109894D01*
X0106142Y0109894D01*
X0106709Y0110462D01*
X0106709Y0112730D01*
X0106142Y0113297D01*
X0105007Y0113297D01*
X0104440Y0112730D01*
X0105574Y0111029D02*
X0104440Y0109894D01*
X0099092Y0107872D02*
X0099092Y0107305D01*
X0098525Y0106738D01*
X0096824Y0106738D01*
X0096824Y0107872D02*
X0097391Y0108439D01*
X0098525Y0108439D01*
X0099092Y0107872D01*
X0096824Y0107872D02*
X0096824Y0105603D01*
X0097391Y0105036D01*
X0098525Y0105036D01*
X0099092Y0105603D01*
X0096299Y0100502D02*
X0095165Y0100502D01*
X0094598Y0099935D01*
X0094598Y0097666D01*
X0095165Y0097099D01*
X0096299Y0097099D01*
X0096866Y0097666D01*
X0096866Y0099935D01*
X0096299Y0100502D01*
X0095732Y0098234D02*
X0094598Y0097099D01*
X0093183Y0097666D02*
X0092616Y0097099D01*
X0091482Y0097099D01*
X0090914Y0097666D01*
X0090914Y0098801D01*
X0091482Y0099368D01*
X0092049Y0099368D01*
X0093183Y0098801D01*
X0093183Y0100502D01*
X0090914Y0100502D01*
X0089500Y0098801D02*
X0087231Y0098801D01*
X0087798Y0097099D02*
X0087798Y0100502D01*
X0089500Y0098801D01*
X0088933Y0095581D02*
X0087798Y0095581D01*
X0087231Y0095014D01*
X0087231Y0094447D01*
X0087798Y0093879D01*
X0087231Y0093312D01*
X0087231Y0092745D01*
X0087798Y0092178D01*
X0088933Y0092178D01*
X0089500Y0092745D01*
X0090914Y0092745D02*
X0091482Y0092178D01*
X0092616Y0092178D01*
X0093183Y0092745D01*
X0093183Y0093879D02*
X0092049Y0094447D01*
X0091482Y0094447D01*
X0090914Y0093879D01*
X0090914Y0092745D01*
X0093183Y0093879D02*
X0093183Y0095581D01*
X0090914Y0095581D01*
X0089500Y0095014D02*
X0088933Y0095581D01*
X0088366Y0093879D02*
X0087798Y0093879D01*
X0094598Y0092745D02*
X0094598Y0095014D01*
X0095165Y0095581D01*
X0096299Y0095581D01*
X0096866Y0095014D01*
X0096866Y0092745D01*
X0096299Y0092178D01*
X0095165Y0092178D01*
X0094598Y0092745D01*
X0094598Y0092178D02*
X0095732Y0093312D01*
X0065120Y0088754D02*
X0065120Y0085351D01*
X0065120Y0086485D02*
X0063419Y0086485D01*
X0062852Y0087053D01*
X0062852Y0088187D01*
X0063419Y0088754D01*
X0065120Y0088754D01*
X0063986Y0086485D02*
X0062852Y0085351D01*
X0061437Y0085918D02*
X0060870Y0085351D01*
X0059736Y0085351D01*
X0059168Y0085918D01*
X0059168Y0086485D01*
X0059736Y0087053D01*
X0060303Y0087053D01*
X0059736Y0087053D02*
X0059168Y0087620D01*
X0059168Y0088187D01*
X0059736Y0088754D01*
X0060870Y0088754D01*
X0061437Y0088187D01*
X0057754Y0088754D02*
X0055485Y0088754D01*
X0055485Y0088187D01*
X0057754Y0085918D01*
X0057754Y0085351D01*
X0047291Y0089446D02*
X0047291Y0092849D01*
X0045590Y0092849D01*
X0045023Y0092281D01*
X0045023Y0091147D01*
X0045590Y0090580D01*
X0047291Y0090580D01*
X0046157Y0090580D02*
X0045023Y0089446D01*
X0043608Y0090013D02*
X0043041Y0089446D01*
X0041907Y0089446D01*
X0041339Y0090013D01*
X0041339Y0091147D01*
X0041907Y0091714D01*
X0042474Y0091714D01*
X0043608Y0091147D01*
X0043608Y0092849D01*
X0041339Y0092849D01*
X0039925Y0092281D02*
X0039358Y0092849D01*
X0038223Y0092849D01*
X0037656Y0092281D01*
X0037656Y0091714D01*
X0039925Y0089446D01*
X0037656Y0089446D01*
X0061846Y0072179D02*
X0063547Y0070478D01*
X0061278Y0070478D01*
X0061846Y0072179D02*
X0061846Y0068776D01*
X0064962Y0068776D02*
X0067230Y0068776D01*
X0064962Y0071045D01*
X0064962Y0071612D01*
X0065529Y0072179D01*
X0066663Y0072179D01*
X0067230Y0071612D01*
X0068645Y0071612D02*
X0068645Y0070478D01*
X0069212Y0069911D01*
X0070913Y0069911D01*
X0069779Y0069911D02*
X0068645Y0068776D01*
X0070913Y0068776D02*
X0070913Y0072179D01*
X0069212Y0072179D01*
X0068645Y0071612D01*
X0076155Y0071455D02*
X0076155Y0070888D01*
X0076722Y0070320D01*
X0076155Y0069753D01*
X0076155Y0069186D01*
X0076722Y0068619D01*
X0077856Y0068619D01*
X0078423Y0069186D01*
X0079838Y0068619D02*
X0082106Y0068619D01*
X0079838Y0070888D01*
X0079838Y0071455D01*
X0080405Y0072022D01*
X0081539Y0072022D01*
X0082106Y0071455D01*
X0083521Y0071455D02*
X0083521Y0070320D01*
X0084088Y0069753D01*
X0085789Y0069753D01*
X0084655Y0069753D02*
X0083521Y0068619D01*
X0085789Y0068619D02*
X0085789Y0072022D01*
X0084088Y0072022D01*
X0083521Y0071455D01*
X0078423Y0071455D02*
X0077856Y0072022D01*
X0076722Y0072022D01*
X0076155Y0071455D01*
X0076722Y0070320D02*
X0077289Y0070320D01*
X0088366Y0060148D02*
X0088366Y0056745D01*
X0089500Y0056745D02*
X0087231Y0056745D01*
X0089500Y0059013D02*
X0088366Y0060148D01*
X0090914Y0060148D02*
X0093183Y0060148D01*
X0093183Y0058446D01*
X0092049Y0059013D01*
X0091482Y0059013D01*
X0090914Y0058446D01*
X0090914Y0057312D01*
X0091482Y0056745D01*
X0092616Y0056745D01*
X0093183Y0057312D01*
X0094598Y0057312D02*
X0095165Y0056745D01*
X0096299Y0056745D01*
X0096866Y0057312D01*
X0096866Y0059581D01*
X0096299Y0060148D01*
X0095165Y0060148D01*
X0094598Y0059581D01*
X0094598Y0057312D01*
X0094598Y0056745D02*
X0095732Y0057879D01*
X0061433Y0057312D02*
X0060866Y0056745D01*
X0059732Y0056745D01*
X0059165Y0057312D01*
X0059165Y0059581D01*
X0059732Y0060148D01*
X0060866Y0060148D01*
X0061433Y0059581D01*
X0061433Y0057312D01*
X0060299Y0057879D02*
X0059165Y0056745D01*
X0057750Y0058446D02*
X0055481Y0058446D01*
X0054067Y0059013D02*
X0053500Y0058446D01*
X0051798Y0058446D01*
X0051798Y0057312D02*
X0051798Y0059581D01*
X0052365Y0060148D01*
X0053500Y0060148D01*
X0054067Y0059581D01*
X0054067Y0059013D01*
X0054067Y0057312D02*
X0053500Y0056745D01*
X0052365Y0056745D01*
X0051798Y0057312D01*
X0056049Y0056745D02*
X0056049Y0060148D01*
X0057750Y0058446D01*
X0063359Y0040526D02*
X0064494Y0039959D01*
X0065628Y0038824D01*
X0063926Y0038824D01*
X0063359Y0038257D01*
X0063359Y0037690D01*
X0063926Y0037123D01*
X0065061Y0037123D01*
X0065628Y0037690D01*
X0065628Y0038824D01*
X0067042Y0038257D02*
X0067042Y0037690D01*
X0067610Y0037123D01*
X0068744Y0037123D01*
X0069311Y0037690D01*
X0070726Y0037123D02*
X0071860Y0038257D01*
X0071293Y0038257D02*
X0072994Y0038257D01*
X0072994Y0037123D02*
X0072994Y0040526D01*
X0071293Y0040526D01*
X0070726Y0039959D01*
X0070726Y0038824D01*
X0071293Y0038257D01*
X0069311Y0039959D02*
X0068744Y0040526D01*
X0067610Y0040526D01*
X0067042Y0039959D01*
X0067042Y0039391D01*
X0067610Y0038824D01*
X0067042Y0038257D01*
X0067610Y0038824D02*
X0068177Y0038824D01*
X0075792Y0033289D02*
X0076359Y0033856D01*
X0077494Y0033856D01*
X0078061Y0033289D01*
X0078061Y0031021D01*
X0075792Y0033289D01*
X0075792Y0031021D01*
X0076359Y0030454D01*
X0077494Y0030454D01*
X0078061Y0031021D01*
X0079475Y0031021D02*
X0080042Y0030454D01*
X0081177Y0030454D01*
X0081744Y0031021D01*
X0081744Y0032155D02*
X0080610Y0032722D01*
X0080042Y0032722D01*
X0079475Y0032155D01*
X0079475Y0031021D01*
X0081744Y0032155D02*
X0081744Y0033856D01*
X0079475Y0033856D01*
X0083158Y0033289D02*
X0083158Y0031021D01*
X0083726Y0030454D01*
X0084860Y0030454D01*
X0085427Y0031021D01*
X0085427Y0033289D01*
X0084860Y0033856D01*
X0083726Y0033856D01*
X0083158Y0033289D01*
X0084293Y0031588D02*
X0083158Y0030454D01*
X0149973Y0049501D02*
X0150541Y0048934D01*
X0151675Y0048934D01*
X0152242Y0049501D01*
X0152242Y0050635D02*
X0151108Y0051202D01*
X0150541Y0051202D01*
X0149973Y0050635D01*
X0149973Y0049501D01*
X0152242Y0050635D02*
X0152242Y0052337D01*
X0149973Y0052337D01*
X0153657Y0051770D02*
X0154224Y0052337D01*
X0155358Y0052337D01*
X0155925Y0051770D01*
X0157340Y0051770D02*
X0157340Y0050635D01*
X0157907Y0050068D01*
X0159608Y0050068D01*
X0158474Y0050068D02*
X0157340Y0048934D01*
X0155925Y0049501D02*
X0155358Y0048934D01*
X0154224Y0048934D01*
X0153657Y0049501D01*
X0153657Y0050068D01*
X0154224Y0050635D01*
X0154791Y0050635D01*
X0154224Y0050635D02*
X0153657Y0051202D01*
X0153657Y0051770D01*
X0157340Y0051770D02*
X0157907Y0052337D01*
X0159608Y0052337D01*
X0159608Y0048934D01*
X0175202Y0057896D02*
X0177470Y0055627D01*
X0177470Y0055060D01*
X0179452Y0055060D02*
X0179452Y0058463D01*
X0181153Y0056761D01*
X0178885Y0056761D01*
X0177470Y0058463D02*
X0175202Y0058463D01*
X0175202Y0057896D01*
X0182568Y0057896D02*
X0182568Y0055627D01*
X0183135Y0055060D01*
X0184269Y0055060D01*
X0184836Y0055627D01*
X0184836Y0057896D01*
X0184269Y0058463D01*
X0183135Y0058463D01*
X0182568Y0057896D01*
X0183702Y0056194D02*
X0182568Y0055060D01*
X0182763Y0060682D02*
X0183898Y0060682D01*
X0184465Y0061249D01*
X0184465Y0063518D01*
X0183898Y0064085D01*
X0182763Y0064085D01*
X0182196Y0063518D01*
X0182196Y0061249D01*
X0182763Y0060682D01*
X0182196Y0060682D02*
X0183330Y0061816D01*
X0180782Y0062383D02*
X0178513Y0062383D01*
X0177098Y0061816D02*
X0176531Y0062383D01*
X0175397Y0062383D01*
X0174830Y0061816D01*
X0174830Y0061249D01*
X0175397Y0060682D01*
X0176531Y0060682D01*
X0177098Y0061249D01*
X0177098Y0061816D01*
X0176531Y0062383D02*
X0177098Y0062950D01*
X0177098Y0063518D01*
X0176531Y0064085D01*
X0175397Y0064085D01*
X0174830Y0063518D01*
X0174830Y0062950D01*
X0175397Y0062383D01*
X0179080Y0060682D02*
X0179080Y0064085D01*
X0180782Y0062383D01*
X0151000Y0061549D02*
X0151000Y0059281D01*
X0150433Y0058713D01*
X0149299Y0058713D01*
X0148731Y0059281D01*
X0148731Y0061549D01*
X0149299Y0062116D01*
X0150433Y0062116D01*
X0151000Y0061549D01*
X0149866Y0059848D02*
X0148731Y0058713D01*
X0147317Y0060415D02*
X0145615Y0062116D01*
X0145615Y0058713D01*
X0145048Y0060415D02*
X0147317Y0060415D01*
X0143634Y0060415D02*
X0141932Y0060415D01*
X0141365Y0059848D01*
X0141365Y0059281D01*
X0141932Y0058713D01*
X0143067Y0058713D01*
X0143634Y0059281D01*
X0143634Y0060415D01*
X0142499Y0061549D01*
X0141365Y0062116D01*
X0156084Y0091477D02*
X0156084Y0094880D01*
X0157785Y0093179D01*
X0155517Y0093179D01*
X0159200Y0093179D02*
X0161468Y0093179D01*
X0159767Y0094880D01*
X0159767Y0091477D01*
X0162883Y0091477D02*
X0164017Y0092611D01*
X0162883Y0092044D02*
X0163450Y0091477D01*
X0164584Y0091477D01*
X0165151Y0092044D01*
X0165151Y0094313D01*
X0164584Y0094880D01*
X0163450Y0094880D01*
X0162883Y0094313D01*
X0162883Y0092044D01*
X0162883Y0096398D02*
X0164017Y0097533D01*
X0162883Y0096966D02*
X0163450Y0096398D01*
X0164584Y0096398D01*
X0165151Y0096966D01*
X0165151Y0099234D01*
X0164584Y0099801D01*
X0163450Y0099801D01*
X0162883Y0099234D01*
X0162883Y0096966D01*
X0161468Y0098100D02*
X0159200Y0098100D01*
X0157785Y0098100D02*
X0156651Y0098667D01*
X0156084Y0098667D01*
X0155517Y0098100D01*
X0155517Y0096966D01*
X0156084Y0096398D01*
X0157218Y0096398D01*
X0157785Y0096966D01*
X0157785Y0098100D02*
X0157785Y0099801D01*
X0155517Y0099801D01*
X0159767Y0099801D02*
X0161468Y0098100D01*
X0159767Y0099801D02*
X0159767Y0096398D01*
X0175814Y0095848D02*
X0175814Y0094714D01*
X0176381Y0094146D01*
X0177515Y0094146D01*
X0178083Y0094714D01*
X0178083Y0095848D02*
X0176948Y0096415D01*
X0176381Y0096415D01*
X0175814Y0095848D01*
X0175814Y0097549D02*
X0178083Y0097549D01*
X0178083Y0095848D01*
X0179497Y0095848D02*
X0180064Y0096415D01*
X0180631Y0096415D01*
X0181766Y0095848D01*
X0181766Y0097549D01*
X0179497Y0097549D01*
X0179497Y0095848D02*
X0179497Y0094714D01*
X0180064Y0094146D01*
X0181199Y0094146D01*
X0181766Y0094714D01*
X0183180Y0094714D02*
X0183747Y0094146D01*
X0184882Y0094146D01*
X0185449Y0094714D01*
X0185449Y0096982D01*
X0184882Y0097549D01*
X0183747Y0097549D01*
X0183180Y0096982D01*
X0183180Y0094714D01*
X0183180Y0094146D02*
X0184315Y0095281D01*
X0184102Y0111099D02*
X0184102Y0114502D01*
X0182401Y0114502D01*
X0181834Y0113935D01*
X0181834Y0112801D01*
X0182401Y0112234D01*
X0184102Y0112234D01*
X0182968Y0112234D02*
X0181834Y0111099D01*
X0180419Y0111666D02*
X0179852Y0111099D01*
X0178718Y0111099D01*
X0178150Y0111666D01*
X0178150Y0112234D01*
X0178718Y0112801D01*
X0179285Y0112801D01*
X0178718Y0112801D02*
X0178150Y0113368D01*
X0178150Y0113935D01*
X0178718Y0114502D01*
X0179852Y0114502D01*
X0180419Y0113935D01*
X0176736Y0113935D02*
X0176736Y0111666D01*
X0174467Y0113935D01*
X0174467Y0111666D01*
X0175034Y0111099D01*
X0176169Y0111099D01*
X0176736Y0111666D01*
X0176736Y0113935D02*
X0176169Y0114502D01*
X0175034Y0114502D01*
X0174467Y0113935D01*
X0165514Y0113060D02*
X0163812Y0113060D01*
X0163245Y0113627D01*
X0163245Y0114762D01*
X0163812Y0115329D01*
X0165514Y0115329D01*
X0165514Y0111926D01*
X0164380Y0113060D02*
X0163245Y0111926D01*
X0161831Y0111926D02*
X0159562Y0111926D01*
X0160696Y0111926D02*
X0160696Y0115329D01*
X0161831Y0114195D01*
X0158148Y0114195D02*
X0157580Y0113627D01*
X0155879Y0113627D01*
X0155879Y0112493D02*
X0155879Y0114762D01*
X0156446Y0115329D01*
X0157580Y0115329D01*
X0158148Y0114762D01*
X0158148Y0114195D01*
X0158148Y0112493D02*
X0157580Y0111926D01*
X0156446Y0111926D01*
X0155879Y0112493D01*
X0130953Y0116020D02*
X0130953Y0119423D01*
X0129251Y0119423D01*
X0128684Y0118856D01*
X0128684Y0117722D01*
X0129251Y0117155D01*
X0130953Y0117155D01*
X0129818Y0117155D02*
X0128684Y0116020D01*
X0127269Y0116020D02*
X0125001Y0118289D01*
X0125001Y0118856D01*
X0125568Y0119423D01*
X0126702Y0119423D01*
X0127269Y0118856D01*
X0127269Y0116020D02*
X0125001Y0116020D01*
X0123586Y0116588D02*
X0121318Y0118856D01*
X0121318Y0116588D01*
X0121885Y0116020D01*
X0123019Y0116020D01*
X0123586Y0116588D01*
X0123586Y0118856D01*
X0123019Y0119423D01*
X0121885Y0119423D01*
X0121318Y0118856D01*
X0121635Y0124942D02*
X0121068Y0125509D01*
X0121068Y0127777D01*
X0121635Y0128345D01*
X0122769Y0128345D01*
X0123336Y0127777D01*
X0123336Y0127210D01*
X0122769Y0126643D01*
X0121068Y0126643D01*
X0121635Y0124942D02*
X0122769Y0124942D01*
X0123336Y0125509D01*
X0124751Y0125509D02*
X0125318Y0124942D01*
X0126452Y0124942D01*
X0127019Y0125509D01*
X0127019Y0126643D02*
X0125885Y0127210D01*
X0125318Y0127210D01*
X0124751Y0126643D01*
X0124751Y0125509D01*
X0127019Y0126643D02*
X0127019Y0128345D01*
X0124751Y0128345D01*
X0124946Y0130564D02*
X0124379Y0131131D01*
X0124379Y0131698D01*
X0124946Y0132265D01*
X0126648Y0132265D01*
X0126648Y0131131D01*
X0126080Y0130564D01*
X0124946Y0130564D01*
X0122965Y0131131D02*
X0120696Y0133400D01*
X0120696Y0131131D01*
X0121263Y0130564D01*
X0122397Y0130564D01*
X0122965Y0131131D01*
X0122965Y0133400D01*
X0122397Y0133967D01*
X0121263Y0133967D01*
X0120696Y0133400D01*
X0124379Y0133967D02*
X0125513Y0133400D01*
X0126648Y0132265D01*
X0128062Y0131131D02*
X0128062Y0133400D01*
X0128629Y0133967D01*
X0129764Y0133967D01*
X0130331Y0133400D01*
X0130331Y0131131D01*
X0129764Y0130564D01*
X0128629Y0130564D01*
X0128062Y0131131D01*
X0128062Y0130564D02*
X0129196Y0131698D01*
X0129001Y0128345D02*
X0128434Y0127777D01*
X0128434Y0125509D01*
X0129001Y0124942D01*
X0130135Y0124942D01*
X0130703Y0125509D01*
X0130703Y0127777D01*
X0130135Y0128345D01*
X0129001Y0128345D01*
X0129568Y0126076D02*
X0128434Y0124942D01*
X0119254Y0141454D02*
X0119254Y0144856D01*
X0117553Y0144856D01*
X0116985Y0144289D01*
X0116985Y0143155D01*
X0117553Y0142588D01*
X0119254Y0142588D01*
X0118120Y0142588D02*
X0116985Y0141454D01*
X0115571Y0142021D02*
X0115004Y0141454D01*
X0113869Y0141454D01*
X0113302Y0142021D01*
X0113302Y0142588D01*
X0113869Y0143155D01*
X0114437Y0143155D01*
X0113869Y0143155D02*
X0113302Y0143722D01*
X0113302Y0144289D01*
X0113869Y0144856D01*
X0115004Y0144856D01*
X0115571Y0144289D01*
X0111888Y0143722D02*
X0110753Y0144856D01*
X0110753Y0141454D01*
X0109619Y0141454D02*
X0111888Y0141454D01*
X0104378Y0141611D02*
X0104378Y0145014D01*
X0102676Y0145014D01*
X0102109Y0144447D01*
X0102109Y0143312D01*
X0102676Y0142745D01*
X0104378Y0142745D01*
X0103244Y0142745D02*
X0102109Y0141611D01*
X0100695Y0142178D02*
X0100128Y0141611D01*
X0098993Y0141611D01*
X0098426Y0142178D01*
X0098426Y0142745D01*
X0098993Y0143312D01*
X0099560Y0143312D01*
X0098993Y0143312D02*
X0098426Y0143880D01*
X0098426Y0144447D01*
X0098993Y0145014D01*
X0100128Y0145014D01*
X0100695Y0144447D01*
X0097012Y0143312D02*
X0095310Y0145014D01*
X0095310Y0141611D01*
X0094743Y0143312D02*
X0097012Y0143312D01*
X0127210Y0145883D02*
X0129478Y0145883D01*
X0127210Y0148151D01*
X0127210Y0148718D01*
X0127777Y0149286D01*
X0128911Y0149286D01*
X0129478Y0148718D01*
X0130893Y0148718D02*
X0130893Y0146450D01*
X0131460Y0145883D01*
X0133161Y0145883D01*
X0133161Y0149286D01*
X0131460Y0149286D01*
X0130893Y0148718D01*
X0134576Y0148151D02*
X0135710Y0149286D01*
X0136844Y0148151D01*
X0136844Y0145883D01*
X0136844Y0147584D02*
X0134576Y0147584D01*
X0134576Y0148151D02*
X0134576Y0145883D01*
X0138259Y0147584D02*
X0138826Y0147017D01*
X0140528Y0147017D01*
X0140528Y0145883D02*
X0140528Y0149286D01*
X0138826Y0149286D01*
X0138259Y0148718D01*
X0138259Y0147584D01*
X0156167Y0147506D02*
X0174142Y0147506D01*
X0173054Y0149617D02*
X0171920Y0149617D01*
X0172487Y0149617D02*
X0172487Y0153020D01*
X0173054Y0153020D02*
X0171920Y0153020D01*
X0170599Y0152453D02*
X0170032Y0153020D01*
X0168897Y0153020D01*
X0168330Y0152453D01*
X0166916Y0153020D02*
X0166916Y0151319D01*
X0165781Y0151886D01*
X0165214Y0151886D01*
X0164647Y0151319D01*
X0164647Y0150184D01*
X0165214Y0149617D01*
X0166348Y0149617D01*
X0166916Y0150184D01*
X0168330Y0150184D02*
X0168897Y0149617D01*
X0170032Y0149617D01*
X0170599Y0150184D01*
X0170599Y0152453D01*
X0166916Y0153020D02*
X0164647Y0153020D01*
X0140528Y0155331D02*
X0140528Y0158734D01*
X0138826Y0158734D01*
X0138259Y0158167D01*
X0138259Y0157033D01*
X0138826Y0156466D01*
X0140528Y0156466D01*
X0136844Y0157033D02*
X0134576Y0157033D01*
X0134576Y0157600D02*
X0134576Y0155331D01*
X0133161Y0155331D02*
X0131460Y0155331D01*
X0130893Y0155899D01*
X0130893Y0158167D01*
X0131460Y0158734D01*
X0133161Y0158734D01*
X0133161Y0155331D01*
X0134576Y0157600D02*
X0135710Y0158734D01*
X0136844Y0157600D01*
X0136844Y0155331D01*
X0129478Y0155331D02*
X0127210Y0155331D01*
X0128344Y0155331D02*
X0128344Y0158734D01*
X0129478Y0157600D01*
X0156167Y0172424D02*
X0174142Y0172424D01*
X0168154Y0168924D02*
X0168156Y0169008D01*
X0168162Y0169093D01*
X0168172Y0169176D01*
X0168186Y0169260D01*
X0168203Y0169342D01*
X0168225Y0169424D01*
X0168250Y0169504D01*
X0168279Y0169583D01*
X0168312Y0169661D01*
X0168348Y0169737D01*
X0168388Y0169812D01*
X0168432Y0169884D01*
X0168478Y0169955D01*
X0168528Y0170023D01*
X0168581Y0170088D01*
X0168637Y0170151D01*
X0168696Y0170212D01*
X0168758Y0170269D01*
X0168822Y0170324D01*
X0168889Y0170375D01*
X0168958Y0170424D01*
X0169030Y0170469D01*
X0169103Y0170510D01*
X0169178Y0170548D01*
X0169255Y0170583D01*
X0169334Y0170614D01*
X0169414Y0170641D01*
X0169495Y0170664D01*
X0169577Y0170684D01*
X0169660Y0170700D01*
X0169743Y0170712D01*
X0169828Y0170720D01*
X0169912Y0170724D01*
X0169996Y0170724D01*
X0170080Y0170720D01*
X0170165Y0170712D01*
X0170248Y0170700D01*
X0170331Y0170684D01*
X0170413Y0170664D01*
X0170494Y0170641D01*
X0170574Y0170614D01*
X0170653Y0170583D01*
X0170730Y0170548D01*
X0170805Y0170510D01*
X0170878Y0170469D01*
X0170950Y0170424D01*
X0171019Y0170375D01*
X0171086Y0170324D01*
X0171150Y0170269D01*
X0171212Y0170212D01*
X0171271Y0170151D01*
X0171327Y0170088D01*
X0171380Y0170023D01*
X0171430Y0169955D01*
X0171476Y0169884D01*
X0171520Y0169812D01*
X0171560Y0169737D01*
X0171596Y0169661D01*
X0171629Y0169583D01*
X0171658Y0169504D01*
X0171683Y0169424D01*
X0171705Y0169342D01*
X0171722Y0169260D01*
X0171736Y0169176D01*
X0171746Y0169093D01*
X0171752Y0169008D01*
X0171754Y0168924D01*
X0171752Y0168840D01*
X0171746Y0168755D01*
X0171736Y0168672D01*
X0171722Y0168588D01*
X0171705Y0168506D01*
X0171683Y0168424D01*
X0171658Y0168344D01*
X0171629Y0168265D01*
X0171596Y0168187D01*
X0171560Y0168111D01*
X0171520Y0168036D01*
X0171476Y0167964D01*
X0171430Y0167893D01*
X0171380Y0167825D01*
X0171327Y0167760D01*
X0171271Y0167697D01*
X0171212Y0167636D01*
X0171150Y0167579D01*
X0171086Y0167524D01*
X0171019Y0167473D01*
X0170950Y0167424D01*
X0170878Y0167379D01*
X0170805Y0167338D01*
X0170730Y0167300D01*
X0170653Y0167265D01*
X0170574Y0167234D01*
X0170494Y0167207D01*
X0170413Y0167184D01*
X0170331Y0167164D01*
X0170248Y0167148D01*
X0170165Y0167136D01*
X0170080Y0167128D01*
X0169996Y0167124D01*
X0169912Y0167124D01*
X0169828Y0167128D01*
X0169743Y0167136D01*
X0169660Y0167148D01*
X0169577Y0167164D01*
X0169495Y0167184D01*
X0169414Y0167207D01*
X0169334Y0167234D01*
X0169255Y0167265D01*
X0169178Y0167300D01*
X0169103Y0167338D01*
X0169030Y0167379D01*
X0168958Y0167424D01*
X0168889Y0167473D01*
X0168822Y0167524D01*
X0168758Y0167579D01*
X0168696Y0167636D01*
X0168637Y0167697D01*
X0168581Y0167760D01*
X0168528Y0167825D01*
X0168478Y0167893D01*
X0168432Y0167964D01*
X0168388Y0168036D01*
X0168348Y0168111D01*
X0168312Y0168187D01*
X0168279Y0168265D01*
X0168250Y0168344D01*
X0168225Y0168424D01*
X0168203Y0168506D01*
X0168186Y0168588D01*
X0168172Y0168672D01*
X0168162Y0168755D01*
X0168156Y0168840D01*
X0168154Y0168924D01*
X0210013Y0163557D02*
X0210013Y0162990D01*
X0212281Y0160721D01*
X0212281Y0160154D01*
X0213696Y0160154D02*
X0215965Y0160154D01*
X0214830Y0160154D02*
X0214830Y0163557D01*
X0215965Y0162423D01*
X0217379Y0162990D02*
X0217379Y0161856D01*
X0217946Y0161289D01*
X0219648Y0161289D01*
X0218513Y0161289D02*
X0217379Y0160154D01*
X0219648Y0160154D02*
X0219648Y0163557D01*
X0217946Y0163557D01*
X0217379Y0162990D01*
X0212281Y0163557D02*
X0210013Y0163557D01*
X0209846Y0150699D02*
X0210980Y0150699D01*
X0211547Y0150132D01*
X0209846Y0150699D02*
X0209279Y0150132D01*
X0209279Y0149565D01*
X0211547Y0147296D01*
X0209279Y0147296D01*
X0212962Y0148998D02*
X0215230Y0148998D01*
X0213529Y0150699D01*
X0213529Y0147296D01*
X0216645Y0147296D02*
X0217779Y0148430D01*
X0217212Y0147296D02*
X0218346Y0147296D01*
X0218913Y0147863D01*
X0218913Y0150132D01*
X0218346Y0150699D01*
X0217212Y0150699D01*
X0216645Y0150132D01*
X0216645Y0147863D01*
X0217212Y0147296D01*
X0196026Y0140919D02*
X0194324Y0140919D01*
X0193757Y0140352D01*
X0193757Y0139218D01*
X0194324Y0138651D01*
X0196026Y0138651D01*
X0196026Y0137517D02*
X0196026Y0140919D01*
X0194891Y0138651D02*
X0193757Y0137517D01*
X0192343Y0137517D02*
X0190074Y0137517D01*
X0191208Y0137517D02*
X0191208Y0140919D01*
X0192343Y0139785D01*
X0188659Y0139785D02*
X0188659Y0140352D01*
X0188092Y0140919D01*
X0186958Y0140919D01*
X0186391Y0140352D01*
X0186391Y0139785D01*
X0186958Y0139218D01*
X0188092Y0139218D01*
X0188659Y0139785D01*
X0188092Y0139218D02*
X0188659Y0138651D01*
X0188659Y0138084D01*
X0188092Y0137517D01*
X0186958Y0137517D01*
X0186391Y0138084D01*
X0186391Y0138651D01*
X0186958Y0139218D01*
X0187208Y0135935D02*
X0186641Y0135368D01*
X0188909Y0133099D01*
X0188342Y0132532D01*
X0187208Y0132532D01*
X0186641Y0133099D01*
X0186641Y0135368D01*
X0187208Y0135935D02*
X0188342Y0135935D01*
X0188909Y0135368D01*
X0188909Y0133099D01*
X0190324Y0134234D02*
X0192593Y0134234D01*
X0190891Y0135935D01*
X0190891Y0132532D01*
X0190641Y0131077D02*
X0190074Y0130510D01*
X0190074Y0129943D01*
X0190641Y0129375D01*
X0190074Y0128808D01*
X0190074Y0128241D01*
X0190641Y0127674D01*
X0191775Y0127674D01*
X0192343Y0128241D01*
X0193757Y0127674D02*
X0194891Y0128808D01*
X0194324Y0128808D02*
X0196026Y0128808D01*
X0196026Y0127674D02*
X0196026Y0131077D01*
X0194324Y0131077D01*
X0193757Y0130510D01*
X0193757Y0129375D01*
X0194324Y0128808D01*
X0192343Y0130510D02*
X0191775Y0131077D01*
X0190641Y0131077D01*
X0190641Y0129375D02*
X0191208Y0129375D01*
X0188659Y0130510D02*
X0188092Y0131077D01*
X0186958Y0131077D01*
X0186391Y0130510D01*
X0186391Y0129943D01*
X0188659Y0127674D01*
X0186391Y0127674D01*
X0194007Y0132532D02*
X0195141Y0133667D01*
X0194007Y0133099D02*
X0194574Y0132532D01*
X0195709Y0132532D01*
X0196276Y0133099D01*
X0196276Y0135368D01*
X0195709Y0135935D01*
X0194574Y0135935D01*
X0194007Y0135368D01*
X0194007Y0133099D01*
X0209279Y0134501D02*
X0211547Y0134501D01*
X0210413Y0134501D02*
X0210413Y0137904D01*
X0211547Y0136769D01*
X0212962Y0136202D02*
X0215230Y0136202D01*
X0213529Y0137904D01*
X0213529Y0134501D01*
X0216645Y0134501D02*
X0217779Y0135635D01*
X0216645Y0135068D02*
X0217212Y0134501D01*
X0218346Y0134501D01*
X0218913Y0135068D01*
X0218913Y0137337D01*
X0218346Y0137904D01*
X0217212Y0137904D01*
X0216645Y0137337D01*
X0216645Y0135068D01*
X0265084Y0144875D02*
X0267352Y0144875D01*
X0266218Y0144875D02*
X0266218Y0148278D01*
X0267352Y0147143D01*
X0268767Y0144875D02*
X0271035Y0144875D01*
X0269901Y0144875D02*
X0269901Y0148278D01*
X0271035Y0147143D01*
X0272450Y0148278D02*
X0273584Y0148278D01*
X0273017Y0148278D02*
X0273017Y0145442D01*
X0273584Y0144875D01*
X0274151Y0144875D01*
X0274719Y0145442D01*
X0276133Y0145442D02*
X0276700Y0144875D01*
X0277835Y0144875D01*
X0278402Y0145442D01*
X0277835Y0146576D02*
X0276700Y0146576D01*
X0276133Y0146009D01*
X0276133Y0145442D01*
X0277835Y0146576D02*
X0278402Y0147143D01*
X0278402Y0147711D01*
X0277835Y0148278D01*
X0276700Y0148278D01*
X0276133Y0147711D01*
X0276233Y0136187D02*
X0276233Y0133351D01*
X0276801Y0132784D01*
X0277368Y0132784D01*
X0277935Y0133351D01*
X0279349Y0133351D02*
X0279917Y0132784D01*
X0281051Y0132784D01*
X0281618Y0133351D01*
X0281051Y0134486D02*
X0279917Y0134486D01*
X0279349Y0133919D01*
X0279349Y0133351D01*
X0281051Y0134486D02*
X0281618Y0135053D01*
X0281618Y0135620D01*
X0281051Y0136187D01*
X0279917Y0136187D01*
X0279349Y0135620D01*
X0276801Y0136187D02*
X0275666Y0136187D01*
X0274252Y0135053D02*
X0273117Y0136187D01*
X0273117Y0132784D01*
X0271983Y0132784D02*
X0274252Y0132784D01*
X0270569Y0132784D02*
X0268300Y0135053D01*
X0268300Y0135620D01*
X0268867Y0136187D01*
X0270001Y0136187D01*
X0270569Y0135620D01*
X0270569Y0132784D02*
X0268300Y0132784D01*
X0220632Y0114345D02*
X0218931Y0114345D01*
X0218363Y0113777D01*
X0218363Y0112643D01*
X0218931Y0112076D01*
X0220632Y0112076D01*
X0220632Y0110942D02*
X0220632Y0114345D01*
X0219498Y0112076D02*
X0218363Y0110942D01*
X0216949Y0110942D02*
X0214680Y0113210D01*
X0214680Y0113777D01*
X0215247Y0114345D01*
X0216382Y0114345D01*
X0216949Y0113777D01*
X0216949Y0110942D02*
X0214680Y0110942D01*
X0213266Y0111509D02*
X0212699Y0110942D01*
X0211564Y0110942D01*
X0210997Y0111509D01*
X0210997Y0113777D01*
X0211564Y0114345D01*
X0212699Y0114345D01*
X0213266Y0113777D01*
X0213266Y0113210D01*
X0212699Y0112643D01*
X0210997Y0112643D01*
X0305045Y0165574D02*
X0305612Y0165007D01*
X0307880Y0165007D01*
X0308448Y0165574D01*
X0308448Y0166708D01*
X0307880Y0167275D01*
X0305612Y0167275D01*
X0305045Y0166708D01*
X0305045Y0165574D01*
X0306179Y0166141D02*
X0305045Y0167275D01*
X0305612Y0168690D02*
X0305045Y0169257D01*
X0305045Y0170391D01*
X0305612Y0170958D01*
X0306179Y0170958D01*
X0306746Y0170391D01*
X0306746Y0168690D01*
X0305612Y0168690D01*
X0306746Y0168690D02*
X0307880Y0169824D01*
X0308448Y0170958D01*
X0308668Y0172513D02*
X0308668Y0174214D01*
X0308101Y0174781D01*
X0306967Y0174781D01*
X0306400Y0174214D01*
X0306400Y0172513D01*
X0306400Y0173647D02*
X0305265Y0174781D01*
X0305265Y0176196D02*
X0305265Y0178464D01*
X0305265Y0177330D02*
X0308668Y0177330D01*
X0307534Y0176196D01*
X0310186Y0176196D02*
X0310186Y0178464D01*
X0310186Y0177330D02*
X0313589Y0177330D01*
X0312455Y0176196D01*
X0311888Y0174781D02*
X0311321Y0174214D01*
X0311321Y0172513D01*
X0311321Y0173647D02*
X0310186Y0174781D01*
X0311888Y0174781D02*
X0313022Y0174781D01*
X0313589Y0174214D01*
X0313589Y0172513D01*
X0310186Y0172513D01*
X0308668Y0172513D02*
X0305265Y0172513D01*
X0309966Y0170391D02*
X0309966Y0169257D01*
X0310533Y0168690D01*
X0311667Y0168690D02*
X0312235Y0169824D01*
X0312235Y0170391D01*
X0311667Y0170958D01*
X0310533Y0170958D01*
X0309966Y0170391D01*
X0311667Y0168690D02*
X0313369Y0168690D01*
X0313369Y0170958D01*
X0312802Y0167275D02*
X0310533Y0167275D01*
X0309966Y0166708D01*
X0309966Y0165574D01*
X0310533Y0165007D01*
X0312802Y0165007D01*
X0313369Y0165574D01*
X0313369Y0166708D01*
X0312802Y0167275D01*
X0311100Y0166141D02*
X0309966Y0167275D01*
X0310754Y0179879D02*
X0310186Y0180446D01*
X0310186Y0181580D01*
X0310754Y0182147D01*
X0311888Y0182147D01*
X0312455Y0181580D01*
X0312455Y0181013D01*
X0311888Y0179879D01*
X0313589Y0179879D01*
X0313589Y0182147D01*
X0308668Y0182147D02*
X0308101Y0181013D01*
X0306967Y0179879D01*
X0306967Y0181580D01*
X0306400Y0182147D01*
X0305832Y0182147D01*
X0305265Y0181580D01*
X0305265Y0180446D01*
X0305832Y0179879D01*
X0306967Y0179879D01*
X0256000Y0180095D02*
X0255433Y0179528D01*
X0254298Y0179528D01*
X0253731Y0180095D01*
X0253731Y0180663D01*
X0254298Y0181230D01*
X0255433Y0181230D01*
X0256000Y0181797D01*
X0256000Y0182364D01*
X0255433Y0182931D01*
X0254298Y0182931D01*
X0253731Y0182364D01*
X0251182Y0182931D02*
X0250048Y0182931D01*
X0250615Y0182931D02*
X0250615Y0180095D01*
X0251182Y0179528D01*
X0251750Y0179528D01*
X0252317Y0180095D01*
X0248634Y0179528D02*
X0246365Y0179528D01*
X0247499Y0179528D02*
X0247499Y0182931D01*
X0248634Y0181797D01*
X0244950Y0182364D02*
X0244383Y0182931D01*
X0243249Y0182931D01*
X0242682Y0182364D01*
X0242682Y0181797D01*
X0243249Y0181230D01*
X0242682Y0180663D01*
X0242682Y0180095D01*
X0243249Y0179528D01*
X0244383Y0179528D01*
X0244950Y0180095D01*
X0243816Y0181230D02*
X0243249Y0181230D01*
X0395924Y0180864D02*
X0396491Y0181431D01*
X0397625Y0181431D01*
X0398193Y0180864D01*
X0395924Y0180864D02*
X0395924Y0180297D01*
X0398193Y0178028D01*
X0395924Y0178028D01*
X0396491Y0176510D02*
X0398193Y0174809D01*
X0395924Y0174809D01*
X0396491Y0173107D02*
X0396491Y0176510D01*
X0399607Y0178028D02*
X0401876Y0178028D01*
X0400741Y0178028D02*
X0400741Y0181431D01*
X0401876Y0180297D01*
X0403290Y0180864D02*
X0403290Y0179730D01*
X0403857Y0179163D01*
X0405559Y0179163D01*
X0404425Y0179163D02*
X0403290Y0178028D01*
X0403857Y0176510D02*
X0403290Y0175943D01*
X0403290Y0174809D01*
X0403857Y0174241D01*
X0405559Y0174241D01*
X0405559Y0173107D02*
X0405559Y0176510D01*
X0403857Y0176510D01*
X0405559Y0178028D02*
X0405559Y0181431D01*
X0403857Y0181431D01*
X0403290Y0180864D01*
X0400174Y0176510D02*
X0401876Y0174809D01*
X0399607Y0174809D01*
X0400174Y0173107D02*
X0400174Y0176510D01*
X0403290Y0173107D02*
X0404425Y0174241D01*
X0391892Y0055290D02*
X0390190Y0055290D01*
X0389623Y0054722D01*
X0389623Y0053588D01*
X0390190Y0053021D01*
X0391892Y0053021D01*
X0391892Y0051887D02*
X0391892Y0055290D01*
X0390758Y0053021D02*
X0389623Y0051887D01*
X0388209Y0051887D02*
X0385940Y0051887D01*
X0387074Y0051887D02*
X0387074Y0055290D01*
X0388209Y0054155D01*
X0384526Y0054155D02*
X0383391Y0055290D01*
X0383391Y0051887D01*
X0382257Y0051887D02*
X0384526Y0051887D01*
X0377016Y0052044D02*
X0377016Y0055447D01*
X0375314Y0055447D01*
X0374747Y0054880D01*
X0374747Y0053746D01*
X0375314Y0053178D01*
X0377016Y0053178D01*
X0375881Y0053178D02*
X0374747Y0052044D01*
X0373332Y0052044D02*
X0371064Y0052044D01*
X0372198Y0052044D02*
X0372198Y0055447D01*
X0373332Y0054313D01*
X0369649Y0054880D02*
X0369082Y0055447D01*
X0367948Y0055447D01*
X0367381Y0054880D01*
X0367381Y0054313D01*
X0367948Y0053746D01*
X0367381Y0053178D01*
X0367381Y0052611D01*
X0367948Y0052044D01*
X0369082Y0052044D01*
X0369649Y0052611D01*
X0368515Y0053746D02*
X0367948Y0053746D01*
X0393690Y0051547D02*
X0394258Y0052114D01*
X0394825Y0052114D01*
X0395392Y0051547D01*
X0395392Y0049845D01*
X0394258Y0049845D01*
X0393690Y0050412D01*
X0393690Y0051547D01*
X0395392Y0049845D02*
X0396526Y0050980D01*
X0397093Y0052114D01*
X0395392Y0048431D02*
X0395392Y0046162D01*
X0397093Y0047864D01*
X0393690Y0047864D01*
X0393690Y0044748D02*
X0394825Y0043613D01*
X0394825Y0044180D02*
X0394825Y0042479D01*
X0393690Y0042479D02*
X0397093Y0042479D01*
X0397093Y0044180D01*
X0396526Y0044748D01*
X0395392Y0044748D01*
X0394825Y0044180D01*
X0401564Y0044748D02*
X0402699Y0043613D01*
X0402699Y0044180D02*
X0402699Y0042479D01*
X0401564Y0042479D02*
X0404967Y0042479D01*
X0404967Y0044180D01*
X0404400Y0044748D01*
X0403266Y0044748D01*
X0402699Y0044180D01*
X0403266Y0046162D02*
X0403266Y0048431D01*
X0404967Y0047864D02*
X0403266Y0046162D01*
X0401564Y0047864D02*
X0404967Y0047864D01*
X0404967Y0049845D02*
X0404967Y0052114D01*
X0404400Y0052114D01*
X0402132Y0049845D01*
X0401564Y0049845D01*
X0408981Y0050107D02*
X0411250Y0053510D01*
X0412664Y0052943D02*
X0412664Y0051809D01*
X0413231Y0051241D01*
X0414933Y0051241D01*
X0414933Y0050107D02*
X0414933Y0053510D01*
X0413231Y0053510D01*
X0412664Y0052943D01*
X0413799Y0051241D02*
X0412664Y0050107D01*
X0411250Y0050107D02*
X0408981Y0053510D01*
X0060637Y0111489D02*
X0060637Y0113190D01*
X0060069Y0113758D01*
X0058935Y0113758D01*
X0058368Y0113190D01*
X0058368Y0111489D01*
X0058368Y0112623D02*
X0057234Y0113758D01*
X0057234Y0115172D02*
X0059502Y0117441D01*
X0060069Y0117441D01*
X0060637Y0116874D01*
X0060637Y0115739D01*
X0060069Y0115172D01*
X0057234Y0115172D02*
X0057234Y0117441D01*
X0057801Y0118855D02*
X0057234Y0119422D01*
X0057234Y0120557D01*
X0057801Y0121124D01*
X0058935Y0121124D01*
X0059502Y0120557D01*
X0059502Y0119990D01*
X0058935Y0118855D01*
X0060637Y0118855D01*
X0060637Y0121124D01*
X0055715Y0120557D02*
X0055148Y0121124D01*
X0054581Y0121124D01*
X0054014Y0120557D01*
X0054014Y0119422D01*
X0054581Y0118855D01*
X0055148Y0118855D01*
X0055715Y0119422D01*
X0055715Y0120557D01*
X0054014Y0120557D02*
X0053447Y0121124D01*
X0052880Y0121124D01*
X0052312Y0120557D01*
X0052312Y0119422D01*
X0052880Y0118855D01*
X0053447Y0118855D01*
X0054014Y0119422D01*
X0054581Y0117441D02*
X0055148Y0117441D01*
X0055715Y0116874D01*
X0055715Y0115739D01*
X0055148Y0115172D01*
X0055148Y0113758D02*
X0054014Y0113758D01*
X0053447Y0113190D01*
X0053447Y0111489D01*
X0053447Y0112623D02*
X0052312Y0113758D01*
X0052312Y0115172D02*
X0054581Y0117441D01*
X0052312Y0117441D02*
X0052312Y0115172D01*
X0055148Y0113758D02*
X0055715Y0113190D01*
X0055715Y0111489D01*
X0052312Y0111489D01*
X0057234Y0111489D02*
X0060637Y0111489D01*
X0047291Y0111099D02*
X0047291Y0114502D01*
X0045590Y0114502D01*
X0045023Y0113935D01*
X0045023Y0112801D01*
X0045590Y0112234D01*
X0047291Y0112234D01*
X0046157Y0112234D02*
X0045023Y0111099D01*
X0043608Y0111666D02*
X0043041Y0111099D01*
X0041907Y0111099D01*
X0041339Y0111666D01*
X0041339Y0112801D01*
X0041907Y0113368D01*
X0042474Y0113368D01*
X0043608Y0112801D01*
X0043608Y0114502D01*
X0041339Y0114502D01*
X0039925Y0114502D02*
X0039925Y0112801D01*
X0038791Y0113368D01*
X0038223Y0113368D01*
X0037656Y0112801D01*
X0037656Y0111666D01*
X0038223Y0111099D01*
X0039358Y0111099D01*
X0039925Y0111666D01*
X0039925Y0114502D02*
X0037656Y0114502D01*
X0038223Y0135706D02*
X0039358Y0135706D01*
X0039925Y0136273D01*
X0041339Y0136273D02*
X0041907Y0135706D01*
X0043041Y0135706D01*
X0043608Y0136273D01*
X0043608Y0137407D02*
X0042474Y0137974D01*
X0041907Y0137974D01*
X0041339Y0137407D01*
X0041339Y0136273D01*
X0043608Y0137407D02*
X0043608Y0139108D01*
X0041339Y0139108D01*
X0039925Y0138541D02*
X0039358Y0139108D01*
X0038223Y0139108D01*
X0037656Y0138541D01*
X0037656Y0137974D01*
X0038223Y0137407D01*
X0037656Y0136840D01*
X0037656Y0136273D01*
X0038223Y0135706D01*
X0038223Y0137407D02*
X0038791Y0137407D01*
X0045023Y0137407D02*
X0045023Y0138541D01*
X0045590Y0139108D01*
X0047291Y0139108D01*
X0047291Y0135706D01*
X0047291Y0136840D02*
X0045590Y0136840D01*
X0045023Y0137407D01*
X0046157Y0136840D02*
X0045023Y0135706D01*
D15*
X0044091Y0132406D03*
X0067713Y0113705D03*
X0080509Y0113705D03*
X0101178Y0116657D03*
X0135627Y0112720D03*
X0148422Y0112720D03*
X0190745Y0112720D03*
X0203540Y0112720D03*
X0190745Y0091067D03*
X0167123Y0077287D03*
X0154327Y0077287D03*
X0135627Y0091067D03*
X0067713Y0092051D03*
X0044091Y0086146D03*
X0044091Y0107799D03*
X0101178Y0138311D03*
X0113973Y0138311D03*
X0190745Y0144217D03*
X0190745Y0165870D03*
X0203540Y0165870D03*
X0320666Y0157996D03*
X0334446Y0157996D03*
X0334446Y0179650D03*
X0320666Y0179650D03*
X0401375Y0169807D03*
X0401375Y0161933D03*
X0397438Y0132406D03*
X0418107Y0130437D03*
X0382674Y0080240D03*
X0368894Y0080240D03*
X0368894Y0058587D03*
X0383658Y0058587D03*
X0563776Y0110555D03*
X0563776Y0132406D03*
X0154327Y0055634D03*
X0080509Y0065476D03*
X0067713Y0065476D03*
X0067713Y0043823D03*
D16*
X0337398Y0089098D03*
X0395469Y0059571D03*
X0403343Y0059571D03*
X0419091Y0061539D03*
X0456493Y0061539D03*
X0439760Y0080240D03*
X0432871Y0080240D03*
X0345272Y0163902D03*
D17*
X0427792Y0040634D03*
D18*
X0416067Y0053541D02*
X0413598Y0053541D01*
X0414833Y0054775D02*
X0414833Y0052307D01*
X0466748Y0053541D02*
X0469217Y0053541D01*
X0467982Y0054775D02*
X0467982Y0052307D01*
X0555778Y0097831D02*
X0555778Y0100300D01*
X0557012Y0099065D02*
X0554543Y0099065D01*
X0555778Y0119681D02*
X0555778Y0122150D01*
X0557012Y0120916D02*
X0554543Y0120916D01*
D19*
X0466729Y0062130D03*
X0462005Y0062130D03*
X0413579Y0062130D03*
X0408855Y0062130D03*
D20*
X0411217Y0062130D03*
X0464367Y0062130D03*
X0564367Y0102681D03*
X0564367Y0124531D03*
D21*
X0493110Y0130437D02*
X0492710Y0130437D01*
X0436023Y0121579D02*
X0435623Y0121579D01*
X0431886Y0130237D02*
X0431886Y0130637D01*
X0397438Y0125716D02*
X0397438Y0125316D01*
X0397438Y0139095D02*
X0397438Y0139495D01*
X0334646Y0137327D02*
X0334246Y0137327D01*
X0328740Y0137327D02*
X0328340Y0137327D01*
X0381490Y0165870D02*
X0381890Y0165870D01*
X0412201Y0099141D02*
X0412201Y0098741D01*
X0412201Y0093235D02*
X0412201Y0092835D01*
X0426765Y0080240D02*
X0427165Y0080240D01*
X0445466Y0080240D02*
X0445866Y0080240D01*
X0462198Y0094020D02*
X0462598Y0094020D01*
X0419091Y0046976D02*
X0419091Y0046576D01*
X0182086Y0160949D02*
X0181686Y0160949D01*
D22*
X0142060Y0159768D02*
X0142062Y0159894D01*
X0142068Y0160020D01*
X0142078Y0160146D01*
X0142092Y0160272D01*
X0142110Y0160397D01*
X0142132Y0160521D01*
X0142157Y0160645D01*
X0142187Y0160768D01*
X0142220Y0160889D01*
X0142258Y0161010D01*
X0142299Y0161129D01*
X0142344Y0161248D01*
X0142392Y0161364D01*
X0142444Y0161479D01*
X0142500Y0161592D01*
X0142560Y0161704D01*
X0142623Y0161813D01*
X0142689Y0161921D01*
X0142758Y0162026D01*
X0142831Y0162129D01*
X0142908Y0162230D01*
X0142987Y0162328D01*
X0143069Y0162424D01*
X0143155Y0162517D01*
X0143243Y0162608D01*
X0143334Y0162695D01*
X0143428Y0162780D01*
X0143524Y0162861D01*
X0143623Y0162940D01*
X0143724Y0163015D01*
X0143828Y0163087D01*
X0143934Y0163156D01*
X0144042Y0163222D01*
X0144152Y0163284D01*
X0144264Y0163342D01*
X0144377Y0163397D01*
X0144493Y0163448D01*
X0144610Y0163496D01*
X0144728Y0163540D01*
X0144848Y0163580D01*
X0144969Y0163616D01*
X0145091Y0163649D01*
X0145214Y0163678D01*
X0145338Y0163702D01*
X0145462Y0163723D01*
X0145587Y0163740D01*
X0145713Y0163753D01*
X0145839Y0163762D01*
X0145965Y0163767D01*
X0146092Y0163768D01*
X0146218Y0163765D01*
X0146344Y0163758D01*
X0146470Y0163747D01*
X0146595Y0163732D01*
X0146720Y0163713D01*
X0146844Y0163690D01*
X0146968Y0163664D01*
X0147090Y0163633D01*
X0147212Y0163599D01*
X0147332Y0163560D01*
X0147451Y0163518D01*
X0147569Y0163473D01*
X0147685Y0163423D01*
X0147800Y0163370D01*
X0147912Y0163313D01*
X0148023Y0163253D01*
X0148132Y0163189D01*
X0148239Y0163122D01*
X0148344Y0163052D01*
X0148447Y0162978D01*
X0148547Y0162901D01*
X0148645Y0162821D01*
X0148740Y0162738D01*
X0148832Y0162652D01*
X0148922Y0162563D01*
X0149009Y0162471D01*
X0149092Y0162377D01*
X0149173Y0162280D01*
X0149251Y0162180D01*
X0149326Y0162078D01*
X0149397Y0161974D01*
X0149465Y0161867D01*
X0149529Y0161759D01*
X0149590Y0161648D01*
X0149648Y0161536D01*
X0149702Y0161422D01*
X0149752Y0161306D01*
X0149799Y0161189D01*
X0149842Y0161070D01*
X0149881Y0160950D01*
X0149917Y0160829D01*
X0149948Y0160706D01*
X0149976Y0160583D01*
X0150000Y0160459D01*
X0150020Y0160334D01*
X0150036Y0160209D01*
X0150048Y0160083D01*
X0150056Y0159957D01*
X0150060Y0159831D01*
X0150060Y0159705D01*
X0150056Y0159579D01*
X0150048Y0159453D01*
X0150036Y0159327D01*
X0150020Y0159202D01*
X0150000Y0159077D01*
X0149976Y0158953D01*
X0149948Y0158830D01*
X0149917Y0158707D01*
X0149881Y0158586D01*
X0149842Y0158466D01*
X0149799Y0158347D01*
X0149752Y0158230D01*
X0149702Y0158114D01*
X0149648Y0158000D01*
X0149590Y0157888D01*
X0149529Y0157777D01*
X0149465Y0157669D01*
X0149397Y0157562D01*
X0149326Y0157458D01*
X0149251Y0157356D01*
X0149173Y0157256D01*
X0149092Y0157159D01*
X0149009Y0157065D01*
X0148922Y0156973D01*
X0148832Y0156884D01*
X0148740Y0156798D01*
X0148645Y0156715D01*
X0148547Y0156635D01*
X0148447Y0156558D01*
X0148344Y0156484D01*
X0148239Y0156414D01*
X0148132Y0156347D01*
X0148023Y0156283D01*
X0147912Y0156223D01*
X0147800Y0156166D01*
X0147685Y0156113D01*
X0147569Y0156063D01*
X0147451Y0156018D01*
X0147332Y0155976D01*
X0147212Y0155937D01*
X0147090Y0155903D01*
X0146968Y0155872D01*
X0146844Y0155846D01*
X0146720Y0155823D01*
X0146595Y0155804D01*
X0146470Y0155789D01*
X0146344Y0155778D01*
X0146218Y0155771D01*
X0146092Y0155768D01*
X0145965Y0155769D01*
X0145839Y0155774D01*
X0145713Y0155783D01*
X0145587Y0155796D01*
X0145462Y0155813D01*
X0145338Y0155834D01*
X0145214Y0155858D01*
X0145091Y0155887D01*
X0144969Y0155920D01*
X0144848Y0155956D01*
X0144728Y0155996D01*
X0144610Y0156040D01*
X0144493Y0156088D01*
X0144377Y0156139D01*
X0144264Y0156194D01*
X0144152Y0156252D01*
X0144042Y0156314D01*
X0143934Y0156380D01*
X0143828Y0156449D01*
X0143724Y0156521D01*
X0143623Y0156596D01*
X0143524Y0156675D01*
X0143428Y0156756D01*
X0143334Y0156841D01*
X0143243Y0156928D01*
X0143155Y0157019D01*
X0143069Y0157112D01*
X0142987Y0157208D01*
X0142908Y0157306D01*
X0142831Y0157407D01*
X0142758Y0157510D01*
X0142689Y0157615D01*
X0142623Y0157723D01*
X0142560Y0157832D01*
X0142500Y0157944D01*
X0142444Y0158057D01*
X0142392Y0158172D01*
X0142344Y0158288D01*
X0142299Y0158407D01*
X0142258Y0158526D01*
X0142220Y0158647D01*
X0142187Y0158768D01*
X0142157Y0158891D01*
X0142132Y0159015D01*
X0142110Y0159139D01*
X0142092Y0159264D01*
X0142078Y0159390D01*
X0142068Y0159516D01*
X0142062Y0159642D01*
X0142060Y0159768D01*
X0142060Y0150319D02*
X0142062Y0150445D01*
X0142068Y0150571D01*
X0142078Y0150697D01*
X0142092Y0150823D01*
X0142110Y0150948D01*
X0142132Y0151072D01*
X0142157Y0151196D01*
X0142187Y0151319D01*
X0142220Y0151440D01*
X0142258Y0151561D01*
X0142299Y0151680D01*
X0142344Y0151799D01*
X0142392Y0151915D01*
X0142444Y0152030D01*
X0142500Y0152143D01*
X0142560Y0152255D01*
X0142623Y0152364D01*
X0142689Y0152472D01*
X0142758Y0152577D01*
X0142831Y0152680D01*
X0142908Y0152781D01*
X0142987Y0152879D01*
X0143069Y0152975D01*
X0143155Y0153068D01*
X0143243Y0153159D01*
X0143334Y0153246D01*
X0143428Y0153331D01*
X0143524Y0153412D01*
X0143623Y0153491D01*
X0143724Y0153566D01*
X0143828Y0153638D01*
X0143934Y0153707D01*
X0144042Y0153773D01*
X0144152Y0153835D01*
X0144264Y0153893D01*
X0144377Y0153948D01*
X0144493Y0153999D01*
X0144610Y0154047D01*
X0144728Y0154091D01*
X0144848Y0154131D01*
X0144969Y0154167D01*
X0145091Y0154200D01*
X0145214Y0154229D01*
X0145338Y0154253D01*
X0145462Y0154274D01*
X0145587Y0154291D01*
X0145713Y0154304D01*
X0145839Y0154313D01*
X0145965Y0154318D01*
X0146092Y0154319D01*
X0146218Y0154316D01*
X0146344Y0154309D01*
X0146470Y0154298D01*
X0146595Y0154283D01*
X0146720Y0154264D01*
X0146844Y0154241D01*
X0146968Y0154215D01*
X0147090Y0154184D01*
X0147212Y0154150D01*
X0147332Y0154111D01*
X0147451Y0154069D01*
X0147569Y0154024D01*
X0147685Y0153974D01*
X0147800Y0153921D01*
X0147912Y0153864D01*
X0148023Y0153804D01*
X0148132Y0153740D01*
X0148239Y0153673D01*
X0148344Y0153603D01*
X0148447Y0153529D01*
X0148547Y0153452D01*
X0148645Y0153372D01*
X0148740Y0153289D01*
X0148832Y0153203D01*
X0148922Y0153114D01*
X0149009Y0153022D01*
X0149092Y0152928D01*
X0149173Y0152831D01*
X0149251Y0152731D01*
X0149326Y0152629D01*
X0149397Y0152525D01*
X0149465Y0152418D01*
X0149529Y0152310D01*
X0149590Y0152199D01*
X0149648Y0152087D01*
X0149702Y0151973D01*
X0149752Y0151857D01*
X0149799Y0151740D01*
X0149842Y0151621D01*
X0149881Y0151501D01*
X0149917Y0151380D01*
X0149948Y0151257D01*
X0149976Y0151134D01*
X0150000Y0151010D01*
X0150020Y0150885D01*
X0150036Y0150760D01*
X0150048Y0150634D01*
X0150056Y0150508D01*
X0150060Y0150382D01*
X0150060Y0150256D01*
X0150056Y0150130D01*
X0150048Y0150004D01*
X0150036Y0149878D01*
X0150020Y0149753D01*
X0150000Y0149628D01*
X0149976Y0149504D01*
X0149948Y0149381D01*
X0149917Y0149258D01*
X0149881Y0149137D01*
X0149842Y0149017D01*
X0149799Y0148898D01*
X0149752Y0148781D01*
X0149702Y0148665D01*
X0149648Y0148551D01*
X0149590Y0148439D01*
X0149529Y0148328D01*
X0149465Y0148220D01*
X0149397Y0148113D01*
X0149326Y0148009D01*
X0149251Y0147907D01*
X0149173Y0147807D01*
X0149092Y0147710D01*
X0149009Y0147616D01*
X0148922Y0147524D01*
X0148832Y0147435D01*
X0148740Y0147349D01*
X0148645Y0147266D01*
X0148547Y0147186D01*
X0148447Y0147109D01*
X0148344Y0147035D01*
X0148239Y0146965D01*
X0148132Y0146898D01*
X0148023Y0146834D01*
X0147912Y0146774D01*
X0147800Y0146717D01*
X0147685Y0146664D01*
X0147569Y0146614D01*
X0147451Y0146569D01*
X0147332Y0146527D01*
X0147212Y0146488D01*
X0147090Y0146454D01*
X0146968Y0146423D01*
X0146844Y0146397D01*
X0146720Y0146374D01*
X0146595Y0146355D01*
X0146470Y0146340D01*
X0146344Y0146329D01*
X0146218Y0146322D01*
X0146092Y0146319D01*
X0145965Y0146320D01*
X0145839Y0146325D01*
X0145713Y0146334D01*
X0145587Y0146347D01*
X0145462Y0146364D01*
X0145338Y0146385D01*
X0145214Y0146409D01*
X0145091Y0146438D01*
X0144969Y0146471D01*
X0144848Y0146507D01*
X0144728Y0146547D01*
X0144610Y0146591D01*
X0144493Y0146639D01*
X0144377Y0146690D01*
X0144264Y0146745D01*
X0144152Y0146803D01*
X0144042Y0146865D01*
X0143934Y0146931D01*
X0143828Y0147000D01*
X0143724Y0147072D01*
X0143623Y0147147D01*
X0143524Y0147226D01*
X0143428Y0147307D01*
X0143334Y0147392D01*
X0143243Y0147479D01*
X0143155Y0147570D01*
X0143069Y0147663D01*
X0142987Y0147759D01*
X0142908Y0147857D01*
X0142831Y0147958D01*
X0142758Y0148061D01*
X0142689Y0148166D01*
X0142623Y0148274D01*
X0142560Y0148383D01*
X0142500Y0148495D01*
X0142444Y0148608D01*
X0142392Y0148723D01*
X0142344Y0148839D01*
X0142299Y0148958D01*
X0142258Y0149077D01*
X0142220Y0149198D01*
X0142187Y0149319D01*
X0142157Y0149442D01*
X0142132Y0149566D01*
X0142110Y0149690D01*
X0142092Y0149815D01*
X0142078Y0149941D01*
X0142068Y0150067D01*
X0142062Y0150193D01*
X0142060Y0150319D01*
X0223028Y0159571D02*
X0223028Y0172169D01*
X0241138Y0172169D01*
X0241138Y0159571D01*
X0223028Y0159571D01*
X0230509Y0161539D02*
X0233658Y0161539D01*
X0233789Y0161541D01*
X0233919Y0161547D01*
X0234050Y0161557D01*
X0234180Y0161571D01*
X0234310Y0161588D01*
X0234439Y0161610D01*
X0234567Y0161635D01*
X0234694Y0161665D01*
X0234821Y0161698D01*
X0234946Y0161735D01*
X0235071Y0161776D01*
X0235194Y0161820D01*
X0235315Y0161869D01*
X0235435Y0161921D01*
X0235554Y0161976D01*
X0235671Y0162035D01*
X0235786Y0162098D01*
X0235899Y0162164D01*
X0236010Y0162233D01*
X0236118Y0162306D01*
X0236225Y0162382D01*
X0236329Y0162461D01*
X0236431Y0162543D01*
X0236530Y0162628D01*
X0236627Y0162716D01*
X0236720Y0162808D01*
X0236812Y0162901D01*
X0236900Y0162998D01*
X0236985Y0163097D01*
X0237067Y0163199D01*
X0237146Y0163303D01*
X0237222Y0163410D01*
X0237295Y0163518D01*
X0237364Y0163629D01*
X0237430Y0163742D01*
X0237493Y0163857D01*
X0237552Y0163974D01*
X0237607Y0164093D01*
X0237659Y0164213D01*
X0237708Y0164334D01*
X0237752Y0164457D01*
X0237793Y0164582D01*
X0237830Y0164707D01*
X0237863Y0164834D01*
X0237893Y0164961D01*
X0237918Y0165089D01*
X0237940Y0165218D01*
X0237957Y0165348D01*
X0237971Y0165478D01*
X0237981Y0165609D01*
X0237987Y0165739D01*
X0237989Y0165870D01*
X0237987Y0166001D01*
X0237981Y0166131D01*
X0237971Y0166262D01*
X0237957Y0166392D01*
X0237940Y0166522D01*
X0237918Y0166651D01*
X0237893Y0166779D01*
X0237863Y0166906D01*
X0237830Y0167033D01*
X0237793Y0167158D01*
X0237752Y0167283D01*
X0237708Y0167406D01*
X0237659Y0167527D01*
X0237607Y0167647D01*
X0237552Y0167766D01*
X0237493Y0167883D01*
X0237430Y0167998D01*
X0237364Y0168111D01*
X0237295Y0168222D01*
X0237222Y0168330D01*
X0237146Y0168437D01*
X0237067Y0168541D01*
X0236985Y0168643D01*
X0236900Y0168742D01*
X0236812Y0168839D01*
X0236720Y0168932D01*
X0236627Y0169024D01*
X0236530Y0169112D01*
X0236431Y0169197D01*
X0236329Y0169279D01*
X0236225Y0169358D01*
X0236118Y0169434D01*
X0236010Y0169507D01*
X0235899Y0169576D01*
X0235786Y0169642D01*
X0235671Y0169705D01*
X0235554Y0169764D01*
X0235435Y0169819D01*
X0235315Y0169871D01*
X0235194Y0169920D01*
X0235071Y0169964D01*
X0234946Y0170005D01*
X0234821Y0170042D01*
X0234694Y0170075D01*
X0234567Y0170105D01*
X0234439Y0170130D01*
X0234310Y0170152D01*
X0234180Y0170169D01*
X0234050Y0170183D01*
X0233919Y0170193D01*
X0233789Y0170199D01*
X0233658Y0170201D01*
X0230509Y0170201D01*
X0230378Y0170199D01*
X0230248Y0170193D01*
X0230117Y0170183D01*
X0229987Y0170169D01*
X0229857Y0170152D01*
X0229728Y0170130D01*
X0229600Y0170105D01*
X0229473Y0170075D01*
X0229346Y0170042D01*
X0229221Y0170005D01*
X0229096Y0169964D01*
X0228973Y0169920D01*
X0228852Y0169871D01*
X0228732Y0169819D01*
X0228613Y0169764D01*
X0228496Y0169705D01*
X0228381Y0169642D01*
X0228268Y0169576D01*
X0228157Y0169507D01*
X0228049Y0169434D01*
X0227942Y0169358D01*
X0227838Y0169279D01*
X0227736Y0169197D01*
X0227637Y0169112D01*
X0227540Y0169024D01*
X0227447Y0168932D01*
X0227355Y0168839D01*
X0227267Y0168742D01*
X0227182Y0168643D01*
X0227100Y0168541D01*
X0227021Y0168437D01*
X0226945Y0168330D01*
X0226872Y0168222D01*
X0226803Y0168111D01*
X0226737Y0167998D01*
X0226674Y0167883D01*
X0226615Y0167766D01*
X0226560Y0167647D01*
X0226508Y0167527D01*
X0226459Y0167406D01*
X0226415Y0167283D01*
X0226374Y0167158D01*
X0226337Y0167033D01*
X0226304Y0166906D01*
X0226274Y0166779D01*
X0226249Y0166651D01*
X0226227Y0166522D01*
X0226210Y0166392D01*
X0226196Y0166262D01*
X0226186Y0166131D01*
X0226180Y0166001D01*
X0226178Y0165870D01*
X0226180Y0165739D01*
X0226186Y0165609D01*
X0226196Y0165478D01*
X0226210Y0165348D01*
X0226227Y0165218D01*
X0226249Y0165089D01*
X0226274Y0164961D01*
X0226304Y0164834D01*
X0226337Y0164707D01*
X0226374Y0164582D01*
X0226415Y0164457D01*
X0226459Y0164334D01*
X0226508Y0164213D01*
X0226560Y0164093D01*
X0226615Y0163974D01*
X0226674Y0163857D01*
X0226737Y0163742D01*
X0226803Y0163629D01*
X0226872Y0163518D01*
X0226945Y0163410D01*
X0227021Y0163303D01*
X0227100Y0163199D01*
X0227182Y0163097D01*
X0227267Y0162998D01*
X0227355Y0162901D01*
X0227447Y0162808D01*
X0227540Y0162716D01*
X0227637Y0162628D01*
X0227736Y0162543D01*
X0227838Y0162461D01*
X0227942Y0162382D01*
X0228049Y0162306D01*
X0228157Y0162233D01*
X0228268Y0162164D01*
X0228381Y0162098D01*
X0228496Y0162035D01*
X0228613Y0161976D01*
X0228732Y0161921D01*
X0228852Y0161869D01*
X0228973Y0161820D01*
X0229096Y0161776D01*
X0229221Y0161735D01*
X0229346Y0161698D01*
X0229473Y0161665D01*
X0229600Y0161635D01*
X0229728Y0161610D01*
X0229857Y0161588D01*
X0229987Y0161571D01*
X0230117Y0161557D01*
X0230248Y0161547D01*
X0230378Y0161541D01*
X0230509Y0161539D01*
X0252556Y0159571D02*
X0252556Y0172169D01*
X0270666Y0172169D01*
X0270666Y0159571D01*
X0252556Y0159571D01*
X0260036Y0161539D02*
X0263186Y0161539D01*
X0263317Y0161541D01*
X0263447Y0161547D01*
X0263578Y0161557D01*
X0263708Y0161571D01*
X0263838Y0161588D01*
X0263967Y0161610D01*
X0264095Y0161635D01*
X0264222Y0161665D01*
X0264349Y0161698D01*
X0264474Y0161735D01*
X0264599Y0161776D01*
X0264722Y0161820D01*
X0264843Y0161869D01*
X0264963Y0161921D01*
X0265082Y0161976D01*
X0265199Y0162035D01*
X0265314Y0162098D01*
X0265427Y0162164D01*
X0265538Y0162233D01*
X0265646Y0162306D01*
X0265753Y0162382D01*
X0265857Y0162461D01*
X0265959Y0162543D01*
X0266058Y0162628D01*
X0266155Y0162716D01*
X0266248Y0162808D01*
X0266340Y0162901D01*
X0266428Y0162998D01*
X0266513Y0163097D01*
X0266595Y0163199D01*
X0266674Y0163303D01*
X0266750Y0163410D01*
X0266823Y0163518D01*
X0266892Y0163629D01*
X0266958Y0163742D01*
X0267021Y0163857D01*
X0267080Y0163974D01*
X0267135Y0164093D01*
X0267187Y0164213D01*
X0267236Y0164334D01*
X0267280Y0164457D01*
X0267321Y0164582D01*
X0267358Y0164707D01*
X0267391Y0164834D01*
X0267421Y0164961D01*
X0267446Y0165089D01*
X0267468Y0165218D01*
X0267485Y0165348D01*
X0267499Y0165478D01*
X0267509Y0165609D01*
X0267515Y0165739D01*
X0267517Y0165870D01*
X0267515Y0166001D01*
X0267509Y0166131D01*
X0267499Y0166262D01*
X0267485Y0166392D01*
X0267468Y0166522D01*
X0267446Y0166651D01*
X0267421Y0166779D01*
X0267391Y0166906D01*
X0267358Y0167033D01*
X0267321Y0167158D01*
X0267280Y0167283D01*
X0267236Y0167406D01*
X0267187Y0167527D01*
X0267135Y0167647D01*
X0267080Y0167766D01*
X0267021Y0167883D01*
X0266958Y0167998D01*
X0266892Y0168111D01*
X0266823Y0168222D01*
X0266750Y0168330D01*
X0266674Y0168437D01*
X0266595Y0168541D01*
X0266513Y0168643D01*
X0266428Y0168742D01*
X0266340Y0168839D01*
X0266248Y0168932D01*
X0266155Y0169024D01*
X0266058Y0169112D01*
X0265959Y0169197D01*
X0265857Y0169279D01*
X0265753Y0169358D01*
X0265646Y0169434D01*
X0265538Y0169507D01*
X0265427Y0169576D01*
X0265314Y0169642D01*
X0265199Y0169705D01*
X0265082Y0169764D01*
X0264963Y0169819D01*
X0264843Y0169871D01*
X0264722Y0169920D01*
X0264599Y0169964D01*
X0264474Y0170005D01*
X0264349Y0170042D01*
X0264222Y0170075D01*
X0264095Y0170105D01*
X0263967Y0170130D01*
X0263838Y0170152D01*
X0263708Y0170169D01*
X0263578Y0170183D01*
X0263447Y0170193D01*
X0263317Y0170199D01*
X0263186Y0170201D01*
X0260036Y0170201D01*
X0259905Y0170199D01*
X0259775Y0170193D01*
X0259644Y0170183D01*
X0259514Y0170169D01*
X0259384Y0170152D01*
X0259255Y0170130D01*
X0259127Y0170105D01*
X0259000Y0170075D01*
X0258873Y0170042D01*
X0258748Y0170005D01*
X0258623Y0169964D01*
X0258500Y0169920D01*
X0258379Y0169871D01*
X0258259Y0169819D01*
X0258140Y0169764D01*
X0258023Y0169705D01*
X0257908Y0169642D01*
X0257795Y0169576D01*
X0257684Y0169507D01*
X0257576Y0169434D01*
X0257469Y0169358D01*
X0257365Y0169279D01*
X0257263Y0169197D01*
X0257164Y0169112D01*
X0257067Y0169024D01*
X0256974Y0168932D01*
X0256882Y0168839D01*
X0256794Y0168742D01*
X0256709Y0168643D01*
X0256627Y0168541D01*
X0256548Y0168437D01*
X0256472Y0168330D01*
X0256399Y0168222D01*
X0256330Y0168111D01*
X0256264Y0167998D01*
X0256201Y0167883D01*
X0256142Y0167766D01*
X0256087Y0167647D01*
X0256035Y0167527D01*
X0255986Y0167406D01*
X0255942Y0167283D01*
X0255901Y0167158D01*
X0255864Y0167033D01*
X0255831Y0166906D01*
X0255801Y0166779D01*
X0255776Y0166651D01*
X0255754Y0166522D01*
X0255737Y0166392D01*
X0255723Y0166262D01*
X0255713Y0166131D01*
X0255707Y0166001D01*
X0255705Y0165870D01*
X0255707Y0165739D01*
X0255713Y0165609D01*
X0255723Y0165478D01*
X0255737Y0165348D01*
X0255754Y0165218D01*
X0255776Y0165089D01*
X0255801Y0164961D01*
X0255831Y0164834D01*
X0255864Y0164707D01*
X0255901Y0164582D01*
X0255942Y0164457D01*
X0255986Y0164334D01*
X0256035Y0164213D01*
X0256087Y0164093D01*
X0256142Y0163974D01*
X0256201Y0163857D01*
X0256264Y0163742D01*
X0256330Y0163629D01*
X0256399Y0163518D01*
X0256472Y0163410D01*
X0256548Y0163303D01*
X0256627Y0163199D01*
X0256709Y0163097D01*
X0256794Y0162998D01*
X0256882Y0162901D01*
X0256974Y0162808D01*
X0257067Y0162716D01*
X0257164Y0162628D01*
X0257263Y0162543D01*
X0257365Y0162461D01*
X0257469Y0162382D01*
X0257576Y0162306D01*
X0257684Y0162233D01*
X0257795Y0162164D01*
X0257908Y0162098D01*
X0258023Y0162035D01*
X0258140Y0161976D01*
X0258259Y0161921D01*
X0258379Y0161869D01*
X0258500Y0161820D01*
X0258623Y0161776D01*
X0258748Y0161735D01*
X0258873Y0161698D01*
X0259000Y0161665D01*
X0259127Y0161635D01*
X0259255Y0161610D01*
X0259384Y0161588D01*
X0259514Y0161571D01*
X0259644Y0161557D01*
X0259775Y0161547D01*
X0259905Y0161541D01*
X0260036Y0161539D01*
X0372768Y0145248D02*
X0372768Y0139248D01*
X0372770Y0139188D01*
X0372775Y0139127D01*
X0372784Y0139068D01*
X0372797Y0139009D01*
X0372813Y0138950D01*
X0372833Y0138893D01*
X0372856Y0138838D01*
X0372883Y0138783D01*
X0372912Y0138731D01*
X0372945Y0138680D01*
X0372981Y0138631D01*
X0373019Y0138585D01*
X0373061Y0138541D01*
X0373105Y0138499D01*
X0373151Y0138461D01*
X0373200Y0138425D01*
X0373251Y0138392D01*
X0373303Y0138363D01*
X0373358Y0138336D01*
X0373413Y0138313D01*
X0373470Y0138293D01*
X0373529Y0138277D01*
X0373588Y0138264D01*
X0373647Y0138255D01*
X0373708Y0138250D01*
X0373768Y0138248D01*
X0379768Y0138248D01*
X0379828Y0138250D01*
X0379889Y0138255D01*
X0379948Y0138264D01*
X0380007Y0138277D01*
X0380066Y0138293D01*
X0380123Y0138313D01*
X0380178Y0138336D01*
X0380233Y0138363D01*
X0380285Y0138392D01*
X0380336Y0138425D01*
X0380385Y0138461D01*
X0380431Y0138499D01*
X0380475Y0138541D01*
X0380517Y0138585D01*
X0380555Y0138631D01*
X0380591Y0138680D01*
X0380624Y0138731D01*
X0380653Y0138783D01*
X0380680Y0138838D01*
X0380703Y0138893D01*
X0380723Y0138950D01*
X0380739Y0139009D01*
X0380752Y0139068D01*
X0380761Y0139127D01*
X0380766Y0139188D01*
X0380768Y0139248D01*
X0380768Y0145248D01*
X0380766Y0145308D01*
X0380761Y0145369D01*
X0380752Y0145428D01*
X0380739Y0145487D01*
X0380723Y0145546D01*
X0380703Y0145603D01*
X0380680Y0145658D01*
X0380653Y0145713D01*
X0380624Y0145765D01*
X0380591Y0145816D01*
X0380555Y0145865D01*
X0380517Y0145911D01*
X0380475Y0145955D01*
X0380431Y0145997D01*
X0380385Y0146035D01*
X0380336Y0146071D01*
X0380285Y0146104D01*
X0380233Y0146133D01*
X0380178Y0146160D01*
X0380123Y0146183D01*
X0380066Y0146203D01*
X0380007Y0146219D01*
X0379948Y0146232D01*
X0379889Y0146241D01*
X0379828Y0146246D01*
X0379768Y0146248D01*
X0373768Y0146248D01*
X0373708Y0146246D01*
X0373647Y0146241D01*
X0373588Y0146232D01*
X0373529Y0146219D01*
X0373470Y0146203D01*
X0373413Y0146183D01*
X0373358Y0146160D01*
X0373303Y0146133D01*
X0373251Y0146104D01*
X0373200Y0146071D01*
X0373151Y0146035D01*
X0373105Y0145997D01*
X0373061Y0145955D01*
X0373019Y0145911D01*
X0372981Y0145865D01*
X0372945Y0145816D01*
X0372912Y0145765D01*
X0372883Y0145713D01*
X0372856Y0145658D01*
X0372833Y0145603D01*
X0372813Y0145546D01*
X0372797Y0145487D01*
X0372784Y0145428D01*
X0372775Y0145369D01*
X0372770Y0145308D01*
X0372768Y0145248D01*
X0373768Y0136406D02*
X0379768Y0136406D01*
X0379828Y0136404D01*
X0379889Y0136399D01*
X0379948Y0136390D01*
X0380007Y0136377D01*
X0380066Y0136361D01*
X0380123Y0136341D01*
X0380178Y0136318D01*
X0380233Y0136291D01*
X0380285Y0136262D01*
X0380336Y0136229D01*
X0380385Y0136193D01*
X0380431Y0136155D01*
X0380475Y0136113D01*
X0380517Y0136069D01*
X0380555Y0136023D01*
X0380591Y0135974D01*
X0380624Y0135923D01*
X0380653Y0135871D01*
X0380680Y0135816D01*
X0380703Y0135761D01*
X0380723Y0135704D01*
X0380739Y0135645D01*
X0380752Y0135586D01*
X0380761Y0135527D01*
X0380766Y0135466D01*
X0380768Y0135406D01*
X0380768Y0129406D01*
X0380766Y0129346D01*
X0380761Y0129285D01*
X0380752Y0129226D01*
X0380739Y0129167D01*
X0380723Y0129108D01*
X0380703Y0129051D01*
X0380680Y0128996D01*
X0380653Y0128941D01*
X0380624Y0128889D01*
X0380591Y0128838D01*
X0380555Y0128789D01*
X0380517Y0128743D01*
X0380475Y0128699D01*
X0380431Y0128657D01*
X0380385Y0128619D01*
X0380336Y0128583D01*
X0380285Y0128550D01*
X0380233Y0128521D01*
X0380178Y0128494D01*
X0380123Y0128471D01*
X0380066Y0128451D01*
X0380007Y0128435D01*
X0379948Y0128422D01*
X0379889Y0128413D01*
X0379828Y0128408D01*
X0379768Y0128406D01*
X0373768Y0128406D01*
X0373708Y0128408D01*
X0373647Y0128413D01*
X0373588Y0128422D01*
X0373529Y0128435D01*
X0373470Y0128451D01*
X0373413Y0128471D01*
X0373358Y0128494D01*
X0373303Y0128521D01*
X0373251Y0128550D01*
X0373200Y0128583D01*
X0373151Y0128619D01*
X0373105Y0128657D01*
X0373061Y0128699D01*
X0373019Y0128743D01*
X0372981Y0128789D01*
X0372945Y0128838D01*
X0372912Y0128889D01*
X0372883Y0128941D01*
X0372856Y0128996D01*
X0372833Y0129051D01*
X0372813Y0129108D01*
X0372797Y0129167D01*
X0372784Y0129226D01*
X0372775Y0129285D01*
X0372770Y0129346D01*
X0372768Y0129406D01*
X0372768Y0135406D01*
X0372770Y0135466D01*
X0372775Y0135527D01*
X0372784Y0135586D01*
X0372797Y0135645D01*
X0372813Y0135704D01*
X0372833Y0135761D01*
X0372856Y0135816D01*
X0372883Y0135871D01*
X0372912Y0135923D01*
X0372945Y0135974D01*
X0372981Y0136023D01*
X0373019Y0136069D01*
X0373061Y0136113D01*
X0373105Y0136155D01*
X0373151Y0136193D01*
X0373200Y0136229D01*
X0373251Y0136262D01*
X0373303Y0136291D01*
X0373358Y0136318D01*
X0373413Y0136341D01*
X0373470Y0136361D01*
X0373529Y0136377D01*
X0373588Y0136390D01*
X0373647Y0136399D01*
X0373708Y0136404D01*
X0373768Y0136406D01*
X0413383Y0135358D02*
X0430705Y0135358D01*
X0438776Y0127091D02*
X0444091Y0127091D01*
X0443587Y0123439D02*
X0457587Y0123439D01*
X0457587Y0105939D01*
X0443587Y0105939D01*
X0443587Y0123439D01*
X0438776Y0127091D02*
X0438776Y0155437D01*
X0444091Y0155437D01*
X0430705Y0155043D02*
X0413383Y0155043D01*
X0459052Y0155437D02*
X0464367Y0155437D01*
X0464367Y0127091D01*
X0459052Y0127091D01*
X0452359Y0100909D02*
X0446650Y0100909D01*
X0452359Y0100909D02*
X0452359Y0099925D01*
X0452359Y0091854D02*
X0452359Y0091067D01*
X0444485Y0091067D01*
X0430705Y0091067D02*
X0422831Y0091067D01*
X0422831Y0091854D01*
X0422831Y0099925D02*
X0422831Y0100909D01*
X0428540Y0100909D01*
X0535186Y0141201D02*
X0541186Y0141201D01*
X0541246Y0141203D01*
X0541307Y0141208D01*
X0541366Y0141217D01*
X0541425Y0141230D01*
X0541484Y0141246D01*
X0541541Y0141266D01*
X0541596Y0141289D01*
X0541651Y0141316D01*
X0541703Y0141345D01*
X0541754Y0141378D01*
X0541803Y0141414D01*
X0541849Y0141452D01*
X0541893Y0141494D01*
X0541935Y0141538D01*
X0541973Y0141584D01*
X0542009Y0141633D01*
X0542042Y0141684D01*
X0542071Y0141736D01*
X0542098Y0141791D01*
X0542121Y0141846D01*
X0542141Y0141903D01*
X0542157Y0141962D01*
X0542170Y0142021D01*
X0542179Y0142080D01*
X0542184Y0142141D01*
X0542186Y0142201D01*
X0542186Y0148201D01*
X0542184Y0148261D01*
X0542179Y0148322D01*
X0542170Y0148381D01*
X0542157Y0148440D01*
X0542141Y0148499D01*
X0542121Y0148556D01*
X0542098Y0148611D01*
X0542071Y0148666D01*
X0542042Y0148718D01*
X0542009Y0148769D01*
X0541973Y0148818D01*
X0541935Y0148864D01*
X0541893Y0148908D01*
X0541849Y0148950D01*
X0541803Y0148988D01*
X0541754Y0149024D01*
X0541703Y0149057D01*
X0541651Y0149086D01*
X0541596Y0149113D01*
X0541541Y0149136D01*
X0541484Y0149156D01*
X0541425Y0149172D01*
X0541366Y0149185D01*
X0541307Y0149194D01*
X0541246Y0149199D01*
X0541186Y0149201D01*
X0535186Y0149201D01*
X0535126Y0149199D01*
X0535065Y0149194D01*
X0535006Y0149185D01*
X0534947Y0149172D01*
X0534888Y0149156D01*
X0534831Y0149136D01*
X0534776Y0149113D01*
X0534721Y0149086D01*
X0534669Y0149057D01*
X0534618Y0149024D01*
X0534569Y0148988D01*
X0534523Y0148950D01*
X0534479Y0148908D01*
X0534437Y0148864D01*
X0534399Y0148818D01*
X0534363Y0148769D01*
X0534330Y0148718D01*
X0534301Y0148666D01*
X0534274Y0148611D01*
X0534251Y0148556D01*
X0534231Y0148499D01*
X0534215Y0148440D01*
X0534202Y0148381D01*
X0534193Y0148322D01*
X0534188Y0148261D01*
X0534186Y0148201D01*
X0534186Y0142201D01*
X0534188Y0142141D01*
X0534193Y0142080D01*
X0534202Y0142021D01*
X0534215Y0141962D01*
X0534231Y0141903D01*
X0534251Y0141846D01*
X0534274Y0141791D01*
X0534301Y0141736D01*
X0534330Y0141684D01*
X0534363Y0141633D01*
X0534399Y0141584D01*
X0534437Y0141538D01*
X0534479Y0141494D01*
X0534523Y0141452D01*
X0534569Y0141414D01*
X0534618Y0141378D01*
X0534669Y0141345D01*
X0534721Y0141316D01*
X0534776Y0141289D01*
X0534831Y0141266D01*
X0534888Y0141246D01*
X0534947Y0141230D01*
X0535006Y0141217D01*
X0535065Y0141208D01*
X0535126Y0141203D01*
X0535186Y0141201D01*
X0560776Y0088177D02*
X0566776Y0088177D01*
X0566836Y0088175D01*
X0566897Y0088170D01*
X0566956Y0088161D01*
X0567015Y0088148D01*
X0567074Y0088132D01*
X0567131Y0088112D01*
X0567186Y0088089D01*
X0567241Y0088062D01*
X0567293Y0088033D01*
X0567344Y0088000D01*
X0567393Y0087964D01*
X0567439Y0087926D01*
X0567483Y0087884D01*
X0567525Y0087840D01*
X0567563Y0087794D01*
X0567599Y0087745D01*
X0567632Y0087694D01*
X0567661Y0087642D01*
X0567688Y0087587D01*
X0567711Y0087532D01*
X0567731Y0087475D01*
X0567747Y0087416D01*
X0567760Y0087357D01*
X0567769Y0087298D01*
X0567774Y0087237D01*
X0567776Y0087177D01*
X0567776Y0081177D01*
X0567774Y0081117D01*
X0567769Y0081056D01*
X0567760Y0080997D01*
X0567747Y0080938D01*
X0567731Y0080879D01*
X0567711Y0080822D01*
X0567688Y0080767D01*
X0567661Y0080712D01*
X0567632Y0080660D01*
X0567599Y0080609D01*
X0567563Y0080560D01*
X0567525Y0080514D01*
X0567483Y0080470D01*
X0567439Y0080428D01*
X0567393Y0080390D01*
X0567344Y0080354D01*
X0567293Y0080321D01*
X0567241Y0080292D01*
X0567186Y0080265D01*
X0567131Y0080242D01*
X0567074Y0080222D01*
X0567015Y0080206D01*
X0566956Y0080193D01*
X0566897Y0080184D01*
X0566836Y0080179D01*
X0566776Y0080177D01*
X0560776Y0080177D01*
X0560716Y0080179D01*
X0560655Y0080184D01*
X0560596Y0080193D01*
X0560537Y0080206D01*
X0560478Y0080222D01*
X0560421Y0080242D01*
X0560366Y0080265D01*
X0560311Y0080292D01*
X0560259Y0080321D01*
X0560208Y0080354D01*
X0560159Y0080390D01*
X0560113Y0080428D01*
X0560069Y0080470D01*
X0560027Y0080514D01*
X0559989Y0080560D01*
X0559953Y0080609D01*
X0559920Y0080660D01*
X0559891Y0080712D01*
X0559864Y0080767D01*
X0559841Y0080822D01*
X0559821Y0080879D01*
X0559805Y0080938D01*
X0559792Y0080997D01*
X0559783Y0081056D01*
X0559778Y0081117D01*
X0559776Y0081177D01*
X0559776Y0087177D01*
X0559778Y0087237D01*
X0559783Y0087298D01*
X0559792Y0087357D01*
X0559805Y0087416D01*
X0559821Y0087475D01*
X0559841Y0087532D01*
X0559864Y0087587D01*
X0559891Y0087642D01*
X0559920Y0087694D01*
X0559953Y0087745D01*
X0559989Y0087794D01*
X0560027Y0087840D01*
X0560069Y0087884D01*
X0560113Y0087926D01*
X0560159Y0087964D01*
X0560208Y0088000D01*
X0560259Y0088033D01*
X0560311Y0088062D01*
X0560366Y0088089D01*
X0560421Y0088112D01*
X0560478Y0088132D01*
X0560537Y0088148D01*
X0560596Y0088161D01*
X0560655Y0088170D01*
X0560716Y0088175D01*
X0560776Y0088177D01*
X0277162Y0057012D02*
X0256296Y0057012D01*
X0256296Y0048350D01*
X0277162Y0048350D01*
X0277162Y0051106D02*
X0276768Y0051500D01*
X0276768Y0053862D01*
X0277162Y0054256D01*
X0249524Y0052681D02*
X0249528Y0053010D01*
X0249540Y0053338D01*
X0249560Y0053666D01*
X0249588Y0053993D01*
X0249625Y0054320D01*
X0249669Y0054645D01*
X0249721Y0054969D01*
X0249781Y0055292D01*
X0249849Y0055614D01*
X0249925Y0055934D01*
X0250009Y0056251D01*
X0250100Y0056567D01*
X0250200Y0056880D01*
X0250306Y0057191D01*
X0250421Y0057499D01*
X0250543Y0057804D01*
X0250672Y0058106D01*
X0250809Y0058404D01*
X0250953Y0058699D01*
X0251105Y0058991D01*
X0251263Y0059279D01*
X0251428Y0059563D01*
X0251601Y0059842D01*
X0251780Y0060118D01*
X0251966Y0060389D01*
X0252158Y0060655D01*
X0252357Y0060916D01*
X0252562Y0061173D01*
X0252774Y0061424D01*
X0252992Y0061670D01*
X0253215Y0061911D01*
X0253445Y0062146D01*
X0253680Y0062376D01*
X0253921Y0062599D01*
X0254167Y0062817D01*
X0254418Y0063029D01*
X0254675Y0063234D01*
X0254936Y0063433D01*
X0255202Y0063625D01*
X0255473Y0063811D01*
X0255749Y0063990D01*
X0256028Y0064163D01*
X0256312Y0064328D01*
X0256600Y0064486D01*
X0256892Y0064638D01*
X0257187Y0064782D01*
X0257485Y0064919D01*
X0257787Y0065048D01*
X0258092Y0065170D01*
X0258400Y0065285D01*
X0258711Y0065391D01*
X0259024Y0065491D01*
X0259340Y0065582D01*
X0259657Y0065666D01*
X0259977Y0065742D01*
X0260299Y0065810D01*
X0260622Y0065870D01*
X0260946Y0065922D01*
X0261271Y0065966D01*
X0261598Y0066003D01*
X0261925Y0066031D01*
X0262253Y0066051D01*
X0262581Y0066063D01*
X0262910Y0066067D01*
X0263239Y0066063D01*
X0263567Y0066051D01*
X0263895Y0066031D01*
X0264222Y0066003D01*
X0264549Y0065966D01*
X0264874Y0065922D01*
X0265198Y0065870D01*
X0265521Y0065810D01*
X0265843Y0065742D01*
X0266163Y0065666D01*
X0266480Y0065582D01*
X0266796Y0065491D01*
X0267109Y0065391D01*
X0267420Y0065285D01*
X0267728Y0065170D01*
X0268033Y0065048D01*
X0268335Y0064919D01*
X0268633Y0064782D01*
X0268928Y0064638D01*
X0269220Y0064486D01*
X0269508Y0064328D01*
X0269792Y0064163D01*
X0270071Y0063990D01*
X0270347Y0063811D01*
X0270618Y0063625D01*
X0270884Y0063433D01*
X0271145Y0063234D01*
X0271402Y0063029D01*
X0271653Y0062817D01*
X0271899Y0062599D01*
X0272140Y0062376D01*
X0272375Y0062146D01*
X0272605Y0061911D01*
X0272828Y0061670D01*
X0273046Y0061424D01*
X0273258Y0061173D01*
X0273463Y0060916D01*
X0273662Y0060655D01*
X0273854Y0060389D01*
X0274040Y0060118D01*
X0274219Y0059842D01*
X0274392Y0059563D01*
X0274557Y0059279D01*
X0274715Y0058991D01*
X0274867Y0058699D01*
X0275011Y0058404D01*
X0275148Y0058106D01*
X0275277Y0057804D01*
X0275399Y0057499D01*
X0275514Y0057191D01*
X0275620Y0056880D01*
X0275720Y0056567D01*
X0275811Y0056251D01*
X0275895Y0055934D01*
X0275971Y0055614D01*
X0276039Y0055292D01*
X0276099Y0054969D01*
X0276151Y0054645D01*
X0276195Y0054320D01*
X0276232Y0053993D01*
X0276260Y0053666D01*
X0276280Y0053338D01*
X0276292Y0053010D01*
X0276296Y0052681D01*
X0276292Y0052352D01*
X0276280Y0052024D01*
X0276260Y0051696D01*
X0276232Y0051369D01*
X0276195Y0051042D01*
X0276151Y0050717D01*
X0276099Y0050393D01*
X0276039Y0050070D01*
X0275971Y0049748D01*
X0275895Y0049428D01*
X0275811Y0049111D01*
X0275720Y0048795D01*
X0275620Y0048482D01*
X0275514Y0048171D01*
X0275399Y0047863D01*
X0275277Y0047558D01*
X0275148Y0047256D01*
X0275011Y0046958D01*
X0274867Y0046663D01*
X0274715Y0046371D01*
X0274557Y0046083D01*
X0274392Y0045799D01*
X0274219Y0045520D01*
X0274040Y0045244D01*
X0273854Y0044973D01*
X0273662Y0044707D01*
X0273463Y0044446D01*
X0273258Y0044189D01*
X0273046Y0043938D01*
X0272828Y0043692D01*
X0272605Y0043451D01*
X0272375Y0043216D01*
X0272140Y0042986D01*
X0271899Y0042763D01*
X0271653Y0042545D01*
X0271402Y0042333D01*
X0271145Y0042128D01*
X0270884Y0041929D01*
X0270618Y0041737D01*
X0270347Y0041551D01*
X0270071Y0041372D01*
X0269792Y0041199D01*
X0269508Y0041034D01*
X0269220Y0040876D01*
X0268928Y0040724D01*
X0268633Y0040580D01*
X0268335Y0040443D01*
X0268033Y0040314D01*
X0267728Y0040192D01*
X0267420Y0040077D01*
X0267109Y0039971D01*
X0266796Y0039871D01*
X0266480Y0039780D01*
X0266163Y0039696D01*
X0265843Y0039620D01*
X0265521Y0039552D01*
X0265198Y0039492D01*
X0264874Y0039440D01*
X0264549Y0039396D01*
X0264222Y0039359D01*
X0263895Y0039331D01*
X0263567Y0039311D01*
X0263239Y0039299D01*
X0262910Y0039295D01*
X0262581Y0039299D01*
X0262253Y0039311D01*
X0261925Y0039331D01*
X0261598Y0039359D01*
X0261271Y0039396D01*
X0260946Y0039440D01*
X0260622Y0039492D01*
X0260299Y0039552D01*
X0259977Y0039620D01*
X0259657Y0039696D01*
X0259340Y0039780D01*
X0259024Y0039871D01*
X0258711Y0039971D01*
X0258400Y0040077D01*
X0258092Y0040192D01*
X0257787Y0040314D01*
X0257485Y0040443D01*
X0257187Y0040580D01*
X0256892Y0040724D01*
X0256600Y0040876D01*
X0256312Y0041034D01*
X0256028Y0041199D01*
X0255749Y0041372D01*
X0255473Y0041551D01*
X0255202Y0041737D01*
X0254936Y0041929D01*
X0254675Y0042128D01*
X0254418Y0042333D01*
X0254167Y0042545D01*
X0253921Y0042763D01*
X0253680Y0042986D01*
X0253445Y0043216D01*
X0253215Y0043451D01*
X0252992Y0043692D01*
X0252774Y0043938D01*
X0252562Y0044189D01*
X0252357Y0044446D01*
X0252158Y0044707D01*
X0251966Y0044973D01*
X0251780Y0045244D01*
X0251601Y0045520D01*
X0251428Y0045799D01*
X0251263Y0046083D01*
X0251105Y0046371D01*
X0250953Y0046663D01*
X0250809Y0046958D01*
X0250672Y0047256D01*
X0250543Y0047558D01*
X0250421Y0047863D01*
X0250306Y0048171D01*
X0250200Y0048482D01*
X0250100Y0048795D01*
X0250009Y0049111D01*
X0249925Y0049428D01*
X0249849Y0049748D01*
X0249781Y0050070D01*
X0249721Y0050393D01*
X0249669Y0050717D01*
X0249625Y0051042D01*
X0249588Y0051369D01*
X0249560Y0051696D01*
X0249540Y0052024D01*
X0249528Y0052352D01*
X0249524Y0052681D01*
D23*
X0463183Y0111736D02*
X0463583Y0111736D01*
X0485820Y0130437D02*
X0486220Y0130437D01*
X0389764Y0165870D02*
X0389364Y0165870D01*
X0321850Y0137327D02*
X0321450Y0137327D01*
D24*
X0358028Y0136343D02*
X0358107Y0136343D01*
X0366886Y0136343D02*
X0366965Y0136343D01*
D25*
X0435075Y0155594D02*
X0435077Y0155633D01*
X0435083Y0155672D01*
X0435093Y0155710D01*
X0435106Y0155747D01*
X0435123Y0155782D01*
X0435143Y0155816D01*
X0435167Y0155847D01*
X0435194Y0155876D01*
X0435223Y0155902D01*
X0435255Y0155925D01*
X0435289Y0155945D01*
X0435325Y0155961D01*
X0435362Y0155973D01*
X0435401Y0155982D01*
X0435440Y0155987D01*
X0435479Y0155988D01*
X0435518Y0155985D01*
X0435557Y0155978D01*
X0435594Y0155967D01*
X0435631Y0155953D01*
X0435666Y0155935D01*
X0435699Y0155914D01*
X0435730Y0155889D01*
X0435758Y0155862D01*
X0435783Y0155832D01*
X0435805Y0155799D01*
X0435824Y0155765D01*
X0435839Y0155729D01*
X0435851Y0155691D01*
X0435859Y0155653D01*
X0435863Y0155614D01*
X0435863Y0155574D01*
X0435859Y0155535D01*
X0435851Y0155497D01*
X0435839Y0155459D01*
X0435824Y0155423D01*
X0435805Y0155389D01*
X0435783Y0155356D01*
X0435758Y0155326D01*
X0435730Y0155299D01*
X0435699Y0155274D01*
X0435666Y0155253D01*
X0435631Y0155235D01*
X0435594Y0155221D01*
X0435557Y0155210D01*
X0435518Y0155203D01*
X0435479Y0155200D01*
X0435440Y0155201D01*
X0435401Y0155206D01*
X0435362Y0155215D01*
X0435325Y0155227D01*
X0435289Y0155243D01*
X0435255Y0155263D01*
X0435223Y0155286D01*
X0435194Y0155312D01*
X0435167Y0155341D01*
X0435143Y0155372D01*
X0435123Y0155406D01*
X0435106Y0155441D01*
X0435093Y0155478D01*
X0435083Y0155516D01*
X0435077Y0155555D01*
X0435075Y0155594D01*
X0429087Y0088980D02*
X0429089Y0089019D01*
X0429095Y0089058D01*
X0429105Y0089096D01*
X0429118Y0089133D01*
X0429135Y0089168D01*
X0429155Y0089202D01*
X0429179Y0089233D01*
X0429206Y0089262D01*
X0429235Y0089288D01*
X0429267Y0089311D01*
X0429301Y0089331D01*
X0429337Y0089347D01*
X0429374Y0089359D01*
X0429413Y0089368D01*
X0429452Y0089373D01*
X0429491Y0089374D01*
X0429530Y0089371D01*
X0429569Y0089364D01*
X0429606Y0089353D01*
X0429643Y0089339D01*
X0429678Y0089321D01*
X0429711Y0089300D01*
X0429742Y0089275D01*
X0429770Y0089248D01*
X0429795Y0089218D01*
X0429817Y0089185D01*
X0429836Y0089151D01*
X0429851Y0089115D01*
X0429863Y0089077D01*
X0429871Y0089039D01*
X0429875Y0089000D01*
X0429875Y0088960D01*
X0429871Y0088921D01*
X0429863Y0088883D01*
X0429851Y0088845D01*
X0429836Y0088809D01*
X0429817Y0088775D01*
X0429795Y0088742D01*
X0429770Y0088712D01*
X0429742Y0088685D01*
X0429711Y0088660D01*
X0429678Y0088639D01*
X0429643Y0088621D01*
X0429606Y0088607D01*
X0429569Y0088596D01*
X0429530Y0088589D01*
X0429491Y0088586D01*
X0429452Y0088587D01*
X0429413Y0088592D01*
X0429374Y0088601D01*
X0429337Y0088613D01*
X0429301Y0088629D01*
X0429267Y0088649D01*
X0429235Y0088672D01*
X0429206Y0088698D01*
X0429179Y0088727D01*
X0429155Y0088758D01*
X0429135Y0088792D01*
X0429118Y0088827D01*
X0429105Y0088864D01*
X0429095Y0088902D01*
X0429089Y0088941D01*
X0429087Y0088980D01*
D26*
X0471215Y0135732D02*
X0489015Y0135732D01*
X0489015Y0150732D02*
X0471215Y0150732D01*
D27*
X0564367Y0126894D03*
X0564367Y0122169D03*
X0564367Y0105043D03*
X0564367Y0100319D03*
M02*
