<?xml version="1.0" standalone="no"?>
<!DOCTYPE svg PUBLIC "-//W3C//DTD SVG 1.1//EN" "http://www.w3.org/Graphics/SVG/1.1/DTD/svg11.dtd">
<svg width="59mm" height="49mm" viewBox="-20 -14 59 49" xmlns="http://www.w3.org/2000/svg" version="1.1">
<title>OpenSCAD Model</title>
<path d="
M 35.3676,34.9819 L 35.7316,34.9279 L 36.0886,34.8385 L 36.4351,34.7145 L 36.7677,34.5572 L 37.0834,34.368
 L 37.379,34.1488 L 37.6516,33.9016 L 37.8988,33.629 L 38.118,33.3334 L 38.3072,33.0177 L 38.4645,32.6851
 L 38.5885,32.3386 L 38.6779,31.9816 L 38.7319,31.6176 L 38.75,31.25 L 38.7319,30.8824 L 38.6779,30.5184
 L 38.5885,30.1614 L 38.4645,29.8149 L 38.3072,29.4823 L 38.118,29.1666 L 37.8988,28.871 L 37.6516,28.5983
 L 37.379,28.3512 L 37.0834,28.132 L 36.7677,27.9428 L 36.4351,27.7854 L 36.0886,27.6615 L 35.7316,27.5721
 L 35.3676,27.5181 L 35,27.5 L 0,27.5 L -1.2252,27.4398 L -2.43861,27.2598 L -3.62856,26.9617
 L -4.78354,26.5485 L -5.89246,26.024 L -6.94463,25.3934 L -7.9299,24.6626 L -8.83882,23.8388 L -9.66263,22.9299
 L -10.3934,21.9446 L -11.024,20.8925 L -11.5485,19.7835 L -11.9617,18.6286 L -12.2598,17.4386 L -12.4398,16.2252
 L -12.5,15 L -12.4398,13.7748 L -12.2598,12.5614 L -11.9617,11.3714 L -11.5485,10.2165 L -11.024,9.10754
 L -10.3934,8.05537 L -9.66263,7.0701 L -8.83882,6.16118 L -7.9299,5.33737 L -7.84117,5.27156 L -7.84044,5.27716
 L -7.39038,4.97301 L -6.93756,4.72586 L -6.48047,4.58247 L -6.02901,4.50252 L -5.58716,4.48941 L -5.15642,4.56439
 L -4.74539,4.69295 L -4.358,4.87379 L -3.9968,5.11447 L -3.66508,5.41388 L -3.36804,5.75404 L -3.10854,6.13173
 L -2.88904,6.54327 L -2.7117,6.98473 L -2.5782,7.45184 L -2.48985,7.94012 L -2.48509,7.93842 L -2.16479,10.3713
 L -2.10329,10.7092 L -2.00897,11.0395 L -1.88275,11.3589 L -1.72581,11.6644 L -1.53969,11.9531 L -1.32617,12.2221
 L -1.08731,12.469 L -0.825394,12.6912 L -0.542953,12.8866 L -0.242737,13.0535 L 0.0723724,13.1901 L 0.399399,13.2952
 L 0.735123,13.3677 L 1.07634,13.4069 L 1.41978,13.4126 L 1.7621,13.3845 L 2.10001,13.323 L 2.4303,13.2287
 L 2.74973,13.1025 L 3.05525,12.9455 L 3.34392,12.7594 L 3.61296,12.5459 L 3.85977,12.307 L 4.08199,12.0451
 L 4.27747,11.7627 L 4.44431,11.4624 L 4.58092,11.1473 L 4.68599,10.8203 L 4.7585,10.4846 L 4.79774,10.1434
 L 4.80338,9.79991 L 4.77531,9.4576 L 2.16479,-10.3713 L 2.10329,-10.7092 L 2.00897,-11.0395 L 1.88275,-11.3589
 L 1.72581,-11.6644 L 1.53969,-11.9531 L 1.32617,-12.2221 L 1.08731,-12.469 L 0.825394,-12.6912 L 0.542953,-12.8866
 L 0.242737,-13.0535 L -0.0723724,-13.1901 L -0.399399,-13.2952 L -0.735123,-13.3677 L -1.07634,-13.4069 L -1.41978,-13.4126
 L -1.7621,-13.3845 L -2.10001,-13.323 L -2.4303,-13.2287 L -2.74973,-13.1025 L -3.05525,-12.9455 L -3.34392,-12.7594
 L -3.61296,-12.5459 L -3.85977,-12.307 L -4.08199,-12.0451 L -4.27747,-11.7627 L -4.44431,-11.4624 L -4.58092,-11.1473
 L -4.68599,-10.8203 L -4.7585,-10.4846 L -4.79774,-10.1434 L -4.80338,-9.79991 L -4.77531,-9.4576 L -4.77394,-9.44719
 L -4.77881,-9.44623 L -4.73938,-8.96397 L -4.74728,-8.47704 L -4.8024,-7.9901 L -4.90422,-7.50786 L -5.05086,-7.02812
 L -5.24036,-6.55148 L -5.47209,-6.09154 L -5.74385,-5.65273 L -6.05298,-5.23927 L -6.39293,-4.82785 L -6.76122,-4.42847
 L -7.15685,-4.06436 L -7.576,-3.73903 L -8.01007,-3.42067 L -8.45712,-3.12967 L -8.91519,-2.88643 L -8.91451,-2.88124
 L -9.42793,-2.63841 L -11.1114,-1.62938 L -12.6879,-0.460205 L -14.1421,0.857864 L -15.4602,2.31215 L -16.6294,3.8886
 L -17.6384,5.57207 L -18.4776,7.34634 L -19.1388,9.19432 L -19.6157,11.0982 L -19.9037,13.0397 L -20,15
 L -19.9037,16.9603 L -19.6157,18.9018 L -19.1388,20.8057 L -18.4776,22.6537 L -17.6384,24.4279 L -16.6294,26.1114
 L -15.4602,27.6879 L -14.1421,29.1421 L -12.6879,30.4602 L -11.1114,31.6294 L -9.42793,32.6384 L -7.65366,33.4776
 L -5.80568,34.1388 L -3.90179,34.6157 L -1.96034,34.9037 L 0,35 L 35,35 z
M -1.40335,-8.41763 L -1.54959,-8.43446 L -1.69348,-8.46555 L -1.83362,-8.51057 L -1.96867,-8.56914 L -2.09735,-8.64062
 L -2.21838,-8.7244 L -2.33064,-8.81964 L -2.433,-8.92542 L -2.52452,-9.04071 L -2.60429,-9.16443 L -2.67155,-9.29536
 L -2.72565,-9.43227 L -2.76605,-9.57382 L -2.79242,-9.71866 L -2.80444,-9.86536 L -2.80205,-10.0125 L -2.78522,-10.1588
 L -2.75414,-10.3027 L -2.70911,-10.4428 L -2.65054,-10.5779 L -2.57906,-10.7065 L -2.49527,-10.8276 L -2.40004,-10.9398
 L -2.29427,-11.0422 L -2.17897,-11.1337 L -2.05525,-11.2135 L -1.92432,-11.2807 L -1.78741,-11.3348 L -1.64586,-11.3752
 L -1.50104,-11.4016 L -1.35434,-11.4136 L -1.20715,-11.4112 L -1.06091,-11.3944 L -0.917038,-11.3633 L -0.776886,-11.3183
 L -0.64183,-11.2597 L -0.513153,-11.1882 L -0.39212,-11.1045 L -0.279861,-11.0092 L -0.177505,-10.9034 L -0.0859833,-10.7881
 L -0.00621033,-10.6644 L 0.0610199,-10.5335 L 0.115128,-10.3966 L 0.155533,-10.2551 L 0.1819,-10.1102 L 0.193924,-9.96352
 L 0.191513,-9.81633 L 0.174698,-9.67009 L 0.143616,-9.5262 L 0.098587,-9.38605 L 0.0400238,-9.25101 L -0.0314484,-9.12233
 L -0.115234,-9.00128 L -0.210464,-8.88904 L -0.316254,-8.78668 L -0.431534,-8.69516 L -0.555252,-8.61539 L -0.686188,-8.54813
 L -0.82309,-8.49403 L -0.964645,-8.45361 L -1.10947,-8.42728 L -1.25616,-8.41524 z
M 1.20715,11.4112 L 1.06091,11.3944 L 0.917038,11.3633 L 0.776886,11.3183 L 0.64183,11.2597 L 0.513153,11.1882
 L 0.39212,11.1045 L 0.279861,11.0092 L 0.177505,10.9034 L 0.0859833,10.7881 L 0.00621033,10.6644 L -0.0610199,10.5335
 L -0.115128,10.3966 L -0.155533,10.2551 L -0.1819,10.1102 L -0.193924,9.96352 L -0.191513,9.81633 L -0.174698,9.67009
 L -0.143616,9.5262 L -0.098587,9.38605 L -0.0400238,9.25101 L 0.0314484,9.12233 L 0.115234,9.00128 L 0.210464,8.88904
 L 0.316254,8.78668 L 0.431534,8.69516 L 0.555252,8.61539 L 0.686188,8.54813 L 0.82309,8.49403 L 0.964645,8.45361
 L 1.10947,8.42728 L 1.25616,8.41524 L 1.40335,8.41763 L 1.54959,8.43446 L 1.69348,8.46555 L 1.83362,8.51057
 L 1.96867,8.56914 L 2.09735,8.64062 L 2.21838,8.7244 L 2.33064,8.81964 L 2.433,8.92542 L 2.52452,9.04071
 L 2.60429,9.16443 L 2.67155,9.29536 L 2.72565,9.43227 L 2.76605,9.57382 L 2.79242,9.71866 L 2.80444,9.86536
 L 2.80205,10.0125 L 2.78522,10.1588 L 2.75414,10.3027 L 2.70911,10.4428 L 2.65054,10.5779 L 2.57906,10.7065
 L 2.49527,10.8276 L 2.40004,10.9398 L 2.29427,11.0422 L 2.17897,11.1337 L 2.05525,11.2135 L 1.92432,11.2807
 L 1.78741,11.3348 L 1.64586,11.3752 L 1.50104,11.4016 L 1.35434,11.4136 z
" stroke="black" fill="lightgray" stroke-width="0.5"/>
</svg>
