<?xml version="1.0" standalone="no"?>
<!DOCTYPE svg PUBLIC "-//W3C//DTD SVG 1.1//EN" "http://www.w3.org/Graphics/SVG/1.1/DTD/svg11.dtd">
<svg width="59mm" height="49mm" viewBox="-20 -14 59 49" xmlns="http://www.w3.org/2000/svg" version="1.1">
<title>OpenSCAD Model</title>
<path d="
M 35.3676,34.9819 L 35.7316,34.9279 L 36.0886,34.8385 L 36.4351,34.7145 L 36.7677,34.5572 L 37.0834,34.368
 L 37.379,34.1488 L 37.6516,33.9016 L 37.8988,33.629 L 38.118,33.3334 L 38.3072,33.0177 L 38.4645,32.6851
 L 38.5885,32.3386 L 38.6779,31.9816 L 38.7319,31.6176 L 38.75,31.25 L 38.7319,30.8824 L 38.6779,30.5184
 L 38.5885,30.1614 L 38.4645,29.8149 L 38.3072,29.4823 L 38.118,29.1666 L 37.8988,28.871 L 37.6516,28.5983
 L 37.379,28.3512 L 37.0834,28.132 L 36.7677,27.9428 L 36.4351,27.7854 L 36.0886,27.6615 L 35.7316,27.5721
 L 35.3676,27.5181 L 35,27.5 L 0,27.5 L -1.2252,27.4398 L -2.43861,27.2598 L -3.62856,26.9617
 L -4.78354,26.5485 L -5.89246,26.024 L -6.94463,25.3934 L -7.9299,24.6626 L -8.83882,23.8388 L -9.66263,22.9299
 L -10.3934,21.9446 L -11.024,20.8925 L -11.5485,19.7835 L -11.9617,18.6286 L -12.2598,17.4386 L -12.4398,16.2252
 L -12.5,15 L -12.4398,13.7748 L -12.2598,12.5614 L -11.9617,11.3714 L -11.5485,10.2165 L -11.024,9.10754
 L -10.3934,8.05537 L -9.66263,7.0701 L -8.83882,6.16118 L -8.26213,5.6385 L -8.26186,5.64496 L -7.78717,5.26749
 L -7.31432,5.00528 L -6.84708,4.80559 L -6.3889,4.71823 L -5.94633,4.6949 L -5.52359,4.73807 L -5.12364,4.87186
 L -4.75186,5.06007 L -4.4118,5.30095 L -4.10681,5.59215 L -3.83977,5.93083 L -3.61325,6.3138 L -3.42944,6.73729
 L -3.29015,7.1973 L -3.19666,7.68936 L -3.14992,8.20874 L -3.145,8.20697 L -3.06047,10.1431 L -3.02866,10.4851
 L -2.96349,10.8224 L -2.86559,11.1516 L -2.73587,11.4696 L -2.57561,11.7734 L -2.38635,12.06 L -2.16991,12.3267
 L -1.92836,12.5709 L -1.66403,12.7903 L -1.3795,12.9827 L -1.07747,13.1462 L -0.760864,13.2794 L -0.432724,13.3809
 L -0.0962372,13.4497 L 0.245392,13.4853 L 0.588852,13.4871 L 0.930847,13.4553 L 1.26808,13.3902 L 1.59731,13.2923
 L 1.91534,13.1625 L 2.21915,13.0023 L 2.50577,12.813 L 2.77246,12.5966 L 3.01665,12.355 L 3.23599,12.0907
 L 3.42838,11.8062 L 3.59193,11.5042 L 3.7251,11.1875 L 3.8266,10.8594 L 3.89545,10.5229 L 3.93097,10.1813
 L 3.93286,9.83786 L 3.06047,-10.1431 L 3.02866,-10.4851 L 2.96349,-10.8224 L 2.86559,-11.1516 L 2.73587,-11.4696
 L 2.57561,-11.7734 L 2.38635,-12.06 L 2.16991,-12.3267 L 1.92836,-12.5709 L 1.66403,-12.7903 L 1.3795,-12.9827
 L 1.07747,-13.1462 L 0.760864,-13.2794 L 0.432724,-13.3809 L 0.0962372,-13.4497 L -0.245392,-13.4853 L -0.588852,-13.4871
 L -0.930847,-13.4553 L -1.26808,-13.3902 L -1.59731,-13.2923 L -1.91534,-13.1625 L -2.21915,-13.0023 L -2.50577,-12.813
 L -2.77246,-12.5966 L -3.01665,-12.355 L -3.23599,-12.0907 L -3.42838,-11.8062 L -3.59193,-11.5042 L -3.7251,-11.1875
 L -3.8266,-10.8594 L -3.89545,-10.5229 L -3.93097,-10.1813 L -3.93286,-9.83781 L -3.9232,-9.61642 L -3.92815,-9.61545
 L -3.93079,-9.12482 L -3.98116,-8.62943 L -4.07875,-8.13405 L -4.22264,-7.64343 L -4.41142,-7.16231 L -4.6433,-6.69533
 L -4.91531,-6.231 L -5.22527,-5.78262 L -5.57039,-5.36015 L -5.94736,-4.96767 L -6.35109,-4.57521 L -6.77827,-4.19983
 L -7.22562,-3.86441 L -7.68883,-3.5722 L -8.16098,-3.26973 L -8.64003,-3.01657 L -8.6398,-3.01117 L -9.42793,-2.63841
 L -11.1114,-1.62938 L -12.6879,-0.460205 L -14.1421,0.857864 L -15.4602,2.31215 L -16.6294,3.8886 L -17.6384,5.57207
 L -18.4776,7.34634 L -19.1388,9.19432 L -19.6157,11.0982 L -19.9037,13.0397 L -20,15 L -19.9037,16.9603
 L -19.6157,18.9018 L -19.1388,20.8057 L -18.4776,22.6537 L -17.6384,24.4279 L -16.6294,26.1114 L -15.4602,27.6879
 L -14.1421,29.1421 L -12.6879,30.4602 L -11.1114,31.6294 L -9.42793,32.6384 L -7.65366,33.4776 L -5.80568,34.1388
 L -3.90179,34.6157 L -1.96034,34.9037 L 0,35 L 35,35 z
M -0.517944,-8.49271 L -0.664368,-8.50792 L -0.808578,-8.53743 L -0.949203,-8.58092 L -1.0849,-8.638 L -1.21434,-8.7081
 L -1.33629,-8.79054 L -1.44957,-8.88455 L -1.55309,-8.9892 L -1.64584,-9.1035 L -1.72696,-9.22633 L -1.79564,-9.35654
 L -1.85124,-9.49284 L -1.8932,-9.63393 L -1.92111,-9.77847 L -1.93475,-9.92505 L -1.93394,-10.0722 L -1.91873,-10.2187
 L -1.88922,-10.3629 L -1.84572,-10.5035 L -1.78865,-10.6392 L -1.71854,-10.7686 L -1.63611,-10.8906 L -1.5421,-11.0039
 L -1.43744,-11.1074 L -1.32314,-11.2001 L -1.2003,-11.2812 L -1.07011,-11.3499 L -0.933807,-11.4055 L -0.792709,-11.4475
 L -0.648178,-11.4754 L -0.501617,-11.489 L -0.354416,-11.4882 L -0.208008,-11.473 L -0.0637817,-11.4435 L 0.076828,-11.4
 L 0.212509,-11.3429 L 0.341949,-11.2728 L 0.463898,-11.1904 L 0.577179,-11.0964 L 0.68071,-10.9917 L 0.773453,-10.8774
 L 0.854568,-10.7546 L 0.923264,-10.6244 L 0.978851,-10.4881 L 1.02081,-10.347 L 1.04874,-10.2025 L 1.06238,-10.0559
 L 1.06155,-9.90869 L 1.04634,-9.76228 L 1.01683,-9.61806 L 0.973343,-9.47743 L 0.91626,-9.34174 L 0.846161,-9.21231
 L 0.763718,-9.09036 L 0.669708,-8.97708 L 0.565048,-8.87355 L 0.450745,-8.78081 L 0.327927,-8.69969 L 0.197723,-8.631
 L 0.0614166,-8.57541 L -0.0796661,-8.53345 L -0.224197,-8.50552 L -0.370758,-8.4919 z
M 0.354416,11.4882 L 0.208008,11.473 L 0.0637817,11.4435 L -0.076828,11.4 L -0.212509,11.3429 L -0.341949,11.2728
 L -0.463898,11.1904 L -0.577179,11.0964 L -0.68071,10.9917 L -0.773453,10.8774 L -0.854568,10.7546 L -0.923264,10.6244
 L -0.978851,10.4881 L -1.02081,10.347 L -1.04874,10.2025 L -1.06238,10.0559 L -1.06155,9.90869 L -1.04634,9.76228
 L -1.01683,9.61806 L -0.973343,9.47743 L -0.91626,9.34174 L -0.846161,9.21231 L -0.763718,9.09036 L -0.669708,8.97708
 L -0.565048,8.87355 L -0.450745,8.78081 L -0.327927,8.69969 L -0.197723,8.631 L -0.0614166,8.57541 L 0.0796661,8.53345
 L 0.224197,8.50552 L 0.370758,8.4919 L 0.517944,8.49271 L 0.664368,8.50792 L 0.808578,8.53743 L 0.949203,8.58092
 L 1.0849,8.638 L 1.21434,8.7081 L 1.33629,8.79054 L 1.44957,8.88455 L 1.55309,8.9892 L 1.64584,9.1035
 L 1.72696,9.22633 L 1.79564,9.35654 L 1.85124,9.49284 L 1.8932,9.63393 L 1.92111,9.77847 L 1.93475,9.92505
 L 1.93394,10.0722 L 1.91873,10.2187 L 1.88922,10.3629 L 1.84572,10.5035 L 1.78865,10.6392 L 1.71854,10.7686
 L 1.63611,10.8906 L 1.5421,11.0039 L 1.43744,11.1074 L 1.32314,11.2001 L 1.2003,11.2812 L 1.07011,11.3499
 L 0.933807,11.4055 L 0.792709,11.4475 L 0.648178,11.4754 L 0.501617,11.489 z
" stroke="black" fill="lightgray" stroke-width="0.5"/>
</svg>
